G75*
%MOIN*%
%OFA0B0*%
%FSLAX25Y25*%
%IPPOS*%
%LPD*%
%AMOC8*
5,1,8,0,0,1.08239X$1,22.5*
%
%ADD10C,0.00000*%
%ADD11C,0.00600*%
%ADD12R,0.02362X0.01181*%
%ADD13C,0.00197*%
%ADD14R,0.01220X0.02323*%
D10*
X0003425Y0001575D02*
X0003425Y0019094D01*
X0017205Y0019094D01*
X0017205Y0001575D01*
X0003425Y0001575D01*
D11*
X0006888Y0002156D02*
X0006888Y0009419D01*
X0010513Y0009419D01*
X0010513Y0002156D01*
X0006888Y0002156D01*
X0006888Y0009419D01*
X0010513Y0009419D01*
X0010513Y0002156D01*
X0006888Y0002156D01*
X0006888Y0011211D02*
X0006888Y0018474D01*
X0010513Y0018474D01*
X0010513Y0011211D01*
X0006888Y0011211D01*
X0006888Y0018474D01*
X0010513Y0018474D01*
X0010513Y0011211D01*
X0006888Y0011211D01*
D12*
X0005551Y0014843D03*
X0011850Y0017402D03*
X0011850Y0012283D03*
X0011850Y0008346D03*
X0011850Y0003228D03*
X0005551Y0005787D03*
D13*
X0006339Y0007205D02*
X0006339Y0013386D01*
X0003583Y0013386D01*
X0003583Y0007205D01*
X0006339Y0007205D01*
X0014094Y0008110D02*
X0014094Y0001929D01*
X0016850Y0001929D01*
X0016850Y0008110D01*
X0014094Y0008110D01*
D14*
X0015453Y0005020D03*
X0004980Y0010295D03*
M02*
