G75*
%MOIN*%
%OFA0B0*%
%FSLAX25Y25*%
%IPPOS*%
%LPD*%
%AMOC8*
5,1,8,0,0,1.08239X$1,22.5*
%
%ADD10C,0.00000*%
%ADD11R,0.02165X0.02362*%
%ADD12C,0.00807*%
%ADD13C,0.02165*%
%ADD14C,0.02362*%
%ADD15C,0.01600*%
D10*
X0003425Y0001575D02*
X0003425Y0019094D01*
X0017205Y0019094D01*
X0017205Y0001575D01*
X0003425Y0001575D01*
D11*
X0005059Y0005787D03*
X0004961Y0008622D03*
X0004961Y0011969D03*
X0005059Y0014843D03*
X0012343Y0017402D03*
X0012343Y0012283D03*
X0012343Y0008346D03*
X0015472Y0006693D03*
X0015472Y0003346D03*
X0012343Y0003228D03*
D12*
X0012264Y0003150D01*
X0010315Y0003150D01*
X0008937Y0004528D01*
X0008937Y0010236D01*
X0010984Y0012283D01*
X0012343Y0012283D01*
X0012343Y0017402D02*
X0012953Y0017402D01*
X0005059Y0014843D02*
X0004961Y0014744D01*
X0004961Y0011969D01*
X0004961Y0008622D02*
X0004961Y0005886D01*
X0005059Y0005787D01*
X0012343Y0003346D02*
X0012343Y0003228D01*
X0012343Y0003346D02*
X0015472Y0003346D01*
D13*
X0016024Y0017362D02*
X0012283Y0017362D01*
D14*
X0005079Y0005787D02*
X0005079Y0002874D01*
D15*
X0012795Y0008465D02*
X0015709Y0011378D01*
X0015709Y0013976D01*
X0016024Y0008071D02*
X0015472Y0007520D01*
X0015472Y0006850D01*
M02*
