%
M48
M72
T01C0.01200
T02C0.01220
T03C0.01378
T04C0.02362
T05C0.03150
T06C0.03200
T07C0.03543
T08C0.03600
T09C0.03937
T10C0.04331
T11C0.04921
T12C0.05118
T13C0.05512
T14C0.06693
T15C0.09055
T16C0.11811
T17C0.15354
T18C0.15748
T19C0.37402
T20C0.49213
%
T01
X82805Y137378
X60620Y160783
X86211Y187850
X76860Y203106
X82766Y214425
X70463Y216394
X65108Y240154
X69478Y249858
X79321Y253303
X83258Y252811
X91624Y260685
X95069Y264130
X97530Y266591
X104419Y268559
X111309Y275449
X114754Y273972
X113770Y270528
X105404Y258717
X99498Y243461
X99498Y240016
X91624Y243953
X63238Y261866
X61014Y264957
X51762Y268067
X49793Y273480
X47825Y280370
X51762Y280370
X60620Y291689
X72431Y285783
X78829Y284799
X86211Y292673
X92608Y286276
X106388Y284799
X110325Y285291
X131978Y267575
X122431Y256256
X123612Y224760
X131014Y221335
X142589Y224307
X153632Y215902
X158553Y218362
X161014Y215902
X169872Y208028
X175285Y208028
X165935Y195724
X160522Y192772
X157077Y192772
X154124Y182929
X147726Y199169
X121644Y196217
X118199Y196217
X118691Y209012
X169813Y241157
X179872Y242614
X205266Y218106
X205797Y190311
X221545Y174563
X229911Y192772
X229715Y233126
X260620Y262161
X272805Y267614
X265837Y274858
X265089Y282024
X251703Y290843
X233356Y289701
X300778Y231650
X307667Y231650
X302746Y224268
X307667Y244937
X307667Y257240
X194478Y146512
X202352Y125350
X207274Y120429
X207274Y108126
X209734Y98776
X224990Y113126
X237293Y98283
X237785Y94839
X255541Y56925
X249439Y44386
X245778Y44425
X213593Y45626
X204813Y46610
X147726Y149465
X116230Y149957
X178238Y190311
X182175Y177024
T02
X194203Y177339
X169833Y197969
X161959Y202654
X158455Y205252
X154951Y202732
X154872Y207811
X161919Y207850
X160738Y221787
X160699Y227339
X164911Y229701
X164990Y236197
X164990Y239543
X155738Y238087
X152195Y231354
X144990Y237654
X139045Y231315
X141093Y228087
X128573Y228323
X121565Y228165
X103927Y227260
X102667Y231591
X95148Y219071
X85069Y219622
X85069Y227811
X80030Y233992
X70659Y242693
X78455Y260803
X83376Y265803
X81014Y273677
X78691Y279386
X74596Y275331
X75384Y267969
X69242Y270055
X64636Y280567
X67746Y281866
X69045Y284937
X71486Y291472
X57195Y288165
X55856Y284937
X41683Y270291
X54203Y265252
X51014Y250567
X44793Y245724
X31959Y246551
X26211Y235488
X17707Y254150
X63337Y209937
X63691Y198638
X73770Y182772
X87943Y182929
X100620Y190252
X104124Y201787
X100778Y209937
X75030Y219661
X105030Y246472
X105069Y249543
X105463Y264465
X91526Y279188
X68179Y312772
X57234Y325764
X68848Y336787
X70620Y340843
X66841Y340843
X67234Y345764
X66841Y349307
X70699Y347220
X68100Y358441
X31998Y342063
X30069Y337417
X30148Y333874
X30148Y330331
X29715Y318047
X30659Y307850
X116644Y382890
X127352Y366472
X127431Y362614
X134951Y375331
X144793Y354504
X141447Y350528
X145699Y346551
X156250Y356433
X159242Y342220
X170581Y341827
X186014Y343874
X199518Y343717
X201880Y346118
X199400Y350252
X199400Y355370
X197431Y358795
X194400Y361709
X185974Y360409
X175305Y361157
X182313Y370488
X199911Y369465
X208297Y304228
X208297Y299898
X217667Y297220
X221447Y297181
X223455Y291039
X225896Y288283
X232510Y283323
X245305Y283205
X247628Y290528
X254242Y284268
X264833Y287693
X264793Y290882
X246014Y272260
X246053Y269110
X246014Y265961
X231644Y266276
X224675Y256906
X220305Y264465
X217982Y266748
X213415Y264701
X209203Y264740
X205817Y249425
X203297Y247299
X200069Y241787
X205069Y239268
X205069Y236039
X189951Y230606
X189833Y243244
X174990Y239543
X174951Y236236
X174951Y247732
X165384Y257220
X162667Y254307
X155187Y247457
X152234Y257614
X144911Y249504
X144911Y246472
X137943Y256315
X127785Y257024
X125030Y249346
X125030Y246315
X158809Y269307
X167667Y266157
X174675Y265567
X179518Y269976
X181368Y276315
X193376Y278874
X180148Y292693
X174754Y297339
X179872Y300213
X127746Y348598
X122195Y331472
X189793Y214228
X192116Y207102
X150935Y195173
X146919Y190331
X138219Y197772
X146407Y208244
X126919Y182693
X126959Y163165
X121250Y142142
X110817Y123992
X110896Y120488
X106762Y120646
X105187Y123913
X100896Y136276
X100896Y155528
X77785Y136039
X77313Y119780
X93927Y110685
X92589Y105094
X88927Y95173
X84557Y95213
X80344Y95252
X76053Y95252
X71841Y95252
X63573Y102535
X63376Y106906
X60541Y99189
X53612Y99268
X46132Y102575
X41722Y106945
X37077Y108638
X37156Y120016
X28691Y122575
X19596Y133795
X22785Y136236
X16329Y136197
X40974Y131236
X58140Y147654
X74793Y155764
X73770Y163165
X44242Y198638
X34754Y182929
X33219Y174071
X29360Y174031
X25463Y189622
X21250Y105685
X19754Y97063
X51644Y91236
X54675Y89425
X57510Y91276
X57510Y87496
X61211Y84465
X57549Y76591
X57549Y72457
X61211Y67654
X65659Y72299
X64636Y76315
X69006Y75055
X74085Y75173
X79675Y75252
X85344Y75252
X88770Y79425
X91014Y75488
X83809Y64819
X84636Y59543
X78297Y64780
X69754Y60173
X66368Y57142
X63533Y53756
X62904Y60213
X55817Y59543
X62431Y48283
X59715Y42614
X60266Y33992
X59163Y31236
X62392Y31197
X64321Y33913
X66053Y31276
X70699Y36079
X70856Y43795
X69045Y48362
X75069Y48283
X79006Y48205
X79951Y40331
X83179Y37181
X86447Y34071
X86486Y40409
X91486Y46630
X95856Y48244
X95856Y53087
X89754Y58244
X105896Y56118
X106447Y59976
X110187Y60094
X110030Y56000
X104045Y42181
X95620Y42772
X98455Y31118
X101762Y26394
X105148Y28520
X94833Y22496
X89006Y23441
X85541Y21669
X77904Y10685
X72904Y10724
X68652Y15094
X79990Y33953
X70108Y53835
X25344Y64150
X24596Y60488
X19872Y60606
X17156Y64031
X131211Y36866
X131171Y22417
X146407Y36866
X175896Y36906
X190423Y22339
X192746Y36945
X204636Y50409
X219163Y23323
X236329Y28008
X255148Y33283
X259281Y33283
X263376Y33283
X266998Y28087
X251959Y50409
X240817Y46512
X255817Y82693
X265581Y94504
X253179Y109740
X242864Y110016
X237825Y110055
X233652Y110370
X237864Y114937
X232825Y121827
X239400Y124031
X247156Y127614
X226093Y128835
X221998Y124425
X213494Y125764
X222589Y137732
X233612Y157575
X233612Y177220
X248258Y192614
X262667Y172890
X271919Y172890
X285974Y190646
X295108Y219819
X279754Y232929
X302943Y242575
X302982Y259780
X271762Y257260
X245069Y247732
X269951Y148126
X238219Y105646
X241329Y94937
X226683Y100291
X222904Y102890
X216801Y104031
X225738Y89071
T03
X286565Y85882
T04
X145226Y157142
X125541Y157142
X24045Y52299
X19124Y52299
T05
X86565Y162260
X132628Y145331
X140502Y145134
X262156Y192969
X262156Y203598
X271998Y210488
X261762Y216394
X271211Y222496
X261959Y227220
X272195Y196709
X301289Y107890
X301289Y83087
T06
X365778Y31394
X127707Y291039
X200384Y301669
X201014Y392811
X211014Y392811
X191014Y392811
X181014Y392811
X171014Y392811
X79163Y381630
X32274Y381551
T07
X27470Y375055
X37470Y375055
X74360Y375134
X84360Y375134
X122904Y284543
X132904Y284543
X185344Y284228
X195344Y284228
X205344Y284228
X215344Y284228
X260069Y242772
X208770Y224268
X348337Y46433
X348337Y36433
X348337Y26433
X348337Y16433
T08
X225030Y237693
X75030Y237693
X49754Y310016
X49754Y320016
X49754Y330016
X49754Y340016
X49754Y350016
X49754Y360016
X39754Y360016
X39754Y350016
X39754Y340016
X39754Y330016
X39754Y320016
X39754Y310016
T09
X42313Y278559
X24596Y278559
X22037Y165370
X22037Y152220
X21132Y82969
X21132Y69819
X279715Y278520
X297431Y278520
T10
X33219Y237496
X33219Y205213
T11
X301289Y314819
X352589Y333323
T12
X304124Y286394
X273022Y286394
X49006Y286433
X17904Y286433
T13
X33219Y221354
T14
X23967Y113126
X51526Y113126
X94281Y64425
X226959Y64425
T15
X343376Y57260
X343376Y5528
T16
X190502Y330331
X129478Y392614
T17
X253533Y375252
X383415Y353283
T18
X26171Y28402
X31093Y262457
X161014Y284701
X290896Y262732
X296880Y28402
T19
X355668Y97498
X357084Y151039
T20
X354754Y223559
X356782Y277657
M30
