G75*
%MOIN*%
%OFA0B0*%
%FSLAX25Y25*%
%IPPOS*%
%LPD*%
%AMOC8*
5,1,8,0,0,1.08239X$1,22.5*
%
%ADD10C,0.00000*%
%ADD11C,0.15748*%
%ADD12C,0.06693*%
%ADD13C,0.03543*%
%ADD14C,0.37402*%
%ADD15C,0.49213*%
%ADD16C,0.15354*%
%ADD17C,0.04921*%
%ADD18C,0.11811*%
%ADD19OC8,0.05400*%
%ADD20C,0.05906*%
%ADD21C,0.05315*%
%ADD22C,0.03562*%
%ADD23C,0.06299*%
%ADD24R,0.06299X0.06299*%
%ADD25R,0.04921X0.07874*%
%ADD26R,0.08858X0.07087*%
%ADD27C,0.05512*%
%ADD28C,0.04331*%
%ADD29R,0.08661X0.11024*%
%ADD30R,0.11024X0.11024*%
%ADD31C,0.07677*%
%ADD32C,0.04000*%
%ADD33C,0.05906*%
%ADD34R,0.03937X0.04331*%
%ADD35R,0.05118X0.05906*%
%ADD36R,0.02520X0.02362*%
%ADD37R,0.04331X0.03937*%
%ADD38R,0.02362X0.02520*%
%ADD39R,0.02000X0.01402*%
%ADD40R,0.05906X0.05118*%
%ADD41OC8,0.06300*%
%ADD42R,0.08268X0.07874*%
%ADD43R,0.06299X0.07480*%
%ADD44R,0.01575X0.05315*%
%ADD45R,0.15748X0.04409*%
%ADD46C,0.09055*%
%ADD47R,0.07874X0.08268*%
%ADD48R,0.07480X0.06299*%
%ADD49R,0.05315X0.01575*%
%ADD50C,0.04800*%
%ADD51R,0.05512X0.03937*%
%ADD52R,0.01181X0.01772*%
%ADD53R,0.05906X0.09843*%
%ADD54R,0.01402X0.02000*%
%ADD55C,0.05400*%
%ADD56R,0.02441X0.04803*%
%ADD57C,0.06600*%
%ADD58C,0.05600*%
%ADD59C,0.02362*%
%ADD60C,0.03150*%
%ADD61R,0.09843X0.03937*%
D10*
X0011407Y0006748D02*
X0011407Y0097299D01*
X0009439Y0097299D01*
X0009439Y0156354D01*
X0011407Y0156354D01*
X0011407Y0400449D01*
X0318494Y0400449D01*
X0318494Y0387063D01*
X0403140Y0387063D01*
X0403140Y0364425D01*
X0405108Y0364425D01*
X0405108Y0006748D01*
X0172825Y0006748D01*
X0172825Y0016787D01*
X0149203Y0016787D01*
X0149203Y0006748D01*
X0011407Y0006748D01*
X0018297Y0028402D02*
X0018299Y0028595D01*
X0018306Y0028788D01*
X0018318Y0028981D01*
X0018335Y0029174D01*
X0018356Y0029366D01*
X0018382Y0029557D01*
X0018413Y0029748D01*
X0018448Y0029938D01*
X0018488Y0030127D01*
X0018533Y0030315D01*
X0018582Y0030502D01*
X0018636Y0030688D01*
X0018694Y0030872D01*
X0018757Y0031055D01*
X0018825Y0031236D01*
X0018896Y0031415D01*
X0018973Y0031593D01*
X0019053Y0031769D01*
X0019138Y0031942D01*
X0019227Y0032114D01*
X0019320Y0032283D01*
X0019417Y0032450D01*
X0019519Y0032615D01*
X0019624Y0032777D01*
X0019733Y0032936D01*
X0019847Y0033093D01*
X0019964Y0033246D01*
X0020084Y0033397D01*
X0020209Y0033545D01*
X0020337Y0033690D01*
X0020468Y0033831D01*
X0020603Y0033970D01*
X0020742Y0034105D01*
X0020883Y0034236D01*
X0021028Y0034364D01*
X0021176Y0034489D01*
X0021327Y0034609D01*
X0021480Y0034726D01*
X0021637Y0034840D01*
X0021796Y0034949D01*
X0021958Y0035054D01*
X0022123Y0035156D01*
X0022290Y0035253D01*
X0022459Y0035346D01*
X0022631Y0035435D01*
X0022804Y0035520D01*
X0022980Y0035600D01*
X0023158Y0035677D01*
X0023337Y0035748D01*
X0023518Y0035816D01*
X0023701Y0035879D01*
X0023885Y0035937D01*
X0024071Y0035991D01*
X0024258Y0036040D01*
X0024446Y0036085D01*
X0024635Y0036125D01*
X0024825Y0036160D01*
X0025016Y0036191D01*
X0025207Y0036217D01*
X0025399Y0036238D01*
X0025592Y0036255D01*
X0025785Y0036267D01*
X0025978Y0036274D01*
X0026171Y0036276D01*
X0026364Y0036274D01*
X0026557Y0036267D01*
X0026750Y0036255D01*
X0026943Y0036238D01*
X0027135Y0036217D01*
X0027326Y0036191D01*
X0027517Y0036160D01*
X0027707Y0036125D01*
X0027896Y0036085D01*
X0028084Y0036040D01*
X0028271Y0035991D01*
X0028457Y0035937D01*
X0028641Y0035879D01*
X0028824Y0035816D01*
X0029005Y0035748D01*
X0029184Y0035677D01*
X0029362Y0035600D01*
X0029538Y0035520D01*
X0029711Y0035435D01*
X0029883Y0035346D01*
X0030052Y0035253D01*
X0030219Y0035156D01*
X0030384Y0035054D01*
X0030546Y0034949D01*
X0030705Y0034840D01*
X0030862Y0034726D01*
X0031015Y0034609D01*
X0031166Y0034489D01*
X0031314Y0034364D01*
X0031459Y0034236D01*
X0031600Y0034105D01*
X0031739Y0033970D01*
X0031874Y0033831D01*
X0032005Y0033690D01*
X0032133Y0033545D01*
X0032258Y0033397D01*
X0032378Y0033246D01*
X0032495Y0033093D01*
X0032609Y0032936D01*
X0032718Y0032777D01*
X0032823Y0032615D01*
X0032925Y0032450D01*
X0033022Y0032283D01*
X0033115Y0032114D01*
X0033204Y0031942D01*
X0033289Y0031769D01*
X0033369Y0031593D01*
X0033446Y0031415D01*
X0033517Y0031236D01*
X0033585Y0031055D01*
X0033648Y0030872D01*
X0033706Y0030688D01*
X0033760Y0030502D01*
X0033809Y0030315D01*
X0033854Y0030127D01*
X0033894Y0029938D01*
X0033929Y0029748D01*
X0033960Y0029557D01*
X0033986Y0029366D01*
X0034007Y0029174D01*
X0034024Y0028981D01*
X0034036Y0028788D01*
X0034043Y0028595D01*
X0034045Y0028402D01*
X0034043Y0028209D01*
X0034036Y0028016D01*
X0034024Y0027823D01*
X0034007Y0027630D01*
X0033986Y0027438D01*
X0033960Y0027247D01*
X0033929Y0027056D01*
X0033894Y0026866D01*
X0033854Y0026677D01*
X0033809Y0026489D01*
X0033760Y0026302D01*
X0033706Y0026116D01*
X0033648Y0025932D01*
X0033585Y0025749D01*
X0033517Y0025568D01*
X0033446Y0025389D01*
X0033369Y0025211D01*
X0033289Y0025035D01*
X0033204Y0024862D01*
X0033115Y0024690D01*
X0033022Y0024521D01*
X0032925Y0024354D01*
X0032823Y0024189D01*
X0032718Y0024027D01*
X0032609Y0023868D01*
X0032495Y0023711D01*
X0032378Y0023558D01*
X0032258Y0023407D01*
X0032133Y0023259D01*
X0032005Y0023114D01*
X0031874Y0022973D01*
X0031739Y0022834D01*
X0031600Y0022699D01*
X0031459Y0022568D01*
X0031314Y0022440D01*
X0031166Y0022315D01*
X0031015Y0022195D01*
X0030862Y0022078D01*
X0030705Y0021964D01*
X0030546Y0021855D01*
X0030384Y0021750D01*
X0030219Y0021648D01*
X0030052Y0021551D01*
X0029883Y0021458D01*
X0029711Y0021369D01*
X0029538Y0021284D01*
X0029362Y0021204D01*
X0029184Y0021127D01*
X0029005Y0021056D01*
X0028824Y0020988D01*
X0028641Y0020925D01*
X0028457Y0020867D01*
X0028271Y0020813D01*
X0028084Y0020764D01*
X0027896Y0020719D01*
X0027707Y0020679D01*
X0027517Y0020644D01*
X0027326Y0020613D01*
X0027135Y0020587D01*
X0026943Y0020566D01*
X0026750Y0020549D01*
X0026557Y0020537D01*
X0026364Y0020530D01*
X0026171Y0020528D01*
X0025978Y0020530D01*
X0025785Y0020537D01*
X0025592Y0020549D01*
X0025399Y0020566D01*
X0025207Y0020587D01*
X0025016Y0020613D01*
X0024825Y0020644D01*
X0024635Y0020679D01*
X0024446Y0020719D01*
X0024258Y0020764D01*
X0024071Y0020813D01*
X0023885Y0020867D01*
X0023701Y0020925D01*
X0023518Y0020988D01*
X0023337Y0021056D01*
X0023158Y0021127D01*
X0022980Y0021204D01*
X0022804Y0021284D01*
X0022631Y0021369D01*
X0022459Y0021458D01*
X0022290Y0021551D01*
X0022123Y0021648D01*
X0021958Y0021750D01*
X0021796Y0021855D01*
X0021637Y0021964D01*
X0021480Y0022078D01*
X0021327Y0022195D01*
X0021176Y0022315D01*
X0021028Y0022440D01*
X0020883Y0022568D01*
X0020742Y0022699D01*
X0020603Y0022834D01*
X0020468Y0022973D01*
X0020337Y0023114D01*
X0020209Y0023259D01*
X0020084Y0023407D01*
X0019964Y0023558D01*
X0019847Y0023711D01*
X0019733Y0023868D01*
X0019624Y0024027D01*
X0019519Y0024189D01*
X0019417Y0024354D01*
X0019320Y0024521D01*
X0019227Y0024690D01*
X0019138Y0024862D01*
X0019053Y0025035D01*
X0018973Y0025211D01*
X0018896Y0025389D01*
X0018825Y0025568D01*
X0018757Y0025749D01*
X0018694Y0025932D01*
X0018636Y0026116D01*
X0018582Y0026302D01*
X0018533Y0026489D01*
X0018488Y0026677D01*
X0018448Y0026866D01*
X0018413Y0027056D01*
X0018382Y0027247D01*
X0018356Y0027438D01*
X0018335Y0027630D01*
X0018318Y0027823D01*
X0018306Y0028016D01*
X0018299Y0028209D01*
X0018297Y0028402D01*
X0090935Y0064425D02*
X0090937Y0064540D01*
X0090943Y0064656D01*
X0090953Y0064771D01*
X0090967Y0064886D01*
X0090985Y0065000D01*
X0091007Y0065113D01*
X0091032Y0065226D01*
X0091062Y0065337D01*
X0091095Y0065448D01*
X0091132Y0065557D01*
X0091173Y0065665D01*
X0091218Y0065772D01*
X0091266Y0065877D01*
X0091318Y0065980D01*
X0091374Y0066081D01*
X0091433Y0066181D01*
X0091495Y0066278D01*
X0091561Y0066373D01*
X0091629Y0066466D01*
X0091701Y0066556D01*
X0091776Y0066644D01*
X0091855Y0066729D01*
X0091936Y0066811D01*
X0092019Y0066891D01*
X0092106Y0066967D01*
X0092195Y0067041D01*
X0092286Y0067111D01*
X0092380Y0067179D01*
X0092476Y0067243D01*
X0092575Y0067303D01*
X0092675Y0067360D01*
X0092777Y0067414D01*
X0092881Y0067464D01*
X0092987Y0067511D01*
X0093094Y0067554D01*
X0093203Y0067593D01*
X0093313Y0067628D01*
X0093424Y0067659D01*
X0093536Y0067687D01*
X0093649Y0067711D01*
X0093763Y0067731D01*
X0093878Y0067747D01*
X0093993Y0067759D01*
X0094108Y0067767D01*
X0094223Y0067771D01*
X0094339Y0067771D01*
X0094454Y0067767D01*
X0094569Y0067759D01*
X0094684Y0067747D01*
X0094799Y0067731D01*
X0094913Y0067711D01*
X0095026Y0067687D01*
X0095138Y0067659D01*
X0095249Y0067628D01*
X0095359Y0067593D01*
X0095468Y0067554D01*
X0095575Y0067511D01*
X0095681Y0067464D01*
X0095785Y0067414D01*
X0095887Y0067360D01*
X0095987Y0067303D01*
X0096086Y0067243D01*
X0096182Y0067179D01*
X0096276Y0067111D01*
X0096367Y0067041D01*
X0096456Y0066967D01*
X0096543Y0066891D01*
X0096626Y0066811D01*
X0096707Y0066729D01*
X0096786Y0066644D01*
X0096861Y0066556D01*
X0096933Y0066466D01*
X0097001Y0066373D01*
X0097067Y0066278D01*
X0097129Y0066181D01*
X0097188Y0066081D01*
X0097244Y0065980D01*
X0097296Y0065877D01*
X0097344Y0065772D01*
X0097389Y0065665D01*
X0097430Y0065557D01*
X0097467Y0065448D01*
X0097500Y0065337D01*
X0097530Y0065226D01*
X0097555Y0065113D01*
X0097577Y0065000D01*
X0097595Y0064886D01*
X0097609Y0064771D01*
X0097619Y0064656D01*
X0097625Y0064540D01*
X0097627Y0064425D01*
X0097625Y0064310D01*
X0097619Y0064194D01*
X0097609Y0064079D01*
X0097595Y0063964D01*
X0097577Y0063850D01*
X0097555Y0063737D01*
X0097530Y0063624D01*
X0097500Y0063513D01*
X0097467Y0063402D01*
X0097430Y0063293D01*
X0097389Y0063185D01*
X0097344Y0063078D01*
X0097296Y0062973D01*
X0097244Y0062870D01*
X0097188Y0062769D01*
X0097129Y0062669D01*
X0097067Y0062572D01*
X0097001Y0062477D01*
X0096933Y0062384D01*
X0096861Y0062294D01*
X0096786Y0062206D01*
X0096707Y0062121D01*
X0096626Y0062039D01*
X0096543Y0061959D01*
X0096456Y0061883D01*
X0096367Y0061809D01*
X0096276Y0061739D01*
X0096182Y0061671D01*
X0096086Y0061607D01*
X0095987Y0061547D01*
X0095887Y0061490D01*
X0095785Y0061436D01*
X0095681Y0061386D01*
X0095575Y0061339D01*
X0095468Y0061296D01*
X0095359Y0061257D01*
X0095249Y0061222D01*
X0095138Y0061191D01*
X0095026Y0061163D01*
X0094913Y0061139D01*
X0094799Y0061119D01*
X0094684Y0061103D01*
X0094569Y0061091D01*
X0094454Y0061083D01*
X0094339Y0061079D01*
X0094223Y0061079D01*
X0094108Y0061083D01*
X0093993Y0061091D01*
X0093878Y0061103D01*
X0093763Y0061119D01*
X0093649Y0061139D01*
X0093536Y0061163D01*
X0093424Y0061191D01*
X0093313Y0061222D01*
X0093203Y0061257D01*
X0093094Y0061296D01*
X0092987Y0061339D01*
X0092881Y0061386D01*
X0092777Y0061436D01*
X0092675Y0061490D01*
X0092575Y0061547D01*
X0092476Y0061607D01*
X0092380Y0061671D01*
X0092286Y0061739D01*
X0092195Y0061809D01*
X0092106Y0061883D01*
X0092019Y0061959D01*
X0091936Y0062039D01*
X0091855Y0062121D01*
X0091776Y0062206D01*
X0091701Y0062294D01*
X0091629Y0062384D01*
X0091561Y0062477D01*
X0091495Y0062572D01*
X0091433Y0062669D01*
X0091374Y0062769D01*
X0091318Y0062870D01*
X0091266Y0062973D01*
X0091218Y0063078D01*
X0091173Y0063185D01*
X0091132Y0063293D01*
X0091095Y0063402D01*
X0091062Y0063513D01*
X0091032Y0063624D01*
X0091007Y0063737D01*
X0090985Y0063850D01*
X0090967Y0063964D01*
X0090953Y0064079D01*
X0090943Y0064194D01*
X0090937Y0064310D01*
X0090935Y0064425D01*
X0048180Y0113126D02*
X0048182Y0113241D01*
X0048188Y0113357D01*
X0048198Y0113472D01*
X0048212Y0113587D01*
X0048230Y0113701D01*
X0048252Y0113814D01*
X0048277Y0113927D01*
X0048307Y0114038D01*
X0048340Y0114149D01*
X0048377Y0114258D01*
X0048418Y0114366D01*
X0048463Y0114473D01*
X0048511Y0114578D01*
X0048563Y0114681D01*
X0048619Y0114782D01*
X0048678Y0114882D01*
X0048740Y0114979D01*
X0048806Y0115074D01*
X0048874Y0115167D01*
X0048946Y0115257D01*
X0049021Y0115345D01*
X0049100Y0115430D01*
X0049181Y0115512D01*
X0049264Y0115592D01*
X0049351Y0115668D01*
X0049440Y0115742D01*
X0049531Y0115812D01*
X0049625Y0115880D01*
X0049721Y0115944D01*
X0049820Y0116004D01*
X0049920Y0116061D01*
X0050022Y0116115D01*
X0050126Y0116165D01*
X0050232Y0116212D01*
X0050339Y0116255D01*
X0050448Y0116294D01*
X0050558Y0116329D01*
X0050669Y0116360D01*
X0050781Y0116388D01*
X0050894Y0116412D01*
X0051008Y0116432D01*
X0051123Y0116448D01*
X0051238Y0116460D01*
X0051353Y0116468D01*
X0051468Y0116472D01*
X0051584Y0116472D01*
X0051699Y0116468D01*
X0051814Y0116460D01*
X0051929Y0116448D01*
X0052044Y0116432D01*
X0052158Y0116412D01*
X0052271Y0116388D01*
X0052383Y0116360D01*
X0052494Y0116329D01*
X0052604Y0116294D01*
X0052713Y0116255D01*
X0052820Y0116212D01*
X0052926Y0116165D01*
X0053030Y0116115D01*
X0053132Y0116061D01*
X0053232Y0116004D01*
X0053331Y0115944D01*
X0053427Y0115880D01*
X0053521Y0115812D01*
X0053612Y0115742D01*
X0053701Y0115668D01*
X0053788Y0115592D01*
X0053871Y0115512D01*
X0053952Y0115430D01*
X0054031Y0115345D01*
X0054106Y0115257D01*
X0054178Y0115167D01*
X0054246Y0115074D01*
X0054312Y0114979D01*
X0054374Y0114882D01*
X0054433Y0114782D01*
X0054489Y0114681D01*
X0054541Y0114578D01*
X0054589Y0114473D01*
X0054634Y0114366D01*
X0054675Y0114258D01*
X0054712Y0114149D01*
X0054745Y0114038D01*
X0054775Y0113927D01*
X0054800Y0113814D01*
X0054822Y0113701D01*
X0054840Y0113587D01*
X0054854Y0113472D01*
X0054864Y0113357D01*
X0054870Y0113241D01*
X0054872Y0113126D01*
X0054870Y0113011D01*
X0054864Y0112895D01*
X0054854Y0112780D01*
X0054840Y0112665D01*
X0054822Y0112551D01*
X0054800Y0112438D01*
X0054775Y0112325D01*
X0054745Y0112214D01*
X0054712Y0112103D01*
X0054675Y0111994D01*
X0054634Y0111886D01*
X0054589Y0111779D01*
X0054541Y0111674D01*
X0054489Y0111571D01*
X0054433Y0111470D01*
X0054374Y0111370D01*
X0054312Y0111273D01*
X0054246Y0111178D01*
X0054178Y0111085D01*
X0054106Y0110995D01*
X0054031Y0110907D01*
X0053952Y0110822D01*
X0053871Y0110740D01*
X0053788Y0110660D01*
X0053701Y0110584D01*
X0053612Y0110510D01*
X0053521Y0110440D01*
X0053427Y0110372D01*
X0053331Y0110308D01*
X0053232Y0110248D01*
X0053132Y0110191D01*
X0053030Y0110137D01*
X0052926Y0110087D01*
X0052820Y0110040D01*
X0052713Y0109997D01*
X0052604Y0109958D01*
X0052494Y0109923D01*
X0052383Y0109892D01*
X0052271Y0109864D01*
X0052158Y0109840D01*
X0052044Y0109820D01*
X0051929Y0109804D01*
X0051814Y0109792D01*
X0051699Y0109784D01*
X0051584Y0109780D01*
X0051468Y0109780D01*
X0051353Y0109784D01*
X0051238Y0109792D01*
X0051123Y0109804D01*
X0051008Y0109820D01*
X0050894Y0109840D01*
X0050781Y0109864D01*
X0050669Y0109892D01*
X0050558Y0109923D01*
X0050448Y0109958D01*
X0050339Y0109997D01*
X0050232Y0110040D01*
X0050126Y0110087D01*
X0050022Y0110137D01*
X0049920Y0110191D01*
X0049820Y0110248D01*
X0049721Y0110308D01*
X0049625Y0110372D01*
X0049531Y0110440D01*
X0049440Y0110510D01*
X0049351Y0110584D01*
X0049264Y0110660D01*
X0049181Y0110740D01*
X0049100Y0110822D01*
X0049021Y0110907D01*
X0048946Y0110995D01*
X0048874Y0111085D01*
X0048806Y0111178D01*
X0048740Y0111273D01*
X0048678Y0111370D01*
X0048619Y0111470D01*
X0048563Y0111571D01*
X0048511Y0111674D01*
X0048463Y0111779D01*
X0048418Y0111886D01*
X0048377Y0111994D01*
X0048340Y0112103D01*
X0048307Y0112214D01*
X0048277Y0112325D01*
X0048252Y0112438D01*
X0048230Y0112551D01*
X0048212Y0112665D01*
X0048198Y0112780D01*
X0048188Y0112895D01*
X0048182Y0113011D01*
X0048180Y0113126D01*
X0020621Y0113126D02*
X0020623Y0113241D01*
X0020629Y0113357D01*
X0020639Y0113472D01*
X0020653Y0113587D01*
X0020671Y0113701D01*
X0020693Y0113814D01*
X0020718Y0113927D01*
X0020748Y0114038D01*
X0020781Y0114149D01*
X0020818Y0114258D01*
X0020859Y0114366D01*
X0020904Y0114473D01*
X0020952Y0114578D01*
X0021004Y0114681D01*
X0021060Y0114782D01*
X0021119Y0114882D01*
X0021181Y0114979D01*
X0021247Y0115074D01*
X0021315Y0115167D01*
X0021387Y0115257D01*
X0021462Y0115345D01*
X0021541Y0115430D01*
X0021622Y0115512D01*
X0021705Y0115592D01*
X0021792Y0115668D01*
X0021881Y0115742D01*
X0021972Y0115812D01*
X0022066Y0115880D01*
X0022162Y0115944D01*
X0022261Y0116004D01*
X0022361Y0116061D01*
X0022463Y0116115D01*
X0022567Y0116165D01*
X0022673Y0116212D01*
X0022780Y0116255D01*
X0022889Y0116294D01*
X0022999Y0116329D01*
X0023110Y0116360D01*
X0023222Y0116388D01*
X0023335Y0116412D01*
X0023449Y0116432D01*
X0023564Y0116448D01*
X0023679Y0116460D01*
X0023794Y0116468D01*
X0023909Y0116472D01*
X0024025Y0116472D01*
X0024140Y0116468D01*
X0024255Y0116460D01*
X0024370Y0116448D01*
X0024485Y0116432D01*
X0024599Y0116412D01*
X0024712Y0116388D01*
X0024824Y0116360D01*
X0024935Y0116329D01*
X0025045Y0116294D01*
X0025154Y0116255D01*
X0025261Y0116212D01*
X0025367Y0116165D01*
X0025471Y0116115D01*
X0025573Y0116061D01*
X0025673Y0116004D01*
X0025772Y0115944D01*
X0025868Y0115880D01*
X0025962Y0115812D01*
X0026053Y0115742D01*
X0026142Y0115668D01*
X0026229Y0115592D01*
X0026312Y0115512D01*
X0026393Y0115430D01*
X0026472Y0115345D01*
X0026547Y0115257D01*
X0026619Y0115167D01*
X0026687Y0115074D01*
X0026753Y0114979D01*
X0026815Y0114882D01*
X0026874Y0114782D01*
X0026930Y0114681D01*
X0026982Y0114578D01*
X0027030Y0114473D01*
X0027075Y0114366D01*
X0027116Y0114258D01*
X0027153Y0114149D01*
X0027186Y0114038D01*
X0027216Y0113927D01*
X0027241Y0113814D01*
X0027263Y0113701D01*
X0027281Y0113587D01*
X0027295Y0113472D01*
X0027305Y0113357D01*
X0027311Y0113241D01*
X0027313Y0113126D01*
X0027311Y0113011D01*
X0027305Y0112895D01*
X0027295Y0112780D01*
X0027281Y0112665D01*
X0027263Y0112551D01*
X0027241Y0112438D01*
X0027216Y0112325D01*
X0027186Y0112214D01*
X0027153Y0112103D01*
X0027116Y0111994D01*
X0027075Y0111886D01*
X0027030Y0111779D01*
X0026982Y0111674D01*
X0026930Y0111571D01*
X0026874Y0111470D01*
X0026815Y0111370D01*
X0026753Y0111273D01*
X0026687Y0111178D01*
X0026619Y0111085D01*
X0026547Y0110995D01*
X0026472Y0110907D01*
X0026393Y0110822D01*
X0026312Y0110740D01*
X0026229Y0110660D01*
X0026142Y0110584D01*
X0026053Y0110510D01*
X0025962Y0110440D01*
X0025868Y0110372D01*
X0025772Y0110308D01*
X0025673Y0110248D01*
X0025573Y0110191D01*
X0025471Y0110137D01*
X0025367Y0110087D01*
X0025261Y0110040D01*
X0025154Y0109997D01*
X0025045Y0109958D01*
X0024935Y0109923D01*
X0024824Y0109892D01*
X0024712Y0109864D01*
X0024599Y0109840D01*
X0024485Y0109820D01*
X0024370Y0109804D01*
X0024255Y0109792D01*
X0024140Y0109784D01*
X0024025Y0109780D01*
X0023909Y0109780D01*
X0023794Y0109784D01*
X0023679Y0109792D01*
X0023564Y0109804D01*
X0023449Y0109820D01*
X0023335Y0109840D01*
X0023222Y0109864D01*
X0023110Y0109892D01*
X0022999Y0109923D01*
X0022889Y0109958D01*
X0022780Y0109997D01*
X0022673Y0110040D01*
X0022567Y0110087D01*
X0022463Y0110137D01*
X0022361Y0110191D01*
X0022261Y0110248D01*
X0022162Y0110308D01*
X0022066Y0110372D01*
X0021972Y0110440D01*
X0021881Y0110510D01*
X0021792Y0110584D01*
X0021705Y0110660D01*
X0021622Y0110740D01*
X0021541Y0110822D01*
X0021462Y0110907D01*
X0021387Y0110995D01*
X0021315Y0111085D01*
X0021247Y0111178D01*
X0021181Y0111273D01*
X0021119Y0111370D01*
X0021060Y0111470D01*
X0021004Y0111571D01*
X0020952Y0111674D01*
X0020904Y0111779D01*
X0020859Y0111886D01*
X0020818Y0111994D01*
X0020781Y0112103D01*
X0020748Y0112214D01*
X0020718Y0112325D01*
X0020693Y0112438D01*
X0020671Y0112551D01*
X0020653Y0112665D01*
X0020639Y0112780D01*
X0020629Y0112895D01*
X0020623Y0113011D01*
X0020621Y0113126D01*
X0031054Y0205213D02*
X0031056Y0205306D01*
X0031062Y0205398D01*
X0031072Y0205490D01*
X0031086Y0205581D01*
X0031103Y0205672D01*
X0031125Y0205762D01*
X0031150Y0205851D01*
X0031179Y0205939D01*
X0031212Y0206025D01*
X0031249Y0206110D01*
X0031289Y0206194D01*
X0031333Y0206275D01*
X0031380Y0206355D01*
X0031430Y0206433D01*
X0031484Y0206508D01*
X0031541Y0206581D01*
X0031601Y0206651D01*
X0031664Y0206719D01*
X0031730Y0206784D01*
X0031798Y0206846D01*
X0031869Y0206906D01*
X0031943Y0206962D01*
X0032019Y0207015D01*
X0032097Y0207064D01*
X0032177Y0207111D01*
X0032259Y0207153D01*
X0032343Y0207193D01*
X0032428Y0207228D01*
X0032515Y0207260D01*
X0032603Y0207289D01*
X0032692Y0207313D01*
X0032782Y0207334D01*
X0032873Y0207350D01*
X0032965Y0207363D01*
X0033057Y0207372D01*
X0033150Y0207377D01*
X0033242Y0207378D01*
X0033335Y0207375D01*
X0033427Y0207368D01*
X0033519Y0207357D01*
X0033610Y0207342D01*
X0033701Y0207324D01*
X0033791Y0207301D01*
X0033879Y0207275D01*
X0033967Y0207245D01*
X0034053Y0207211D01*
X0034137Y0207174D01*
X0034220Y0207132D01*
X0034301Y0207088D01*
X0034381Y0207040D01*
X0034458Y0206989D01*
X0034532Y0206934D01*
X0034605Y0206876D01*
X0034675Y0206816D01*
X0034742Y0206752D01*
X0034806Y0206686D01*
X0034868Y0206616D01*
X0034926Y0206545D01*
X0034981Y0206471D01*
X0035033Y0206394D01*
X0035082Y0206315D01*
X0035128Y0206235D01*
X0035170Y0206152D01*
X0035208Y0206068D01*
X0035243Y0205982D01*
X0035274Y0205895D01*
X0035301Y0205807D01*
X0035324Y0205717D01*
X0035344Y0205627D01*
X0035360Y0205536D01*
X0035372Y0205444D01*
X0035380Y0205352D01*
X0035384Y0205259D01*
X0035384Y0205167D01*
X0035380Y0205074D01*
X0035372Y0204982D01*
X0035360Y0204890D01*
X0035344Y0204799D01*
X0035324Y0204709D01*
X0035301Y0204619D01*
X0035274Y0204531D01*
X0035243Y0204444D01*
X0035208Y0204358D01*
X0035170Y0204274D01*
X0035128Y0204191D01*
X0035082Y0204111D01*
X0035033Y0204032D01*
X0034981Y0203955D01*
X0034926Y0203881D01*
X0034868Y0203810D01*
X0034806Y0203740D01*
X0034742Y0203674D01*
X0034675Y0203610D01*
X0034605Y0203550D01*
X0034532Y0203492D01*
X0034458Y0203437D01*
X0034381Y0203386D01*
X0034302Y0203338D01*
X0034220Y0203294D01*
X0034137Y0203252D01*
X0034053Y0203215D01*
X0033967Y0203181D01*
X0033879Y0203151D01*
X0033791Y0203125D01*
X0033701Y0203102D01*
X0033610Y0203084D01*
X0033519Y0203069D01*
X0033427Y0203058D01*
X0033335Y0203051D01*
X0033242Y0203048D01*
X0033150Y0203049D01*
X0033057Y0203054D01*
X0032965Y0203063D01*
X0032873Y0203076D01*
X0032782Y0203092D01*
X0032692Y0203113D01*
X0032603Y0203137D01*
X0032515Y0203166D01*
X0032428Y0203198D01*
X0032343Y0203233D01*
X0032259Y0203273D01*
X0032177Y0203315D01*
X0032097Y0203362D01*
X0032019Y0203411D01*
X0031943Y0203464D01*
X0031869Y0203520D01*
X0031798Y0203580D01*
X0031730Y0203642D01*
X0031664Y0203707D01*
X0031601Y0203775D01*
X0031541Y0203845D01*
X0031484Y0203918D01*
X0031430Y0203993D01*
X0031380Y0204071D01*
X0031333Y0204151D01*
X0031289Y0204232D01*
X0031249Y0204316D01*
X0031212Y0204401D01*
X0031179Y0204487D01*
X0031150Y0204575D01*
X0031125Y0204664D01*
X0031103Y0204754D01*
X0031086Y0204845D01*
X0031072Y0204936D01*
X0031062Y0205028D01*
X0031056Y0205120D01*
X0031054Y0205213D01*
X0030463Y0221354D02*
X0030465Y0221459D01*
X0030471Y0221564D01*
X0030481Y0221668D01*
X0030495Y0221772D01*
X0030513Y0221876D01*
X0030535Y0221978D01*
X0030560Y0222080D01*
X0030590Y0222181D01*
X0030623Y0222280D01*
X0030660Y0222378D01*
X0030701Y0222475D01*
X0030746Y0222570D01*
X0030794Y0222663D01*
X0030845Y0222755D01*
X0030901Y0222844D01*
X0030959Y0222931D01*
X0031021Y0223016D01*
X0031085Y0223099D01*
X0031153Y0223179D01*
X0031224Y0223256D01*
X0031298Y0223330D01*
X0031375Y0223402D01*
X0031454Y0223471D01*
X0031536Y0223536D01*
X0031620Y0223599D01*
X0031707Y0223658D01*
X0031796Y0223714D01*
X0031887Y0223767D01*
X0031980Y0223816D01*
X0032074Y0223861D01*
X0032170Y0223903D01*
X0032268Y0223941D01*
X0032367Y0223975D01*
X0032468Y0224006D01*
X0032569Y0224032D01*
X0032672Y0224055D01*
X0032775Y0224074D01*
X0032879Y0224089D01*
X0032983Y0224100D01*
X0033088Y0224107D01*
X0033193Y0224110D01*
X0033298Y0224109D01*
X0033403Y0224104D01*
X0033507Y0224095D01*
X0033611Y0224082D01*
X0033715Y0224065D01*
X0033818Y0224044D01*
X0033920Y0224019D01*
X0034021Y0223991D01*
X0034120Y0223958D01*
X0034219Y0223922D01*
X0034316Y0223882D01*
X0034411Y0223839D01*
X0034505Y0223791D01*
X0034597Y0223741D01*
X0034687Y0223687D01*
X0034775Y0223629D01*
X0034860Y0223568D01*
X0034943Y0223504D01*
X0035024Y0223437D01*
X0035102Y0223367D01*
X0035177Y0223293D01*
X0035249Y0223218D01*
X0035319Y0223139D01*
X0035385Y0223058D01*
X0035449Y0222974D01*
X0035509Y0222888D01*
X0035565Y0222800D01*
X0035619Y0222709D01*
X0035669Y0222617D01*
X0035715Y0222523D01*
X0035758Y0222427D01*
X0035797Y0222329D01*
X0035832Y0222231D01*
X0035863Y0222130D01*
X0035891Y0222029D01*
X0035915Y0221927D01*
X0035935Y0221824D01*
X0035951Y0221720D01*
X0035963Y0221616D01*
X0035971Y0221511D01*
X0035975Y0221406D01*
X0035975Y0221302D01*
X0035971Y0221197D01*
X0035963Y0221092D01*
X0035951Y0220988D01*
X0035935Y0220884D01*
X0035915Y0220781D01*
X0035891Y0220679D01*
X0035863Y0220578D01*
X0035832Y0220477D01*
X0035797Y0220379D01*
X0035758Y0220281D01*
X0035715Y0220185D01*
X0035669Y0220091D01*
X0035619Y0219999D01*
X0035565Y0219908D01*
X0035509Y0219820D01*
X0035449Y0219734D01*
X0035385Y0219650D01*
X0035319Y0219569D01*
X0035249Y0219490D01*
X0035177Y0219415D01*
X0035102Y0219341D01*
X0035024Y0219271D01*
X0034943Y0219204D01*
X0034860Y0219140D01*
X0034775Y0219079D01*
X0034687Y0219021D01*
X0034597Y0218967D01*
X0034505Y0218917D01*
X0034411Y0218869D01*
X0034316Y0218826D01*
X0034219Y0218786D01*
X0034120Y0218750D01*
X0034021Y0218717D01*
X0033920Y0218689D01*
X0033818Y0218664D01*
X0033715Y0218643D01*
X0033611Y0218626D01*
X0033507Y0218613D01*
X0033403Y0218604D01*
X0033298Y0218599D01*
X0033193Y0218598D01*
X0033088Y0218601D01*
X0032983Y0218608D01*
X0032879Y0218619D01*
X0032775Y0218634D01*
X0032672Y0218653D01*
X0032569Y0218676D01*
X0032468Y0218702D01*
X0032367Y0218733D01*
X0032268Y0218767D01*
X0032170Y0218805D01*
X0032074Y0218847D01*
X0031980Y0218892D01*
X0031887Y0218941D01*
X0031796Y0218994D01*
X0031707Y0219050D01*
X0031620Y0219109D01*
X0031536Y0219172D01*
X0031454Y0219237D01*
X0031375Y0219306D01*
X0031298Y0219378D01*
X0031224Y0219452D01*
X0031153Y0219529D01*
X0031085Y0219609D01*
X0031021Y0219692D01*
X0030959Y0219777D01*
X0030901Y0219864D01*
X0030845Y0219953D01*
X0030794Y0220045D01*
X0030746Y0220138D01*
X0030701Y0220233D01*
X0030660Y0220330D01*
X0030623Y0220428D01*
X0030590Y0220527D01*
X0030560Y0220628D01*
X0030535Y0220730D01*
X0030513Y0220832D01*
X0030495Y0220936D01*
X0030481Y0221040D01*
X0030471Y0221144D01*
X0030465Y0221249D01*
X0030463Y0221354D01*
X0031054Y0237496D02*
X0031056Y0237589D01*
X0031062Y0237681D01*
X0031072Y0237773D01*
X0031086Y0237864D01*
X0031103Y0237955D01*
X0031125Y0238045D01*
X0031150Y0238134D01*
X0031179Y0238222D01*
X0031212Y0238308D01*
X0031249Y0238393D01*
X0031289Y0238477D01*
X0031333Y0238558D01*
X0031380Y0238638D01*
X0031430Y0238716D01*
X0031484Y0238791D01*
X0031541Y0238864D01*
X0031601Y0238934D01*
X0031664Y0239002D01*
X0031730Y0239067D01*
X0031798Y0239129D01*
X0031869Y0239189D01*
X0031943Y0239245D01*
X0032019Y0239298D01*
X0032097Y0239347D01*
X0032177Y0239394D01*
X0032259Y0239436D01*
X0032343Y0239476D01*
X0032428Y0239511D01*
X0032515Y0239543D01*
X0032603Y0239572D01*
X0032692Y0239596D01*
X0032782Y0239617D01*
X0032873Y0239633D01*
X0032965Y0239646D01*
X0033057Y0239655D01*
X0033150Y0239660D01*
X0033242Y0239661D01*
X0033335Y0239658D01*
X0033427Y0239651D01*
X0033519Y0239640D01*
X0033610Y0239625D01*
X0033701Y0239607D01*
X0033791Y0239584D01*
X0033879Y0239558D01*
X0033967Y0239528D01*
X0034053Y0239494D01*
X0034137Y0239457D01*
X0034220Y0239415D01*
X0034301Y0239371D01*
X0034381Y0239323D01*
X0034458Y0239272D01*
X0034532Y0239217D01*
X0034605Y0239159D01*
X0034675Y0239099D01*
X0034742Y0239035D01*
X0034806Y0238969D01*
X0034868Y0238899D01*
X0034926Y0238828D01*
X0034981Y0238754D01*
X0035033Y0238677D01*
X0035082Y0238598D01*
X0035128Y0238518D01*
X0035170Y0238435D01*
X0035208Y0238351D01*
X0035243Y0238265D01*
X0035274Y0238178D01*
X0035301Y0238090D01*
X0035324Y0238000D01*
X0035344Y0237910D01*
X0035360Y0237819D01*
X0035372Y0237727D01*
X0035380Y0237635D01*
X0035384Y0237542D01*
X0035384Y0237450D01*
X0035380Y0237357D01*
X0035372Y0237265D01*
X0035360Y0237173D01*
X0035344Y0237082D01*
X0035324Y0236992D01*
X0035301Y0236902D01*
X0035274Y0236814D01*
X0035243Y0236727D01*
X0035208Y0236641D01*
X0035170Y0236557D01*
X0035128Y0236474D01*
X0035082Y0236394D01*
X0035033Y0236315D01*
X0034981Y0236238D01*
X0034926Y0236164D01*
X0034868Y0236093D01*
X0034806Y0236023D01*
X0034742Y0235957D01*
X0034675Y0235893D01*
X0034605Y0235833D01*
X0034532Y0235775D01*
X0034458Y0235720D01*
X0034381Y0235669D01*
X0034302Y0235621D01*
X0034220Y0235577D01*
X0034137Y0235535D01*
X0034053Y0235498D01*
X0033967Y0235464D01*
X0033879Y0235434D01*
X0033791Y0235408D01*
X0033701Y0235385D01*
X0033610Y0235367D01*
X0033519Y0235352D01*
X0033427Y0235341D01*
X0033335Y0235334D01*
X0033242Y0235331D01*
X0033150Y0235332D01*
X0033057Y0235337D01*
X0032965Y0235346D01*
X0032873Y0235359D01*
X0032782Y0235375D01*
X0032692Y0235396D01*
X0032603Y0235420D01*
X0032515Y0235449D01*
X0032428Y0235481D01*
X0032343Y0235516D01*
X0032259Y0235556D01*
X0032177Y0235598D01*
X0032097Y0235645D01*
X0032019Y0235694D01*
X0031943Y0235747D01*
X0031869Y0235803D01*
X0031798Y0235863D01*
X0031730Y0235925D01*
X0031664Y0235990D01*
X0031601Y0236058D01*
X0031541Y0236128D01*
X0031484Y0236201D01*
X0031430Y0236276D01*
X0031380Y0236354D01*
X0031333Y0236434D01*
X0031289Y0236515D01*
X0031249Y0236599D01*
X0031212Y0236684D01*
X0031179Y0236770D01*
X0031150Y0236858D01*
X0031125Y0236947D01*
X0031103Y0237037D01*
X0031086Y0237128D01*
X0031072Y0237219D01*
X0031062Y0237311D01*
X0031056Y0237403D01*
X0031054Y0237496D01*
X0023219Y0262457D02*
X0023221Y0262650D01*
X0023228Y0262843D01*
X0023240Y0263036D01*
X0023257Y0263229D01*
X0023278Y0263421D01*
X0023304Y0263612D01*
X0023335Y0263803D01*
X0023370Y0263993D01*
X0023410Y0264182D01*
X0023455Y0264370D01*
X0023504Y0264557D01*
X0023558Y0264743D01*
X0023616Y0264927D01*
X0023679Y0265110D01*
X0023747Y0265291D01*
X0023818Y0265470D01*
X0023895Y0265648D01*
X0023975Y0265824D01*
X0024060Y0265997D01*
X0024149Y0266169D01*
X0024242Y0266338D01*
X0024339Y0266505D01*
X0024441Y0266670D01*
X0024546Y0266832D01*
X0024655Y0266991D01*
X0024769Y0267148D01*
X0024886Y0267301D01*
X0025006Y0267452D01*
X0025131Y0267600D01*
X0025259Y0267745D01*
X0025390Y0267886D01*
X0025525Y0268025D01*
X0025664Y0268160D01*
X0025805Y0268291D01*
X0025950Y0268419D01*
X0026098Y0268544D01*
X0026249Y0268664D01*
X0026402Y0268781D01*
X0026559Y0268895D01*
X0026718Y0269004D01*
X0026880Y0269109D01*
X0027045Y0269211D01*
X0027212Y0269308D01*
X0027381Y0269401D01*
X0027553Y0269490D01*
X0027726Y0269575D01*
X0027902Y0269655D01*
X0028080Y0269732D01*
X0028259Y0269803D01*
X0028440Y0269871D01*
X0028623Y0269934D01*
X0028807Y0269992D01*
X0028993Y0270046D01*
X0029180Y0270095D01*
X0029368Y0270140D01*
X0029557Y0270180D01*
X0029747Y0270215D01*
X0029938Y0270246D01*
X0030129Y0270272D01*
X0030321Y0270293D01*
X0030514Y0270310D01*
X0030707Y0270322D01*
X0030900Y0270329D01*
X0031093Y0270331D01*
X0031286Y0270329D01*
X0031479Y0270322D01*
X0031672Y0270310D01*
X0031865Y0270293D01*
X0032057Y0270272D01*
X0032248Y0270246D01*
X0032439Y0270215D01*
X0032629Y0270180D01*
X0032818Y0270140D01*
X0033006Y0270095D01*
X0033193Y0270046D01*
X0033379Y0269992D01*
X0033563Y0269934D01*
X0033746Y0269871D01*
X0033927Y0269803D01*
X0034106Y0269732D01*
X0034284Y0269655D01*
X0034460Y0269575D01*
X0034633Y0269490D01*
X0034805Y0269401D01*
X0034974Y0269308D01*
X0035141Y0269211D01*
X0035306Y0269109D01*
X0035468Y0269004D01*
X0035627Y0268895D01*
X0035784Y0268781D01*
X0035937Y0268664D01*
X0036088Y0268544D01*
X0036236Y0268419D01*
X0036381Y0268291D01*
X0036522Y0268160D01*
X0036661Y0268025D01*
X0036796Y0267886D01*
X0036927Y0267745D01*
X0037055Y0267600D01*
X0037180Y0267452D01*
X0037300Y0267301D01*
X0037417Y0267148D01*
X0037531Y0266991D01*
X0037640Y0266832D01*
X0037745Y0266670D01*
X0037847Y0266505D01*
X0037944Y0266338D01*
X0038037Y0266169D01*
X0038126Y0265997D01*
X0038211Y0265824D01*
X0038291Y0265648D01*
X0038368Y0265470D01*
X0038439Y0265291D01*
X0038507Y0265110D01*
X0038570Y0264927D01*
X0038628Y0264743D01*
X0038682Y0264557D01*
X0038731Y0264370D01*
X0038776Y0264182D01*
X0038816Y0263993D01*
X0038851Y0263803D01*
X0038882Y0263612D01*
X0038908Y0263421D01*
X0038929Y0263229D01*
X0038946Y0263036D01*
X0038958Y0262843D01*
X0038965Y0262650D01*
X0038967Y0262457D01*
X0038965Y0262264D01*
X0038958Y0262071D01*
X0038946Y0261878D01*
X0038929Y0261685D01*
X0038908Y0261493D01*
X0038882Y0261302D01*
X0038851Y0261111D01*
X0038816Y0260921D01*
X0038776Y0260732D01*
X0038731Y0260544D01*
X0038682Y0260357D01*
X0038628Y0260171D01*
X0038570Y0259987D01*
X0038507Y0259804D01*
X0038439Y0259623D01*
X0038368Y0259444D01*
X0038291Y0259266D01*
X0038211Y0259090D01*
X0038126Y0258917D01*
X0038037Y0258745D01*
X0037944Y0258576D01*
X0037847Y0258409D01*
X0037745Y0258244D01*
X0037640Y0258082D01*
X0037531Y0257923D01*
X0037417Y0257766D01*
X0037300Y0257613D01*
X0037180Y0257462D01*
X0037055Y0257314D01*
X0036927Y0257169D01*
X0036796Y0257028D01*
X0036661Y0256889D01*
X0036522Y0256754D01*
X0036381Y0256623D01*
X0036236Y0256495D01*
X0036088Y0256370D01*
X0035937Y0256250D01*
X0035784Y0256133D01*
X0035627Y0256019D01*
X0035468Y0255910D01*
X0035306Y0255805D01*
X0035141Y0255703D01*
X0034974Y0255606D01*
X0034805Y0255513D01*
X0034633Y0255424D01*
X0034460Y0255339D01*
X0034284Y0255259D01*
X0034106Y0255182D01*
X0033927Y0255111D01*
X0033746Y0255043D01*
X0033563Y0254980D01*
X0033379Y0254922D01*
X0033193Y0254868D01*
X0033006Y0254819D01*
X0032818Y0254774D01*
X0032629Y0254734D01*
X0032439Y0254699D01*
X0032248Y0254668D01*
X0032057Y0254642D01*
X0031865Y0254621D01*
X0031672Y0254604D01*
X0031479Y0254592D01*
X0031286Y0254585D01*
X0031093Y0254583D01*
X0030900Y0254585D01*
X0030707Y0254592D01*
X0030514Y0254604D01*
X0030321Y0254621D01*
X0030129Y0254642D01*
X0029938Y0254668D01*
X0029747Y0254699D01*
X0029557Y0254734D01*
X0029368Y0254774D01*
X0029180Y0254819D01*
X0028993Y0254868D01*
X0028807Y0254922D01*
X0028623Y0254980D01*
X0028440Y0255043D01*
X0028259Y0255111D01*
X0028080Y0255182D01*
X0027902Y0255259D01*
X0027726Y0255339D01*
X0027553Y0255424D01*
X0027381Y0255513D01*
X0027212Y0255606D01*
X0027045Y0255703D01*
X0026880Y0255805D01*
X0026718Y0255910D01*
X0026559Y0256019D01*
X0026402Y0256133D01*
X0026249Y0256250D01*
X0026098Y0256370D01*
X0025950Y0256495D01*
X0025805Y0256623D01*
X0025664Y0256754D01*
X0025525Y0256889D01*
X0025390Y0257028D01*
X0025259Y0257169D01*
X0025131Y0257314D01*
X0025006Y0257462D01*
X0024886Y0257613D01*
X0024769Y0257766D01*
X0024655Y0257923D01*
X0024546Y0258082D01*
X0024441Y0258244D01*
X0024339Y0258409D01*
X0024242Y0258576D01*
X0024149Y0258745D01*
X0024060Y0258917D01*
X0023975Y0259090D01*
X0023895Y0259266D01*
X0023818Y0259444D01*
X0023747Y0259623D01*
X0023679Y0259804D01*
X0023616Y0259987D01*
X0023558Y0260171D01*
X0023504Y0260357D01*
X0023455Y0260544D01*
X0023410Y0260732D01*
X0023370Y0260921D01*
X0023335Y0261111D01*
X0023304Y0261302D01*
X0023278Y0261493D01*
X0023257Y0261685D01*
X0023240Y0261878D01*
X0023228Y0262071D01*
X0023221Y0262264D01*
X0023219Y0262457D01*
X0123572Y0392614D02*
X0123574Y0392767D01*
X0123580Y0392921D01*
X0123590Y0393074D01*
X0123604Y0393226D01*
X0123622Y0393379D01*
X0123644Y0393530D01*
X0123669Y0393681D01*
X0123699Y0393832D01*
X0123733Y0393982D01*
X0123770Y0394130D01*
X0123811Y0394278D01*
X0123856Y0394424D01*
X0123905Y0394570D01*
X0123958Y0394714D01*
X0124014Y0394856D01*
X0124074Y0394997D01*
X0124138Y0395137D01*
X0124205Y0395275D01*
X0124276Y0395411D01*
X0124351Y0395545D01*
X0124428Y0395677D01*
X0124510Y0395807D01*
X0124594Y0395935D01*
X0124682Y0396061D01*
X0124773Y0396184D01*
X0124867Y0396305D01*
X0124965Y0396423D01*
X0125065Y0396539D01*
X0125169Y0396652D01*
X0125275Y0396763D01*
X0125384Y0396871D01*
X0125496Y0396976D01*
X0125610Y0397077D01*
X0125728Y0397176D01*
X0125847Y0397272D01*
X0125969Y0397365D01*
X0126094Y0397454D01*
X0126221Y0397541D01*
X0126350Y0397623D01*
X0126481Y0397703D01*
X0126614Y0397779D01*
X0126749Y0397852D01*
X0126886Y0397921D01*
X0127025Y0397986D01*
X0127165Y0398048D01*
X0127307Y0398106D01*
X0127450Y0398161D01*
X0127595Y0398212D01*
X0127741Y0398259D01*
X0127888Y0398302D01*
X0128036Y0398341D01*
X0128185Y0398377D01*
X0128335Y0398408D01*
X0128486Y0398436D01*
X0128637Y0398460D01*
X0128790Y0398480D01*
X0128942Y0398496D01*
X0129095Y0398508D01*
X0129248Y0398516D01*
X0129401Y0398520D01*
X0129555Y0398520D01*
X0129708Y0398516D01*
X0129861Y0398508D01*
X0130014Y0398496D01*
X0130166Y0398480D01*
X0130319Y0398460D01*
X0130470Y0398436D01*
X0130621Y0398408D01*
X0130771Y0398377D01*
X0130920Y0398341D01*
X0131068Y0398302D01*
X0131215Y0398259D01*
X0131361Y0398212D01*
X0131506Y0398161D01*
X0131649Y0398106D01*
X0131791Y0398048D01*
X0131931Y0397986D01*
X0132070Y0397921D01*
X0132207Y0397852D01*
X0132342Y0397779D01*
X0132475Y0397703D01*
X0132606Y0397623D01*
X0132735Y0397541D01*
X0132862Y0397454D01*
X0132987Y0397365D01*
X0133109Y0397272D01*
X0133228Y0397176D01*
X0133346Y0397077D01*
X0133460Y0396976D01*
X0133572Y0396871D01*
X0133681Y0396763D01*
X0133787Y0396652D01*
X0133891Y0396539D01*
X0133991Y0396423D01*
X0134089Y0396305D01*
X0134183Y0396184D01*
X0134274Y0396061D01*
X0134362Y0395935D01*
X0134446Y0395807D01*
X0134528Y0395677D01*
X0134605Y0395545D01*
X0134680Y0395411D01*
X0134751Y0395275D01*
X0134818Y0395137D01*
X0134882Y0394997D01*
X0134942Y0394856D01*
X0134998Y0394714D01*
X0135051Y0394570D01*
X0135100Y0394424D01*
X0135145Y0394278D01*
X0135186Y0394130D01*
X0135223Y0393982D01*
X0135257Y0393832D01*
X0135287Y0393681D01*
X0135312Y0393530D01*
X0135334Y0393379D01*
X0135352Y0393226D01*
X0135366Y0393074D01*
X0135376Y0392921D01*
X0135382Y0392767D01*
X0135384Y0392614D01*
X0135382Y0392461D01*
X0135376Y0392307D01*
X0135366Y0392154D01*
X0135352Y0392002D01*
X0135334Y0391849D01*
X0135312Y0391698D01*
X0135287Y0391547D01*
X0135257Y0391396D01*
X0135223Y0391246D01*
X0135186Y0391098D01*
X0135145Y0390950D01*
X0135100Y0390804D01*
X0135051Y0390658D01*
X0134998Y0390514D01*
X0134942Y0390372D01*
X0134882Y0390231D01*
X0134818Y0390091D01*
X0134751Y0389953D01*
X0134680Y0389817D01*
X0134605Y0389683D01*
X0134528Y0389551D01*
X0134446Y0389421D01*
X0134362Y0389293D01*
X0134274Y0389167D01*
X0134183Y0389044D01*
X0134089Y0388923D01*
X0133991Y0388805D01*
X0133891Y0388689D01*
X0133787Y0388576D01*
X0133681Y0388465D01*
X0133572Y0388357D01*
X0133460Y0388252D01*
X0133346Y0388151D01*
X0133228Y0388052D01*
X0133109Y0387956D01*
X0132987Y0387863D01*
X0132862Y0387774D01*
X0132735Y0387687D01*
X0132606Y0387605D01*
X0132475Y0387525D01*
X0132342Y0387449D01*
X0132207Y0387376D01*
X0132070Y0387307D01*
X0131931Y0387242D01*
X0131791Y0387180D01*
X0131649Y0387122D01*
X0131506Y0387067D01*
X0131361Y0387016D01*
X0131215Y0386969D01*
X0131068Y0386926D01*
X0130920Y0386887D01*
X0130771Y0386851D01*
X0130621Y0386820D01*
X0130470Y0386792D01*
X0130319Y0386768D01*
X0130166Y0386748D01*
X0130014Y0386732D01*
X0129861Y0386720D01*
X0129708Y0386712D01*
X0129555Y0386708D01*
X0129401Y0386708D01*
X0129248Y0386712D01*
X0129095Y0386720D01*
X0128942Y0386732D01*
X0128790Y0386748D01*
X0128637Y0386768D01*
X0128486Y0386792D01*
X0128335Y0386820D01*
X0128185Y0386851D01*
X0128036Y0386887D01*
X0127888Y0386926D01*
X0127741Y0386969D01*
X0127595Y0387016D01*
X0127450Y0387067D01*
X0127307Y0387122D01*
X0127165Y0387180D01*
X0127025Y0387242D01*
X0126886Y0387307D01*
X0126749Y0387376D01*
X0126614Y0387449D01*
X0126481Y0387525D01*
X0126350Y0387605D01*
X0126221Y0387687D01*
X0126094Y0387774D01*
X0125969Y0387863D01*
X0125847Y0387956D01*
X0125728Y0388052D01*
X0125610Y0388151D01*
X0125496Y0388252D01*
X0125384Y0388357D01*
X0125275Y0388465D01*
X0125169Y0388576D01*
X0125065Y0388689D01*
X0124965Y0388805D01*
X0124867Y0388923D01*
X0124773Y0389044D01*
X0124682Y0389167D01*
X0124594Y0389293D01*
X0124510Y0389421D01*
X0124428Y0389551D01*
X0124351Y0389683D01*
X0124276Y0389817D01*
X0124205Y0389953D01*
X0124138Y0390091D01*
X0124074Y0390231D01*
X0124014Y0390372D01*
X0123958Y0390514D01*
X0123905Y0390658D01*
X0123856Y0390804D01*
X0123811Y0390950D01*
X0123770Y0391098D01*
X0123733Y0391246D01*
X0123699Y0391396D01*
X0123669Y0391547D01*
X0123644Y0391698D01*
X0123622Y0391849D01*
X0123604Y0392002D01*
X0123590Y0392154D01*
X0123580Y0392307D01*
X0123574Y0392461D01*
X0123572Y0392614D01*
X0184596Y0330331D02*
X0184598Y0330484D01*
X0184604Y0330638D01*
X0184614Y0330791D01*
X0184628Y0330943D01*
X0184646Y0331096D01*
X0184668Y0331247D01*
X0184693Y0331398D01*
X0184723Y0331549D01*
X0184757Y0331699D01*
X0184794Y0331847D01*
X0184835Y0331995D01*
X0184880Y0332141D01*
X0184929Y0332287D01*
X0184982Y0332431D01*
X0185038Y0332573D01*
X0185098Y0332714D01*
X0185162Y0332854D01*
X0185229Y0332992D01*
X0185300Y0333128D01*
X0185375Y0333262D01*
X0185452Y0333394D01*
X0185534Y0333524D01*
X0185618Y0333652D01*
X0185706Y0333778D01*
X0185797Y0333901D01*
X0185891Y0334022D01*
X0185989Y0334140D01*
X0186089Y0334256D01*
X0186193Y0334369D01*
X0186299Y0334480D01*
X0186408Y0334588D01*
X0186520Y0334693D01*
X0186634Y0334794D01*
X0186752Y0334893D01*
X0186871Y0334989D01*
X0186993Y0335082D01*
X0187118Y0335171D01*
X0187245Y0335258D01*
X0187374Y0335340D01*
X0187505Y0335420D01*
X0187638Y0335496D01*
X0187773Y0335569D01*
X0187910Y0335638D01*
X0188049Y0335703D01*
X0188189Y0335765D01*
X0188331Y0335823D01*
X0188474Y0335878D01*
X0188619Y0335929D01*
X0188765Y0335976D01*
X0188912Y0336019D01*
X0189060Y0336058D01*
X0189209Y0336094D01*
X0189359Y0336125D01*
X0189510Y0336153D01*
X0189661Y0336177D01*
X0189814Y0336197D01*
X0189966Y0336213D01*
X0190119Y0336225D01*
X0190272Y0336233D01*
X0190425Y0336237D01*
X0190579Y0336237D01*
X0190732Y0336233D01*
X0190885Y0336225D01*
X0191038Y0336213D01*
X0191190Y0336197D01*
X0191343Y0336177D01*
X0191494Y0336153D01*
X0191645Y0336125D01*
X0191795Y0336094D01*
X0191944Y0336058D01*
X0192092Y0336019D01*
X0192239Y0335976D01*
X0192385Y0335929D01*
X0192530Y0335878D01*
X0192673Y0335823D01*
X0192815Y0335765D01*
X0192955Y0335703D01*
X0193094Y0335638D01*
X0193231Y0335569D01*
X0193366Y0335496D01*
X0193499Y0335420D01*
X0193630Y0335340D01*
X0193759Y0335258D01*
X0193886Y0335171D01*
X0194011Y0335082D01*
X0194133Y0334989D01*
X0194252Y0334893D01*
X0194370Y0334794D01*
X0194484Y0334693D01*
X0194596Y0334588D01*
X0194705Y0334480D01*
X0194811Y0334369D01*
X0194915Y0334256D01*
X0195015Y0334140D01*
X0195113Y0334022D01*
X0195207Y0333901D01*
X0195298Y0333778D01*
X0195386Y0333652D01*
X0195470Y0333524D01*
X0195552Y0333394D01*
X0195629Y0333262D01*
X0195704Y0333128D01*
X0195775Y0332992D01*
X0195842Y0332854D01*
X0195906Y0332714D01*
X0195966Y0332573D01*
X0196022Y0332431D01*
X0196075Y0332287D01*
X0196124Y0332141D01*
X0196169Y0331995D01*
X0196210Y0331847D01*
X0196247Y0331699D01*
X0196281Y0331549D01*
X0196311Y0331398D01*
X0196336Y0331247D01*
X0196358Y0331096D01*
X0196376Y0330943D01*
X0196390Y0330791D01*
X0196400Y0330638D01*
X0196406Y0330484D01*
X0196408Y0330331D01*
X0196406Y0330178D01*
X0196400Y0330024D01*
X0196390Y0329871D01*
X0196376Y0329719D01*
X0196358Y0329566D01*
X0196336Y0329415D01*
X0196311Y0329264D01*
X0196281Y0329113D01*
X0196247Y0328963D01*
X0196210Y0328815D01*
X0196169Y0328667D01*
X0196124Y0328521D01*
X0196075Y0328375D01*
X0196022Y0328231D01*
X0195966Y0328089D01*
X0195906Y0327948D01*
X0195842Y0327808D01*
X0195775Y0327670D01*
X0195704Y0327534D01*
X0195629Y0327400D01*
X0195552Y0327268D01*
X0195470Y0327138D01*
X0195386Y0327010D01*
X0195298Y0326884D01*
X0195207Y0326761D01*
X0195113Y0326640D01*
X0195015Y0326522D01*
X0194915Y0326406D01*
X0194811Y0326293D01*
X0194705Y0326182D01*
X0194596Y0326074D01*
X0194484Y0325969D01*
X0194370Y0325868D01*
X0194252Y0325769D01*
X0194133Y0325673D01*
X0194011Y0325580D01*
X0193886Y0325491D01*
X0193759Y0325404D01*
X0193630Y0325322D01*
X0193499Y0325242D01*
X0193366Y0325166D01*
X0193231Y0325093D01*
X0193094Y0325024D01*
X0192955Y0324959D01*
X0192815Y0324897D01*
X0192673Y0324839D01*
X0192530Y0324784D01*
X0192385Y0324733D01*
X0192239Y0324686D01*
X0192092Y0324643D01*
X0191944Y0324604D01*
X0191795Y0324568D01*
X0191645Y0324537D01*
X0191494Y0324509D01*
X0191343Y0324485D01*
X0191190Y0324465D01*
X0191038Y0324449D01*
X0190885Y0324437D01*
X0190732Y0324429D01*
X0190579Y0324425D01*
X0190425Y0324425D01*
X0190272Y0324429D01*
X0190119Y0324437D01*
X0189966Y0324449D01*
X0189814Y0324465D01*
X0189661Y0324485D01*
X0189510Y0324509D01*
X0189359Y0324537D01*
X0189209Y0324568D01*
X0189060Y0324604D01*
X0188912Y0324643D01*
X0188765Y0324686D01*
X0188619Y0324733D01*
X0188474Y0324784D01*
X0188331Y0324839D01*
X0188189Y0324897D01*
X0188049Y0324959D01*
X0187910Y0325024D01*
X0187773Y0325093D01*
X0187638Y0325166D01*
X0187505Y0325242D01*
X0187374Y0325322D01*
X0187245Y0325404D01*
X0187118Y0325491D01*
X0186993Y0325580D01*
X0186871Y0325673D01*
X0186752Y0325769D01*
X0186634Y0325868D01*
X0186520Y0325969D01*
X0186408Y0326074D01*
X0186299Y0326182D01*
X0186193Y0326293D01*
X0186089Y0326406D01*
X0185989Y0326522D01*
X0185891Y0326640D01*
X0185797Y0326761D01*
X0185706Y0326884D01*
X0185618Y0327010D01*
X0185534Y0327138D01*
X0185452Y0327268D01*
X0185375Y0327400D01*
X0185300Y0327534D01*
X0185229Y0327670D01*
X0185162Y0327808D01*
X0185098Y0327948D01*
X0185038Y0328089D01*
X0184982Y0328231D01*
X0184929Y0328375D01*
X0184880Y0328521D01*
X0184835Y0328667D01*
X0184794Y0328815D01*
X0184757Y0328963D01*
X0184723Y0329113D01*
X0184693Y0329264D01*
X0184668Y0329415D01*
X0184646Y0329566D01*
X0184628Y0329719D01*
X0184614Y0329871D01*
X0184604Y0330024D01*
X0184598Y0330178D01*
X0184596Y0330331D01*
X0153140Y0284701D02*
X0153142Y0284894D01*
X0153149Y0285087D01*
X0153161Y0285280D01*
X0153178Y0285473D01*
X0153199Y0285665D01*
X0153225Y0285856D01*
X0153256Y0286047D01*
X0153291Y0286237D01*
X0153331Y0286426D01*
X0153376Y0286614D01*
X0153425Y0286801D01*
X0153479Y0286987D01*
X0153537Y0287171D01*
X0153600Y0287354D01*
X0153668Y0287535D01*
X0153739Y0287714D01*
X0153816Y0287892D01*
X0153896Y0288068D01*
X0153981Y0288241D01*
X0154070Y0288413D01*
X0154163Y0288582D01*
X0154260Y0288749D01*
X0154362Y0288914D01*
X0154467Y0289076D01*
X0154576Y0289235D01*
X0154690Y0289392D01*
X0154807Y0289545D01*
X0154927Y0289696D01*
X0155052Y0289844D01*
X0155180Y0289989D01*
X0155311Y0290130D01*
X0155446Y0290269D01*
X0155585Y0290404D01*
X0155726Y0290535D01*
X0155871Y0290663D01*
X0156019Y0290788D01*
X0156170Y0290908D01*
X0156323Y0291025D01*
X0156480Y0291139D01*
X0156639Y0291248D01*
X0156801Y0291353D01*
X0156966Y0291455D01*
X0157133Y0291552D01*
X0157302Y0291645D01*
X0157474Y0291734D01*
X0157647Y0291819D01*
X0157823Y0291899D01*
X0158001Y0291976D01*
X0158180Y0292047D01*
X0158361Y0292115D01*
X0158544Y0292178D01*
X0158728Y0292236D01*
X0158914Y0292290D01*
X0159101Y0292339D01*
X0159289Y0292384D01*
X0159478Y0292424D01*
X0159668Y0292459D01*
X0159859Y0292490D01*
X0160050Y0292516D01*
X0160242Y0292537D01*
X0160435Y0292554D01*
X0160628Y0292566D01*
X0160821Y0292573D01*
X0161014Y0292575D01*
X0161207Y0292573D01*
X0161400Y0292566D01*
X0161593Y0292554D01*
X0161786Y0292537D01*
X0161978Y0292516D01*
X0162169Y0292490D01*
X0162360Y0292459D01*
X0162550Y0292424D01*
X0162739Y0292384D01*
X0162927Y0292339D01*
X0163114Y0292290D01*
X0163300Y0292236D01*
X0163484Y0292178D01*
X0163667Y0292115D01*
X0163848Y0292047D01*
X0164027Y0291976D01*
X0164205Y0291899D01*
X0164381Y0291819D01*
X0164554Y0291734D01*
X0164726Y0291645D01*
X0164895Y0291552D01*
X0165062Y0291455D01*
X0165227Y0291353D01*
X0165389Y0291248D01*
X0165548Y0291139D01*
X0165705Y0291025D01*
X0165858Y0290908D01*
X0166009Y0290788D01*
X0166157Y0290663D01*
X0166302Y0290535D01*
X0166443Y0290404D01*
X0166582Y0290269D01*
X0166717Y0290130D01*
X0166848Y0289989D01*
X0166976Y0289844D01*
X0167101Y0289696D01*
X0167221Y0289545D01*
X0167338Y0289392D01*
X0167452Y0289235D01*
X0167561Y0289076D01*
X0167666Y0288914D01*
X0167768Y0288749D01*
X0167865Y0288582D01*
X0167958Y0288413D01*
X0168047Y0288241D01*
X0168132Y0288068D01*
X0168212Y0287892D01*
X0168289Y0287714D01*
X0168360Y0287535D01*
X0168428Y0287354D01*
X0168491Y0287171D01*
X0168549Y0286987D01*
X0168603Y0286801D01*
X0168652Y0286614D01*
X0168697Y0286426D01*
X0168737Y0286237D01*
X0168772Y0286047D01*
X0168803Y0285856D01*
X0168829Y0285665D01*
X0168850Y0285473D01*
X0168867Y0285280D01*
X0168879Y0285087D01*
X0168886Y0284894D01*
X0168888Y0284701D01*
X0168886Y0284508D01*
X0168879Y0284315D01*
X0168867Y0284122D01*
X0168850Y0283929D01*
X0168829Y0283737D01*
X0168803Y0283546D01*
X0168772Y0283355D01*
X0168737Y0283165D01*
X0168697Y0282976D01*
X0168652Y0282788D01*
X0168603Y0282601D01*
X0168549Y0282415D01*
X0168491Y0282231D01*
X0168428Y0282048D01*
X0168360Y0281867D01*
X0168289Y0281688D01*
X0168212Y0281510D01*
X0168132Y0281334D01*
X0168047Y0281161D01*
X0167958Y0280989D01*
X0167865Y0280820D01*
X0167768Y0280653D01*
X0167666Y0280488D01*
X0167561Y0280326D01*
X0167452Y0280167D01*
X0167338Y0280010D01*
X0167221Y0279857D01*
X0167101Y0279706D01*
X0166976Y0279558D01*
X0166848Y0279413D01*
X0166717Y0279272D01*
X0166582Y0279133D01*
X0166443Y0278998D01*
X0166302Y0278867D01*
X0166157Y0278739D01*
X0166009Y0278614D01*
X0165858Y0278494D01*
X0165705Y0278377D01*
X0165548Y0278263D01*
X0165389Y0278154D01*
X0165227Y0278049D01*
X0165062Y0277947D01*
X0164895Y0277850D01*
X0164726Y0277757D01*
X0164554Y0277668D01*
X0164381Y0277583D01*
X0164205Y0277503D01*
X0164027Y0277426D01*
X0163848Y0277355D01*
X0163667Y0277287D01*
X0163484Y0277224D01*
X0163300Y0277166D01*
X0163114Y0277112D01*
X0162927Y0277063D01*
X0162739Y0277018D01*
X0162550Y0276978D01*
X0162360Y0276943D01*
X0162169Y0276912D01*
X0161978Y0276886D01*
X0161786Y0276865D01*
X0161593Y0276848D01*
X0161400Y0276836D01*
X0161207Y0276829D01*
X0161014Y0276827D01*
X0160821Y0276829D01*
X0160628Y0276836D01*
X0160435Y0276848D01*
X0160242Y0276865D01*
X0160050Y0276886D01*
X0159859Y0276912D01*
X0159668Y0276943D01*
X0159478Y0276978D01*
X0159289Y0277018D01*
X0159101Y0277063D01*
X0158914Y0277112D01*
X0158728Y0277166D01*
X0158544Y0277224D01*
X0158361Y0277287D01*
X0158180Y0277355D01*
X0158001Y0277426D01*
X0157823Y0277503D01*
X0157647Y0277583D01*
X0157474Y0277668D01*
X0157302Y0277757D01*
X0157133Y0277850D01*
X0156966Y0277947D01*
X0156801Y0278049D01*
X0156639Y0278154D01*
X0156480Y0278263D01*
X0156323Y0278377D01*
X0156170Y0278494D01*
X0156019Y0278614D01*
X0155871Y0278739D01*
X0155726Y0278867D01*
X0155585Y0278998D01*
X0155446Y0279133D01*
X0155311Y0279272D01*
X0155180Y0279413D01*
X0155052Y0279558D01*
X0154927Y0279706D01*
X0154807Y0279857D01*
X0154690Y0280010D01*
X0154576Y0280167D01*
X0154467Y0280326D01*
X0154362Y0280488D01*
X0154260Y0280653D01*
X0154163Y0280820D01*
X0154070Y0280989D01*
X0153981Y0281161D01*
X0153896Y0281334D01*
X0153816Y0281510D01*
X0153739Y0281688D01*
X0153668Y0281867D01*
X0153600Y0282048D01*
X0153537Y0282231D01*
X0153479Y0282415D01*
X0153425Y0282601D01*
X0153376Y0282788D01*
X0153331Y0282976D01*
X0153291Y0283165D01*
X0153256Y0283355D01*
X0153225Y0283546D01*
X0153199Y0283737D01*
X0153178Y0283929D01*
X0153161Y0284122D01*
X0153149Y0284315D01*
X0153142Y0284508D01*
X0153140Y0284701D01*
X0206998Y0224268D02*
X0207000Y0224352D01*
X0207006Y0224435D01*
X0207016Y0224518D01*
X0207030Y0224601D01*
X0207047Y0224683D01*
X0207069Y0224764D01*
X0207094Y0224843D01*
X0207123Y0224922D01*
X0207156Y0224999D01*
X0207192Y0225074D01*
X0207232Y0225148D01*
X0207275Y0225220D01*
X0207322Y0225289D01*
X0207372Y0225356D01*
X0207425Y0225421D01*
X0207481Y0225483D01*
X0207539Y0225543D01*
X0207601Y0225600D01*
X0207665Y0225653D01*
X0207732Y0225704D01*
X0207801Y0225751D01*
X0207872Y0225796D01*
X0207945Y0225836D01*
X0208020Y0225873D01*
X0208097Y0225907D01*
X0208175Y0225937D01*
X0208254Y0225963D01*
X0208335Y0225986D01*
X0208417Y0226004D01*
X0208499Y0226019D01*
X0208582Y0226030D01*
X0208665Y0226037D01*
X0208749Y0226040D01*
X0208833Y0226039D01*
X0208916Y0226034D01*
X0209000Y0226025D01*
X0209082Y0226012D01*
X0209164Y0225996D01*
X0209245Y0225975D01*
X0209326Y0225951D01*
X0209404Y0225923D01*
X0209482Y0225891D01*
X0209558Y0225855D01*
X0209632Y0225816D01*
X0209704Y0225774D01*
X0209774Y0225728D01*
X0209842Y0225679D01*
X0209907Y0225627D01*
X0209970Y0225572D01*
X0210030Y0225514D01*
X0210088Y0225453D01*
X0210142Y0225389D01*
X0210194Y0225323D01*
X0210242Y0225255D01*
X0210287Y0225184D01*
X0210328Y0225111D01*
X0210367Y0225037D01*
X0210401Y0224961D01*
X0210432Y0224883D01*
X0210459Y0224804D01*
X0210483Y0224723D01*
X0210502Y0224642D01*
X0210518Y0224560D01*
X0210530Y0224477D01*
X0210538Y0224393D01*
X0210542Y0224310D01*
X0210542Y0224226D01*
X0210538Y0224143D01*
X0210530Y0224059D01*
X0210518Y0223976D01*
X0210502Y0223894D01*
X0210483Y0223813D01*
X0210459Y0223732D01*
X0210432Y0223653D01*
X0210401Y0223575D01*
X0210367Y0223499D01*
X0210328Y0223425D01*
X0210287Y0223352D01*
X0210242Y0223281D01*
X0210194Y0223213D01*
X0210142Y0223147D01*
X0210088Y0223083D01*
X0210030Y0223022D01*
X0209970Y0222964D01*
X0209907Y0222909D01*
X0209842Y0222857D01*
X0209774Y0222808D01*
X0209704Y0222762D01*
X0209632Y0222720D01*
X0209558Y0222681D01*
X0209482Y0222645D01*
X0209404Y0222613D01*
X0209326Y0222585D01*
X0209245Y0222561D01*
X0209164Y0222540D01*
X0209082Y0222524D01*
X0209000Y0222511D01*
X0208916Y0222502D01*
X0208833Y0222497D01*
X0208749Y0222496D01*
X0208665Y0222499D01*
X0208582Y0222506D01*
X0208499Y0222517D01*
X0208417Y0222532D01*
X0208335Y0222550D01*
X0208254Y0222573D01*
X0208175Y0222599D01*
X0208097Y0222629D01*
X0208020Y0222663D01*
X0207945Y0222700D01*
X0207872Y0222740D01*
X0207801Y0222785D01*
X0207732Y0222832D01*
X0207665Y0222883D01*
X0207601Y0222936D01*
X0207539Y0222993D01*
X0207481Y0223053D01*
X0207425Y0223115D01*
X0207372Y0223180D01*
X0207322Y0223247D01*
X0207275Y0223316D01*
X0207232Y0223388D01*
X0207192Y0223462D01*
X0207156Y0223537D01*
X0207123Y0223614D01*
X0207094Y0223693D01*
X0207069Y0223772D01*
X0207047Y0223853D01*
X0207030Y0223935D01*
X0207016Y0224018D01*
X0207006Y0224101D01*
X0207000Y0224184D01*
X0206998Y0224268D01*
X0258297Y0242772D02*
X0258299Y0242856D01*
X0258305Y0242939D01*
X0258315Y0243022D01*
X0258329Y0243105D01*
X0258346Y0243187D01*
X0258368Y0243268D01*
X0258393Y0243347D01*
X0258422Y0243426D01*
X0258455Y0243503D01*
X0258491Y0243578D01*
X0258531Y0243652D01*
X0258574Y0243724D01*
X0258621Y0243793D01*
X0258671Y0243860D01*
X0258724Y0243925D01*
X0258780Y0243987D01*
X0258838Y0244047D01*
X0258900Y0244104D01*
X0258964Y0244157D01*
X0259031Y0244208D01*
X0259100Y0244255D01*
X0259171Y0244300D01*
X0259244Y0244340D01*
X0259319Y0244377D01*
X0259396Y0244411D01*
X0259474Y0244441D01*
X0259553Y0244467D01*
X0259634Y0244490D01*
X0259716Y0244508D01*
X0259798Y0244523D01*
X0259881Y0244534D01*
X0259964Y0244541D01*
X0260048Y0244544D01*
X0260132Y0244543D01*
X0260215Y0244538D01*
X0260299Y0244529D01*
X0260381Y0244516D01*
X0260463Y0244500D01*
X0260544Y0244479D01*
X0260625Y0244455D01*
X0260703Y0244427D01*
X0260781Y0244395D01*
X0260857Y0244359D01*
X0260931Y0244320D01*
X0261003Y0244278D01*
X0261073Y0244232D01*
X0261141Y0244183D01*
X0261206Y0244131D01*
X0261269Y0244076D01*
X0261329Y0244018D01*
X0261387Y0243957D01*
X0261441Y0243893D01*
X0261493Y0243827D01*
X0261541Y0243759D01*
X0261586Y0243688D01*
X0261627Y0243615D01*
X0261666Y0243541D01*
X0261700Y0243465D01*
X0261731Y0243387D01*
X0261758Y0243308D01*
X0261782Y0243227D01*
X0261801Y0243146D01*
X0261817Y0243064D01*
X0261829Y0242981D01*
X0261837Y0242897D01*
X0261841Y0242814D01*
X0261841Y0242730D01*
X0261837Y0242647D01*
X0261829Y0242563D01*
X0261817Y0242480D01*
X0261801Y0242398D01*
X0261782Y0242317D01*
X0261758Y0242236D01*
X0261731Y0242157D01*
X0261700Y0242079D01*
X0261666Y0242003D01*
X0261627Y0241929D01*
X0261586Y0241856D01*
X0261541Y0241785D01*
X0261493Y0241717D01*
X0261441Y0241651D01*
X0261387Y0241587D01*
X0261329Y0241526D01*
X0261269Y0241468D01*
X0261206Y0241413D01*
X0261141Y0241361D01*
X0261073Y0241312D01*
X0261003Y0241266D01*
X0260931Y0241224D01*
X0260857Y0241185D01*
X0260781Y0241149D01*
X0260703Y0241117D01*
X0260625Y0241089D01*
X0260544Y0241065D01*
X0260463Y0241044D01*
X0260381Y0241028D01*
X0260299Y0241015D01*
X0260215Y0241006D01*
X0260132Y0241001D01*
X0260048Y0241000D01*
X0259964Y0241003D01*
X0259881Y0241010D01*
X0259798Y0241021D01*
X0259716Y0241036D01*
X0259634Y0241054D01*
X0259553Y0241077D01*
X0259474Y0241103D01*
X0259396Y0241133D01*
X0259319Y0241167D01*
X0259244Y0241204D01*
X0259171Y0241244D01*
X0259100Y0241289D01*
X0259031Y0241336D01*
X0258964Y0241387D01*
X0258900Y0241440D01*
X0258838Y0241497D01*
X0258780Y0241557D01*
X0258724Y0241619D01*
X0258671Y0241684D01*
X0258621Y0241751D01*
X0258574Y0241820D01*
X0258531Y0241892D01*
X0258491Y0241966D01*
X0258455Y0242041D01*
X0258422Y0242118D01*
X0258393Y0242197D01*
X0258368Y0242276D01*
X0258346Y0242357D01*
X0258329Y0242439D01*
X0258315Y0242522D01*
X0258305Y0242605D01*
X0258299Y0242688D01*
X0258297Y0242772D01*
X0283022Y0262732D02*
X0283024Y0262925D01*
X0283031Y0263118D01*
X0283043Y0263311D01*
X0283060Y0263504D01*
X0283081Y0263696D01*
X0283107Y0263887D01*
X0283138Y0264078D01*
X0283173Y0264268D01*
X0283213Y0264457D01*
X0283258Y0264645D01*
X0283307Y0264832D01*
X0283361Y0265018D01*
X0283419Y0265202D01*
X0283482Y0265385D01*
X0283550Y0265566D01*
X0283621Y0265745D01*
X0283698Y0265923D01*
X0283778Y0266099D01*
X0283863Y0266272D01*
X0283952Y0266444D01*
X0284045Y0266613D01*
X0284142Y0266780D01*
X0284244Y0266945D01*
X0284349Y0267107D01*
X0284458Y0267266D01*
X0284572Y0267423D01*
X0284689Y0267576D01*
X0284809Y0267727D01*
X0284934Y0267875D01*
X0285062Y0268020D01*
X0285193Y0268161D01*
X0285328Y0268300D01*
X0285467Y0268435D01*
X0285608Y0268566D01*
X0285753Y0268694D01*
X0285901Y0268819D01*
X0286052Y0268939D01*
X0286205Y0269056D01*
X0286362Y0269170D01*
X0286521Y0269279D01*
X0286683Y0269384D01*
X0286848Y0269486D01*
X0287015Y0269583D01*
X0287184Y0269676D01*
X0287356Y0269765D01*
X0287529Y0269850D01*
X0287705Y0269930D01*
X0287883Y0270007D01*
X0288062Y0270078D01*
X0288243Y0270146D01*
X0288426Y0270209D01*
X0288610Y0270267D01*
X0288796Y0270321D01*
X0288983Y0270370D01*
X0289171Y0270415D01*
X0289360Y0270455D01*
X0289550Y0270490D01*
X0289741Y0270521D01*
X0289932Y0270547D01*
X0290124Y0270568D01*
X0290317Y0270585D01*
X0290510Y0270597D01*
X0290703Y0270604D01*
X0290896Y0270606D01*
X0291089Y0270604D01*
X0291282Y0270597D01*
X0291475Y0270585D01*
X0291668Y0270568D01*
X0291860Y0270547D01*
X0292051Y0270521D01*
X0292242Y0270490D01*
X0292432Y0270455D01*
X0292621Y0270415D01*
X0292809Y0270370D01*
X0292996Y0270321D01*
X0293182Y0270267D01*
X0293366Y0270209D01*
X0293549Y0270146D01*
X0293730Y0270078D01*
X0293909Y0270007D01*
X0294087Y0269930D01*
X0294263Y0269850D01*
X0294436Y0269765D01*
X0294608Y0269676D01*
X0294777Y0269583D01*
X0294944Y0269486D01*
X0295109Y0269384D01*
X0295271Y0269279D01*
X0295430Y0269170D01*
X0295587Y0269056D01*
X0295740Y0268939D01*
X0295891Y0268819D01*
X0296039Y0268694D01*
X0296184Y0268566D01*
X0296325Y0268435D01*
X0296464Y0268300D01*
X0296599Y0268161D01*
X0296730Y0268020D01*
X0296858Y0267875D01*
X0296983Y0267727D01*
X0297103Y0267576D01*
X0297220Y0267423D01*
X0297334Y0267266D01*
X0297443Y0267107D01*
X0297548Y0266945D01*
X0297650Y0266780D01*
X0297747Y0266613D01*
X0297840Y0266444D01*
X0297929Y0266272D01*
X0298014Y0266099D01*
X0298094Y0265923D01*
X0298171Y0265745D01*
X0298242Y0265566D01*
X0298310Y0265385D01*
X0298373Y0265202D01*
X0298431Y0265018D01*
X0298485Y0264832D01*
X0298534Y0264645D01*
X0298579Y0264457D01*
X0298619Y0264268D01*
X0298654Y0264078D01*
X0298685Y0263887D01*
X0298711Y0263696D01*
X0298732Y0263504D01*
X0298749Y0263311D01*
X0298761Y0263118D01*
X0298768Y0262925D01*
X0298770Y0262732D01*
X0298768Y0262539D01*
X0298761Y0262346D01*
X0298749Y0262153D01*
X0298732Y0261960D01*
X0298711Y0261768D01*
X0298685Y0261577D01*
X0298654Y0261386D01*
X0298619Y0261196D01*
X0298579Y0261007D01*
X0298534Y0260819D01*
X0298485Y0260632D01*
X0298431Y0260446D01*
X0298373Y0260262D01*
X0298310Y0260079D01*
X0298242Y0259898D01*
X0298171Y0259719D01*
X0298094Y0259541D01*
X0298014Y0259365D01*
X0297929Y0259192D01*
X0297840Y0259020D01*
X0297747Y0258851D01*
X0297650Y0258684D01*
X0297548Y0258519D01*
X0297443Y0258357D01*
X0297334Y0258198D01*
X0297220Y0258041D01*
X0297103Y0257888D01*
X0296983Y0257737D01*
X0296858Y0257589D01*
X0296730Y0257444D01*
X0296599Y0257303D01*
X0296464Y0257164D01*
X0296325Y0257029D01*
X0296184Y0256898D01*
X0296039Y0256770D01*
X0295891Y0256645D01*
X0295740Y0256525D01*
X0295587Y0256408D01*
X0295430Y0256294D01*
X0295271Y0256185D01*
X0295109Y0256080D01*
X0294944Y0255978D01*
X0294777Y0255881D01*
X0294608Y0255788D01*
X0294436Y0255699D01*
X0294263Y0255614D01*
X0294087Y0255534D01*
X0293909Y0255457D01*
X0293730Y0255386D01*
X0293549Y0255318D01*
X0293366Y0255255D01*
X0293182Y0255197D01*
X0292996Y0255143D01*
X0292809Y0255094D01*
X0292621Y0255049D01*
X0292432Y0255009D01*
X0292242Y0254974D01*
X0292051Y0254943D01*
X0291860Y0254917D01*
X0291668Y0254896D01*
X0291475Y0254879D01*
X0291282Y0254867D01*
X0291089Y0254860D01*
X0290896Y0254858D01*
X0290703Y0254860D01*
X0290510Y0254867D01*
X0290317Y0254879D01*
X0290124Y0254896D01*
X0289932Y0254917D01*
X0289741Y0254943D01*
X0289550Y0254974D01*
X0289360Y0255009D01*
X0289171Y0255049D01*
X0288983Y0255094D01*
X0288796Y0255143D01*
X0288610Y0255197D01*
X0288426Y0255255D01*
X0288243Y0255318D01*
X0288062Y0255386D01*
X0287883Y0255457D01*
X0287705Y0255534D01*
X0287529Y0255614D01*
X0287356Y0255699D01*
X0287184Y0255788D01*
X0287015Y0255881D01*
X0286848Y0255978D01*
X0286683Y0256080D01*
X0286521Y0256185D01*
X0286362Y0256294D01*
X0286205Y0256408D01*
X0286052Y0256525D01*
X0285901Y0256645D01*
X0285753Y0256770D01*
X0285608Y0256898D01*
X0285467Y0257029D01*
X0285328Y0257164D01*
X0285193Y0257303D01*
X0285062Y0257444D01*
X0284934Y0257589D01*
X0284809Y0257737D01*
X0284689Y0257888D01*
X0284572Y0258041D01*
X0284458Y0258198D01*
X0284349Y0258357D01*
X0284244Y0258519D01*
X0284142Y0258684D01*
X0284045Y0258851D01*
X0283952Y0259020D01*
X0283863Y0259192D01*
X0283778Y0259365D01*
X0283698Y0259541D01*
X0283621Y0259719D01*
X0283550Y0259898D01*
X0283482Y0260079D01*
X0283419Y0260262D01*
X0283361Y0260446D01*
X0283307Y0260632D01*
X0283258Y0260819D01*
X0283213Y0261007D01*
X0283173Y0261196D01*
X0283138Y0261386D01*
X0283107Y0261577D01*
X0283081Y0261768D01*
X0283060Y0261960D01*
X0283043Y0262153D01*
X0283031Y0262346D01*
X0283024Y0262539D01*
X0283022Y0262732D01*
X0298828Y0314819D02*
X0298830Y0314918D01*
X0298836Y0315017D01*
X0298846Y0315116D01*
X0298860Y0315214D01*
X0298878Y0315311D01*
X0298900Y0315408D01*
X0298925Y0315504D01*
X0298955Y0315598D01*
X0298988Y0315692D01*
X0299025Y0315784D01*
X0299066Y0315874D01*
X0299110Y0315963D01*
X0299158Y0316049D01*
X0299209Y0316134D01*
X0299264Y0316217D01*
X0299322Y0316297D01*
X0299383Y0316375D01*
X0299447Y0316451D01*
X0299514Y0316524D01*
X0299584Y0316594D01*
X0299657Y0316661D01*
X0299733Y0316725D01*
X0299811Y0316786D01*
X0299891Y0316844D01*
X0299974Y0316899D01*
X0300058Y0316950D01*
X0300145Y0316998D01*
X0300234Y0317042D01*
X0300324Y0317083D01*
X0300416Y0317120D01*
X0300510Y0317153D01*
X0300604Y0317183D01*
X0300700Y0317208D01*
X0300797Y0317230D01*
X0300894Y0317248D01*
X0300992Y0317262D01*
X0301091Y0317272D01*
X0301190Y0317278D01*
X0301289Y0317280D01*
X0301388Y0317278D01*
X0301487Y0317272D01*
X0301586Y0317262D01*
X0301684Y0317248D01*
X0301781Y0317230D01*
X0301878Y0317208D01*
X0301974Y0317183D01*
X0302068Y0317153D01*
X0302162Y0317120D01*
X0302254Y0317083D01*
X0302344Y0317042D01*
X0302433Y0316998D01*
X0302519Y0316950D01*
X0302604Y0316899D01*
X0302687Y0316844D01*
X0302767Y0316786D01*
X0302845Y0316725D01*
X0302921Y0316661D01*
X0302994Y0316594D01*
X0303064Y0316524D01*
X0303131Y0316451D01*
X0303195Y0316375D01*
X0303256Y0316297D01*
X0303314Y0316217D01*
X0303369Y0316134D01*
X0303420Y0316050D01*
X0303468Y0315963D01*
X0303512Y0315874D01*
X0303553Y0315784D01*
X0303590Y0315692D01*
X0303623Y0315598D01*
X0303653Y0315504D01*
X0303678Y0315408D01*
X0303700Y0315311D01*
X0303718Y0315214D01*
X0303732Y0315116D01*
X0303742Y0315017D01*
X0303748Y0314918D01*
X0303750Y0314819D01*
X0303748Y0314720D01*
X0303742Y0314621D01*
X0303732Y0314522D01*
X0303718Y0314424D01*
X0303700Y0314327D01*
X0303678Y0314230D01*
X0303653Y0314134D01*
X0303623Y0314040D01*
X0303590Y0313946D01*
X0303553Y0313854D01*
X0303512Y0313764D01*
X0303468Y0313675D01*
X0303420Y0313589D01*
X0303369Y0313504D01*
X0303314Y0313421D01*
X0303256Y0313341D01*
X0303195Y0313263D01*
X0303131Y0313187D01*
X0303064Y0313114D01*
X0302994Y0313044D01*
X0302921Y0312977D01*
X0302845Y0312913D01*
X0302767Y0312852D01*
X0302687Y0312794D01*
X0302604Y0312739D01*
X0302520Y0312688D01*
X0302433Y0312640D01*
X0302344Y0312596D01*
X0302254Y0312555D01*
X0302162Y0312518D01*
X0302068Y0312485D01*
X0301974Y0312455D01*
X0301878Y0312430D01*
X0301781Y0312408D01*
X0301684Y0312390D01*
X0301586Y0312376D01*
X0301487Y0312366D01*
X0301388Y0312360D01*
X0301289Y0312358D01*
X0301190Y0312360D01*
X0301091Y0312366D01*
X0300992Y0312376D01*
X0300894Y0312390D01*
X0300797Y0312408D01*
X0300700Y0312430D01*
X0300604Y0312455D01*
X0300510Y0312485D01*
X0300416Y0312518D01*
X0300324Y0312555D01*
X0300234Y0312596D01*
X0300145Y0312640D01*
X0300059Y0312688D01*
X0299974Y0312739D01*
X0299891Y0312794D01*
X0299811Y0312852D01*
X0299733Y0312913D01*
X0299657Y0312977D01*
X0299584Y0313044D01*
X0299514Y0313114D01*
X0299447Y0313187D01*
X0299383Y0313263D01*
X0299322Y0313341D01*
X0299264Y0313421D01*
X0299209Y0313504D01*
X0299158Y0313588D01*
X0299110Y0313675D01*
X0299066Y0313764D01*
X0299025Y0313854D01*
X0298988Y0313946D01*
X0298955Y0314040D01*
X0298925Y0314134D01*
X0298900Y0314230D01*
X0298878Y0314327D01*
X0298860Y0314424D01*
X0298846Y0314522D01*
X0298836Y0314621D01*
X0298830Y0314720D01*
X0298828Y0314819D01*
X0350128Y0333323D02*
X0350130Y0333422D01*
X0350136Y0333521D01*
X0350146Y0333620D01*
X0350160Y0333718D01*
X0350178Y0333815D01*
X0350200Y0333912D01*
X0350225Y0334008D01*
X0350255Y0334102D01*
X0350288Y0334196D01*
X0350325Y0334288D01*
X0350366Y0334378D01*
X0350410Y0334467D01*
X0350458Y0334553D01*
X0350509Y0334638D01*
X0350564Y0334721D01*
X0350622Y0334801D01*
X0350683Y0334879D01*
X0350747Y0334955D01*
X0350814Y0335028D01*
X0350884Y0335098D01*
X0350957Y0335165D01*
X0351033Y0335229D01*
X0351111Y0335290D01*
X0351191Y0335348D01*
X0351274Y0335403D01*
X0351358Y0335454D01*
X0351445Y0335502D01*
X0351534Y0335546D01*
X0351624Y0335587D01*
X0351716Y0335624D01*
X0351810Y0335657D01*
X0351904Y0335687D01*
X0352000Y0335712D01*
X0352097Y0335734D01*
X0352194Y0335752D01*
X0352292Y0335766D01*
X0352391Y0335776D01*
X0352490Y0335782D01*
X0352589Y0335784D01*
X0352688Y0335782D01*
X0352787Y0335776D01*
X0352886Y0335766D01*
X0352984Y0335752D01*
X0353081Y0335734D01*
X0353178Y0335712D01*
X0353274Y0335687D01*
X0353368Y0335657D01*
X0353462Y0335624D01*
X0353554Y0335587D01*
X0353644Y0335546D01*
X0353733Y0335502D01*
X0353819Y0335454D01*
X0353904Y0335403D01*
X0353987Y0335348D01*
X0354067Y0335290D01*
X0354145Y0335229D01*
X0354221Y0335165D01*
X0354294Y0335098D01*
X0354364Y0335028D01*
X0354431Y0334955D01*
X0354495Y0334879D01*
X0354556Y0334801D01*
X0354614Y0334721D01*
X0354669Y0334638D01*
X0354720Y0334554D01*
X0354768Y0334467D01*
X0354812Y0334378D01*
X0354853Y0334288D01*
X0354890Y0334196D01*
X0354923Y0334102D01*
X0354953Y0334008D01*
X0354978Y0333912D01*
X0355000Y0333815D01*
X0355018Y0333718D01*
X0355032Y0333620D01*
X0355042Y0333521D01*
X0355048Y0333422D01*
X0355050Y0333323D01*
X0355048Y0333224D01*
X0355042Y0333125D01*
X0355032Y0333026D01*
X0355018Y0332928D01*
X0355000Y0332831D01*
X0354978Y0332734D01*
X0354953Y0332638D01*
X0354923Y0332544D01*
X0354890Y0332450D01*
X0354853Y0332358D01*
X0354812Y0332268D01*
X0354768Y0332179D01*
X0354720Y0332093D01*
X0354669Y0332008D01*
X0354614Y0331925D01*
X0354556Y0331845D01*
X0354495Y0331767D01*
X0354431Y0331691D01*
X0354364Y0331618D01*
X0354294Y0331548D01*
X0354221Y0331481D01*
X0354145Y0331417D01*
X0354067Y0331356D01*
X0353987Y0331298D01*
X0353904Y0331243D01*
X0353820Y0331192D01*
X0353733Y0331144D01*
X0353644Y0331100D01*
X0353554Y0331059D01*
X0353462Y0331022D01*
X0353368Y0330989D01*
X0353274Y0330959D01*
X0353178Y0330934D01*
X0353081Y0330912D01*
X0352984Y0330894D01*
X0352886Y0330880D01*
X0352787Y0330870D01*
X0352688Y0330864D01*
X0352589Y0330862D01*
X0352490Y0330864D01*
X0352391Y0330870D01*
X0352292Y0330880D01*
X0352194Y0330894D01*
X0352097Y0330912D01*
X0352000Y0330934D01*
X0351904Y0330959D01*
X0351810Y0330989D01*
X0351716Y0331022D01*
X0351624Y0331059D01*
X0351534Y0331100D01*
X0351445Y0331144D01*
X0351359Y0331192D01*
X0351274Y0331243D01*
X0351191Y0331298D01*
X0351111Y0331356D01*
X0351033Y0331417D01*
X0350957Y0331481D01*
X0350884Y0331548D01*
X0350814Y0331618D01*
X0350747Y0331691D01*
X0350683Y0331767D01*
X0350622Y0331845D01*
X0350564Y0331925D01*
X0350509Y0332008D01*
X0350458Y0332092D01*
X0350410Y0332179D01*
X0350366Y0332268D01*
X0350325Y0332358D01*
X0350288Y0332450D01*
X0350255Y0332544D01*
X0350225Y0332638D01*
X0350200Y0332734D01*
X0350178Y0332831D01*
X0350160Y0332928D01*
X0350146Y0333026D01*
X0350136Y0333125D01*
X0350130Y0333224D01*
X0350128Y0333323D01*
X0375738Y0353283D02*
X0375740Y0353471D01*
X0375747Y0353660D01*
X0375759Y0353848D01*
X0375775Y0354035D01*
X0375796Y0354223D01*
X0375821Y0354409D01*
X0375851Y0354595D01*
X0375886Y0354781D01*
X0375925Y0354965D01*
X0375968Y0355148D01*
X0376016Y0355331D01*
X0376069Y0355512D01*
X0376125Y0355691D01*
X0376187Y0355869D01*
X0376252Y0356046D01*
X0376322Y0356221D01*
X0376397Y0356394D01*
X0376475Y0356565D01*
X0376558Y0356735D01*
X0376644Y0356902D01*
X0376735Y0357067D01*
X0376830Y0357230D01*
X0376929Y0357390D01*
X0377032Y0357548D01*
X0377138Y0357703D01*
X0377249Y0357856D01*
X0377363Y0358006D01*
X0377481Y0358153D01*
X0377602Y0358297D01*
X0377727Y0358439D01*
X0377855Y0358577D01*
X0377987Y0358711D01*
X0378121Y0358843D01*
X0378259Y0358971D01*
X0378401Y0359096D01*
X0378545Y0359217D01*
X0378692Y0359335D01*
X0378842Y0359449D01*
X0378995Y0359560D01*
X0379150Y0359666D01*
X0379308Y0359769D01*
X0379468Y0359868D01*
X0379631Y0359963D01*
X0379796Y0360054D01*
X0379963Y0360140D01*
X0380133Y0360223D01*
X0380304Y0360301D01*
X0380477Y0360376D01*
X0380652Y0360446D01*
X0380829Y0360511D01*
X0381007Y0360573D01*
X0381186Y0360629D01*
X0381367Y0360682D01*
X0381550Y0360730D01*
X0381733Y0360773D01*
X0381917Y0360812D01*
X0382103Y0360847D01*
X0382289Y0360877D01*
X0382475Y0360902D01*
X0382663Y0360923D01*
X0382850Y0360939D01*
X0383038Y0360951D01*
X0383227Y0360958D01*
X0383415Y0360960D01*
X0383603Y0360958D01*
X0383792Y0360951D01*
X0383980Y0360939D01*
X0384167Y0360923D01*
X0384355Y0360902D01*
X0384541Y0360877D01*
X0384727Y0360847D01*
X0384913Y0360812D01*
X0385097Y0360773D01*
X0385280Y0360730D01*
X0385463Y0360682D01*
X0385644Y0360629D01*
X0385823Y0360573D01*
X0386001Y0360511D01*
X0386178Y0360446D01*
X0386353Y0360376D01*
X0386526Y0360301D01*
X0386697Y0360223D01*
X0386867Y0360140D01*
X0387034Y0360054D01*
X0387199Y0359963D01*
X0387362Y0359868D01*
X0387522Y0359769D01*
X0387680Y0359666D01*
X0387835Y0359560D01*
X0387988Y0359449D01*
X0388138Y0359335D01*
X0388285Y0359217D01*
X0388429Y0359096D01*
X0388571Y0358971D01*
X0388709Y0358843D01*
X0388843Y0358711D01*
X0388975Y0358577D01*
X0389103Y0358439D01*
X0389228Y0358297D01*
X0389349Y0358153D01*
X0389467Y0358006D01*
X0389581Y0357856D01*
X0389692Y0357703D01*
X0389798Y0357548D01*
X0389901Y0357390D01*
X0390000Y0357230D01*
X0390095Y0357067D01*
X0390186Y0356902D01*
X0390272Y0356735D01*
X0390355Y0356565D01*
X0390433Y0356394D01*
X0390508Y0356221D01*
X0390578Y0356046D01*
X0390643Y0355869D01*
X0390705Y0355691D01*
X0390761Y0355512D01*
X0390814Y0355331D01*
X0390862Y0355148D01*
X0390905Y0354965D01*
X0390944Y0354781D01*
X0390979Y0354595D01*
X0391009Y0354409D01*
X0391034Y0354223D01*
X0391055Y0354035D01*
X0391071Y0353848D01*
X0391083Y0353660D01*
X0391090Y0353471D01*
X0391092Y0353283D01*
X0391090Y0353095D01*
X0391083Y0352906D01*
X0391071Y0352718D01*
X0391055Y0352531D01*
X0391034Y0352343D01*
X0391009Y0352157D01*
X0390979Y0351971D01*
X0390944Y0351785D01*
X0390905Y0351601D01*
X0390862Y0351418D01*
X0390814Y0351235D01*
X0390761Y0351054D01*
X0390705Y0350875D01*
X0390643Y0350697D01*
X0390578Y0350520D01*
X0390508Y0350345D01*
X0390433Y0350172D01*
X0390355Y0350001D01*
X0390272Y0349831D01*
X0390186Y0349664D01*
X0390095Y0349499D01*
X0390000Y0349336D01*
X0389901Y0349176D01*
X0389798Y0349018D01*
X0389692Y0348863D01*
X0389581Y0348710D01*
X0389467Y0348560D01*
X0389349Y0348413D01*
X0389228Y0348269D01*
X0389103Y0348127D01*
X0388975Y0347989D01*
X0388843Y0347855D01*
X0388709Y0347723D01*
X0388571Y0347595D01*
X0388429Y0347470D01*
X0388285Y0347349D01*
X0388138Y0347231D01*
X0387988Y0347117D01*
X0387835Y0347006D01*
X0387680Y0346900D01*
X0387522Y0346797D01*
X0387362Y0346698D01*
X0387199Y0346603D01*
X0387034Y0346512D01*
X0386867Y0346426D01*
X0386697Y0346343D01*
X0386526Y0346265D01*
X0386353Y0346190D01*
X0386178Y0346120D01*
X0386001Y0346055D01*
X0385823Y0345993D01*
X0385644Y0345937D01*
X0385463Y0345884D01*
X0385280Y0345836D01*
X0385097Y0345793D01*
X0384913Y0345754D01*
X0384727Y0345719D01*
X0384541Y0345689D01*
X0384355Y0345664D01*
X0384167Y0345643D01*
X0383980Y0345627D01*
X0383792Y0345615D01*
X0383603Y0345608D01*
X0383415Y0345606D01*
X0383227Y0345608D01*
X0383038Y0345615D01*
X0382850Y0345627D01*
X0382663Y0345643D01*
X0382475Y0345664D01*
X0382289Y0345689D01*
X0382103Y0345719D01*
X0381917Y0345754D01*
X0381733Y0345793D01*
X0381550Y0345836D01*
X0381367Y0345884D01*
X0381186Y0345937D01*
X0381007Y0345993D01*
X0380829Y0346055D01*
X0380652Y0346120D01*
X0380477Y0346190D01*
X0380304Y0346265D01*
X0380133Y0346343D01*
X0379963Y0346426D01*
X0379796Y0346512D01*
X0379631Y0346603D01*
X0379468Y0346698D01*
X0379308Y0346797D01*
X0379150Y0346900D01*
X0378995Y0347006D01*
X0378842Y0347117D01*
X0378692Y0347231D01*
X0378545Y0347349D01*
X0378401Y0347470D01*
X0378259Y0347595D01*
X0378121Y0347723D01*
X0377987Y0347855D01*
X0377855Y0347989D01*
X0377727Y0348127D01*
X0377602Y0348269D01*
X0377481Y0348413D01*
X0377363Y0348560D01*
X0377249Y0348710D01*
X0377138Y0348863D01*
X0377032Y0349018D01*
X0376929Y0349176D01*
X0376830Y0349336D01*
X0376735Y0349499D01*
X0376644Y0349664D01*
X0376558Y0349831D01*
X0376475Y0350001D01*
X0376397Y0350172D01*
X0376322Y0350345D01*
X0376252Y0350520D01*
X0376187Y0350697D01*
X0376125Y0350875D01*
X0376069Y0351054D01*
X0376016Y0351235D01*
X0375968Y0351418D01*
X0375925Y0351601D01*
X0375886Y0351785D01*
X0375851Y0351971D01*
X0375821Y0352157D01*
X0375796Y0352343D01*
X0375775Y0352531D01*
X0375759Y0352718D01*
X0375747Y0352906D01*
X0375740Y0353095D01*
X0375738Y0353283D01*
X0332176Y0277657D02*
X0332183Y0278261D01*
X0332206Y0278864D01*
X0332243Y0279467D01*
X0332294Y0280069D01*
X0332361Y0280669D01*
X0332442Y0281267D01*
X0332538Y0281864D01*
X0332649Y0282457D01*
X0332774Y0283048D01*
X0332913Y0283636D01*
X0333067Y0284220D01*
X0333236Y0284800D01*
X0333418Y0285375D01*
X0333614Y0285947D01*
X0333825Y0286513D01*
X0334049Y0287073D01*
X0334287Y0287628D01*
X0334538Y0288177D01*
X0334803Y0288720D01*
X0335081Y0289256D01*
X0335373Y0289785D01*
X0335677Y0290307D01*
X0335994Y0290821D01*
X0336323Y0291327D01*
X0336665Y0291825D01*
X0337018Y0292315D01*
X0337384Y0292795D01*
X0337761Y0293267D01*
X0338150Y0293729D01*
X0338550Y0294181D01*
X0338961Y0294624D01*
X0339383Y0295056D01*
X0339815Y0295478D01*
X0340258Y0295889D01*
X0340710Y0296289D01*
X0341172Y0296678D01*
X0341644Y0297055D01*
X0342124Y0297421D01*
X0342614Y0297774D01*
X0343112Y0298116D01*
X0343618Y0298445D01*
X0344132Y0298762D01*
X0344654Y0299066D01*
X0345183Y0299358D01*
X0345719Y0299636D01*
X0346262Y0299901D01*
X0346811Y0300152D01*
X0347366Y0300390D01*
X0347926Y0300614D01*
X0348492Y0300825D01*
X0349064Y0301021D01*
X0349639Y0301203D01*
X0350219Y0301372D01*
X0350803Y0301526D01*
X0351391Y0301665D01*
X0351982Y0301790D01*
X0352575Y0301901D01*
X0353172Y0301997D01*
X0353770Y0302078D01*
X0354370Y0302145D01*
X0354972Y0302196D01*
X0355575Y0302233D01*
X0356178Y0302256D01*
X0356782Y0302263D01*
X0357386Y0302256D01*
X0357989Y0302233D01*
X0358592Y0302196D01*
X0359194Y0302145D01*
X0359794Y0302078D01*
X0360392Y0301997D01*
X0360989Y0301901D01*
X0361582Y0301790D01*
X0362173Y0301665D01*
X0362761Y0301526D01*
X0363345Y0301372D01*
X0363925Y0301203D01*
X0364500Y0301021D01*
X0365072Y0300825D01*
X0365638Y0300614D01*
X0366198Y0300390D01*
X0366753Y0300152D01*
X0367302Y0299901D01*
X0367845Y0299636D01*
X0368381Y0299358D01*
X0368910Y0299066D01*
X0369432Y0298762D01*
X0369946Y0298445D01*
X0370452Y0298116D01*
X0370950Y0297774D01*
X0371440Y0297421D01*
X0371920Y0297055D01*
X0372392Y0296678D01*
X0372854Y0296289D01*
X0373306Y0295889D01*
X0373749Y0295478D01*
X0374181Y0295056D01*
X0374603Y0294624D01*
X0375014Y0294181D01*
X0375414Y0293729D01*
X0375803Y0293267D01*
X0376180Y0292795D01*
X0376546Y0292315D01*
X0376899Y0291825D01*
X0377241Y0291327D01*
X0377570Y0290821D01*
X0377887Y0290307D01*
X0378191Y0289785D01*
X0378483Y0289256D01*
X0378761Y0288720D01*
X0379026Y0288177D01*
X0379277Y0287628D01*
X0379515Y0287073D01*
X0379739Y0286513D01*
X0379950Y0285947D01*
X0380146Y0285375D01*
X0380328Y0284800D01*
X0380497Y0284220D01*
X0380651Y0283636D01*
X0380790Y0283048D01*
X0380915Y0282457D01*
X0381026Y0281864D01*
X0381122Y0281267D01*
X0381203Y0280669D01*
X0381270Y0280069D01*
X0381321Y0279467D01*
X0381358Y0278864D01*
X0381381Y0278261D01*
X0381388Y0277657D01*
X0381381Y0277053D01*
X0381358Y0276450D01*
X0381321Y0275847D01*
X0381270Y0275245D01*
X0381203Y0274645D01*
X0381122Y0274047D01*
X0381026Y0273450D01*
X0380915Y0272857D01*
X0380790Y0272266D01*
X0380651Y0271678D01*
X0380497Y0271094D01*
X0380328Y0270514D01*
X0380146Y0269939D01*
X0379950Y0269367D01*
X0379739Y0268801D01*
X0379515Y0268241D01*
X0379277Y0267686D01*
X0379026Y0267137D01*
X0378761Y0266594D01*
X0378483Y0266058D01*
X0378191Y0265529D01*
X0377887Y0265007D01*
X0377570Y0264493D01*
X0377241Y0263987D01*
X0376899Y0263489D01*
X0376546Y0262999D01*
X0376180Y0262519D01*
X0375803Y0262047D01*
X0375414Y0261585D01*
X0375014Y0261133D01*
X0374603Y0260690D01*
X0374181Y0260258D01*
X0373749Y0259836D01*
X0373306Y0259425D01*
X0372854Y0259025D01*
X0372392Y0258636D01*
X0371920Y0258259D01*
X0371440Y0257893D01*
X0370950Y0257540D01*
X0370452Y0257198D01*
X0369946Y0256869D01*
X0369432Y0256552D01*
X0368910Y0256248D01*
X0368381Y0255956D01*
X0367845Y0255678D01*
X0367302Y0255413D01*
X0366753Y0255162D01*
X0366198Y0254924D01*
X0365638Y0254700D01*
X0365072Y0254489D01*
X0364500Y0254293D01*
X0363925Y0254111D01*
X0363345Y0253942D01*
X0362761Y0253788D01*
X0362173Y0253649D01*
X0361582Y0253524D01*
X0360989Y0253413D01*
X0360392Y0253317D01*
X0359794Y0253236D01*
X0359194Y0253169D01*
X0358592Y0253118D01*
X0357989Y0253081D01*
X0357386Y0253058D01*
X0356782Y0253051D01*
X0356178Y0253058D01*
X0355575Y0253081D01*
X0354972Y0253118D01*
X0354370Y0253169D01*
X0353770Y0253236D01*
X0353172Y0253317D01*
X0352575Y0253413D01*
X0351982Y0253524D01*
X0351391Y0253649D01*
X0350803Y0253788D01*
X0350219Y0253942D01*
X0349639Y0254111D01*
X0349064Y0254293D01*
X0348492Y0254489D01*
X0347926Y0254700D01*
X0347366Y0254924D01*
X0346811Y0255162D01*
X0346262Y0255413D01*
X0345719Y0255678D01*
X0345183Y0255956D01*
X0344654Y0256248D01*
X0344132Y0256552D01*
X0343618Y0256869D01*
X0343112Y0257198D01*
X0342614Y0257540D01*
X0342124Y0257893D01*
X0341644Y0258259D01*
X0341172Y0258636D01*
X0340710Y0259025D01*
X0340258Y0259425D01*
X0339815Y0259836D01*
X0339383Y0260258D01*
X0338961Y0260690D01*
X0338550Y0261133D01*
X0338150Y0261585D01*
X0337761Y0262047D01*
X0337384Y0262519D01*
X0337018Y0262999D01*
X0336665Y0263489D01*
X0336323Y0263987D01*
X0335994Y0264493D01*
X0335677Y0265007D01*
X0335373Y0265529D01*
X0335081Y0266058D01*
X0334803Y0266594D01*
X0334538Y0267137D01*
X0334287Y0267686D01*
X0334049Y0268241D01*
X0333825Y0268801D01*
X0333614Y0269367D01*
X0333418Y0269939D01*
X0333236Y0270514D01*
X0333067Y0271094D01*
X0332913Y0271678D01*
X0332774Y0272266D01*
X0332649Y0272857D01*
X0332538Y0273450D01*
X0332442Y0274047D01*
X0332361Y0274645D01*
X0332294Y0275245D01*
X0332243Y0275847D01*
X0332206Y0276450D01*
X0332183Y0277053D01*
X0332176Y0277657D01*
X0330148Y0223559D02*
X0330155Y0224163D01*
X0330178Y0224766D01*
X0330215Y0225369D01*
X0330266Y0225971D01*
X0330333Y0226571D01*
X0330414Y0227169D01*
X0330510Y0227766D01*
X0330621Y0228359D01*
X0330746Y0228950D01*
X0330885Y0229538D01*
X0331039Y0230122D01*
X0331208Y0230702D01*
X0331390Y0231277D01*
X0331586Y0231849D01*
X0331797Y0232415D01*
X0332021Y0232975D01*
X0332259Y0233530D01*
X0332510Y0234079D01*
X0332775Y0234622D01*
X0333053Y0235158D01*
X0333345Y0235687D01*
X0333649Y0236209D01*
X0333966Y0236723D01*
X0334295Y0237229D01*
X0334637Y0237727D01*
X0334990Y0238217D01*
X0335356Y0238697D01*
X0335733Y0239169D01*
X0336122Y0239631D01*
X0336522Y0240083D01*
X0336933Y0240526D01*
X0337355Y0240958D01*
X0337787Y0241380D01*
X0338230Y0241791D01*
X0338682Y0242191D01*
X0339144Y0242580D01*
X0339616Y0242957D01*
X0340096Y0243323D01*
X0340586Y0243676D01*
X0341084Y0244018D01*
X0341590Y0244347D01*
X0342104Y0244664D01*
X0342626Y0244968D01*
X0343155Y0245260D01*
X0343691Y0245538D01*
X0344234Y0245803D01*
X0344783Y0246054D01*
X0345338Y0246292D01*
X0345898Y0246516D01*
X0346464Y0246727D01*
X0347036Y0246923D01*
X0347611Y0247105D01*
X0348191Y0247274D01*
X0348775Y0247428D01*
X0349363Y0247567D01*
X0349954Y0247692D01*
X0350547Y0247803D01*
X0351144Y0247899D01*
X0351742Y0247980D01*
X0352342Y0248047D01*
X0352944Y0248098D01*
X0353547Y0248135D01*
X0354150Y0248158D01*
X0354754Y0248165D01*
X0355358Y0248158D01*
X0355961Y0248135D01*
X0356564Y0248098D01*
X0357166Y0248047D01*
X0357766Y0247980D01*
X0358364Y0247899D01*
X0358961Y0247803D01*
X0359554Y0247692D01*
X0360145Y0247567D01*
X0360733Y0247428D01*
X0361317Y0247274D01*
X0361897Y0247105D01*
X0362472Y0246923D01*
X0363044Y0246727D01*
X0363610Y0246516D01*
X0364170Y0246292D01*
X0364725Y0246054D01*
X0365274Y0245803D01*
X0365817Y0245538D01*
X0366353Y0245260D01*
X0366882Y0244968D01*
X0367404Y0244664D01*
X0367918Y0244347D01*
X0368424Y0244018D01*
X0368922Y0243676D01*
X0369412Y0243323D01*
X0369892Y0242957D01*
X0370364Y0242580D01*
X0370826Y0242191D01*
X0371278Y0241791D01*
X0371721Y0241380D01*
X0372153Y0240958D01*
X0372575Y0240526D01*
X0372986Y0240083D01*
X0373386Y0239631D01*
X0373775Y0239169D01*
X0374152Y0238697D01*
X0374518Y0238217D01*
X0374871Y0237727D01*
X0375213Y0237229D01*
X0375542Y0236723D01*
X0375859Y0236209D01*
X0376163Y0235687D01*
X0376455Y0235158D01*
X0376733Y0234622D01*
X0376998Y0234079D01*
X0377249Y0233530D01*
X0377487Y0232975D01*
X0377711Y0232415D01*
X0377922Y0231849D01*
X0378118Y0231277D01*
X0378300Y0230702D01*
X0378469Y0230122D01*
X0378623Y0229538D01*
X0378762Y0228950D01*
X0378887Y0228359D01*
X0378998Y0227766D01*
X0379094Y0227169D01*
X0379175Y0226571D01*
X0379242Y0225971D01*
X0379293Y0225369D01*
X0379330Y0224766D01*
X0379353Y0224163D01*
X0379360Y0223559D01*
X0379353Y0222955D01*
X0379330Y0222352D01*
X0379293Y0221749D01*
X0379242Y0221147D01*
X0379175Y0220547D01*
X0379094Y0219949D01*
X0378998Y0219352D01*
X0378887Y0218759D01*
X0378762Y0218168D01*
X0378623Y0217580D01*
X0378469Y0216996D01*
X0378300Y0216416D01*
X0378118Y0215841D01*
X0377922Y0215269D01*
X0377711Y0214703D01*
X0377487Y0214143D01*
X0377249Y0213588D01*
X0376998Y0213039D01*
X0376733Y0212496D01*
X0376455Y0211960D01*
X0376163Y0211431D01*
X0375859Y0210909D01*
X0375542Y0210395D01*
X0375213Y0209889D01*
X0374871Y0209391D01*
X0374518Y0208901D01*
X0374152Y0208421D01*
X0373775Y0207949D01*
X0373386Y0207487D01*
X0372986Y0207035D01*
X0372575Y0206592D01*
X0372153Y0206160D01*
X0371721Y0205738D01*
X0371278Y0205327D01*
X0370826Y0204927D01*
X0370364Y0204538D01*
X0369892Y0204161D01*
X0369412Y0203795D01*
X0368922Y0203442D01*
X0368424Y0203100D01*
X0367918Y0202771D01*
X0367404Y0202454D01*
X0366882Y0202150D01*
X0366353Y0201858D01*
X0365817Y0201580D01*
X0365274Y0201315D01*
X0364725Y0201064D01*
X0364170Y0200826D01*
X0363610Y0200602D01*
X0363044Y0200391D01*
X0362472Y0200195D01*
X0361897Y0200013D01*
X0361317Y0199844D01*
X0360733Y0199690D01*
X0360145Y0199551D01*
X0359554Y0199426D01*
X0358961Y0199315D01*
X0358364Y0199219D01*
X0357766Y0199138D01*
X0357166Y0199071D01*
X0356564Y0199020D01*
X0355961Y0198983D01*
X0355358Y0198960D01*
X0354754Y0198953D01*
X0354150Y0198960D01*
X0353547Y0198983D01*
X0352944Y0199020D01*
X0352342Y0199071D01*
X0351742Y0199138D01*
X0351144Y0199219D01*
X0350547Y0199315D01*
X0349954Y0199426D01*
X0349363Y0199551D01*
X0348775Y0199690D01*
X0348191Y0199844D01*
X0347611Y0200013D01*
X0347036Y0200195D01*
X0346464Y0200391D01*
X0345898Y0200602D01*
X0345338Y0200826D01*
X0344783Y0201064D01*
X0344234Y0201315D01*
X0343691Y0201580D01*
X0343155Y0201858D01*
X0342626Y0202150D01*
X0342104Y0202454D01*
X0341590Y0202771D01*
X0341084Y0203100D01*
X0340586Y0203442D01*
X0340096Y0203795D01*
X0339616Y0204161D01*
X0339144Y0204538D01*
X0338682Y0204927D01*
X0338230Y0205327D01*
X0337787Y0205738D01*
X0337355Y0206160D01*
X0336933Y0206592D01*
X0336522Y0207035D01*
X0336122Y0207487D01*
X0335733Y0207949D01*
X0335356Y0208421D01*
X0334990Y0208901D01*
X0334637Y0209391D01*
X0334295Y0209889D01*
X0333966Y0210395D01*
X0333649Y0210909D01*
X0333345Y0211431D01*
X0333053Y0211960D01*
X0332775Y0212496D01*
X0332510Y0213039D01*
X0332259Y0213588D01*
X0332021Y0214143D01*
X0331797Y0214703D01*
X0331586Y0215269D01*
X0331390Y0215841D01*
X0331208Y0216416D01*
X0331039Y0216996D01*
X0330885Y0217580D01*
X0330746Y0218168D01*
X0330621Y0218759D01*
X0330510Y0219352D01*
X0330414Y0219949D01*
X0330333Y0220547D01*
X0330266Y0221147D01*
X0330215Y0221749D01*
X0330178Y0222352D01*
X0330155Y0222955D01*
X0330148Y0223559D01*
X0338383Y0151039D02*
X0338389Y0151498D01*
X0338406Y0151957D01*
X0338434Y0152415D01*
X0338473Y0152872D01*
X0338524Y0153328D01*
X0338585Y0153783D01*
X0338658Y0154236D01*
X0338742Y0154687D01*
X0338837Y0155136D01*
X0338943Y0155583D01*
X0339060Y0156027D01*
X0339188Y0156468D01*
X0339327Y0156905D01*
X0339476Y0157339D01*
X0339636Y0157769D01*
X0339807Y0158196D01*
X0339987Y0158617D01*
X0340178Y0159035D01*
X0340380Y0159447D01*
X0340591Y0159855D01*
X0340813Y0160257D01*
X0341044Y0160653D01*
X0341284Y0161044D01*
X0341535Y0161429D01*
X0341794Y0161807D01*
X0342063Y0162179D01*
X0342341Y0162544D01*
X0342628Y0162903D01*
X0342923Y0163254D01*
X0343227Y0163598D01*
X0343540Y0163934D01*
X0343860Y0164263D01*
X0344189Y0164583D01*
X0344525Y0164896D01*
X0344869Y0165200D01*
X0345220Y0165495D01*
X0345579Y0165782D01*
X0345944Y0166060D01*
X0346316Y0166329D01*
X0346694Y0166588D01*
X0347079Y0166839D01*
X0347470Y0167079D01*
X0347866Y0167310D01*
X0348268Y0167532D01*
X0348676Y0167743D01*
X0349088Y0167945D01*
X0349506Y0168136D01*
X0349927Y0168316D01*
X0350354Y0168487D01*
X0350784Y0168647D01*
X0351218Y0168796D01*
X0351655Y0168935D01*
X0352096Y0169063D01*
X0352540Y0169180D01*
X0352987Y0169286D01*
X0353436Y0169381D01*
X0353887Y0169465D01*
X0354340Y0169538D01*
X0354795Y0169599D01*
X0355251Y0169650D01*
X0355708Y0169689D01*
X0356166Y0169717D01*
X0356625Y0169734D01*
X0357084Y0169740D01*
X0357543Y0169734D01*
X0358002Y0169717D01*
X0358460Y0169689D01*
X0358917Y0169650D01*
X0359373Y0169599D01*
X0359828Y0169538D01*
X0360281Y0169465D01*
X0360732Y0169381D01*
X0361181Y0169286D01*
X0361628Y0169180D01*
X0362072Y0169063D01*
X0362513Y0168935D01*
X0362950Y0168796D01*
X0363384Y0168647D01*
X0363814Y0168487D01*
X0364241Y0168316D01*
X0364662Y0168136D01*
X0365080Y0167945D01*
X0365492Y0167743D01*
X0365900Y0167532D01*
X0366302Y0167310D01*
X0366698Y0167079D01*
X0367089Y0166839D01*
X0367474Y0166588D01*
X0367852Y0166329D01*
X0368224Y0166060D01*
X0368589Y0165782D01*
X0368948Y0165495D01*
X0369299Y0165200D01*
X0369643Y0164896D01*
X0369979Y0164583D01*
X0370308Y0164263D01*
X0370628Y0163934D01*
X0370941Y0163598D01*
X0371245Y0163254D01*
X0371540Y0162903D01*
X0371827Y0162544D01*
X0372105Y0162179D01*
X0372374Y0161807D01*
X0372633Y0161429D01*
X0372884Y0161044D01*
X0373124Y0160653D01*
X0373355Y0160257D01*
X0373577Y0159855D01*
X0373788Y0159447D01*
X0373990Y0159035D01*
X0374181Y0158617D01*
X0374361Y0158196D01*
X0374532Y0157769D01*
X0374692Y0157339D01*
X0374841Y0156905D01*
X0374980Y0156468D01*
X0375108Y0156027D01*
X0375225Y0155583D01*
X0375331Y0155136D01*
X0375426Y0154687D01*
X0375510Y0154236D01*
X0375583Y0153783D01*
X0375644Y0153328D01*
X0375695Y0152872D01*
X0375734Y0152415D01*
X0375762Y0151957D01*
X0375779Y0151498D01*
X0375785Y0151039D01*
X0375779Y0150580D01*
X0375762Y0150121D01*
X0375734Y0149663D01*
X0375695Y0149206D01*
X0375644Y0148750D01*
X0375583Y0148295D01*
X0375510Y0147842D01*
X0375426Y0147391D01*
X0375331Y0146942D01*
X0375225Y0146495D01*
X0375108Y0146051D01*
X0374980Y0145610D01*
X0374841Y0145173D01*
X0374692Y0144739D01*
X0374532Y0144309D01*
X0374361Y0143882D01*
X0374181Y0143461D01*
X0373990Y0143043D01*
X0373788Y0142631D01*
X0373577Y0142223D01*
X0373355Y0141821D01*
X0373124Y0141425D01*
X0372884Y0141034D01*
X0372633Y0140649D01*
X0372374Y0140271D01*
X0372105Y0139899D01*
X0371827Y0139534D01*
X0371540Y0139175D01*
X0371245Y0138824D01*
X0370941Y0138480D01*
X0370628Y0138144D01*
X0370308Y0137815D01*
X0369979Y0137495D01*
X0369643Y0137182D01*
X0369299Y0136878D01*
X0368948Y0136583D01*
X0368589Y0136296D01*
X0368224Y0136018D01*
X0367852Y0135749D01*
X0367474Y0135490D01*
X0367089Y0135239D01*
X0366698Y0134999D01*
X0366302Y0134768D01*
X0365900Y0134546D01*
X0365492Y0134335D01*
X0365080Y0134133D01*
X0364662Y0133942D01*
X0364241Y0133762D01*
X0363814Y0133591D01*
X0363384Y0133431D01*
X0362950Y0133282D01*
X0362513Y0133143D01*
X0362072Y0133015D01*
X0361628Y0132898D01*
X0361181Y0132792D01*
X0360732Y0132697D01*
X0360281Y0132613D01*
X0359828Y0132540D01*
X0359373Y0132479D01*
X0358917Y0132428D01*
X0358460Y0132389D01*
X0358002Y0132361D01*
X0357543Y0132344D01*
X0357084Y0132338D01*
X0356625Y0132344D01*
X0356166Y0132361D01*
X0355708Y0132389D01*
X0355251Y0132428D01*
X0354795Y0132479D01*
X0354340Y0132540D01*
X0353887Y0132613D01*
X0353436Y0132697D01*
X0352987Y0132792D01*
X0352540Y0132898D01*
X0352096Y0133015D01*
X0351655Y0133143D01*
X0351218Y0133282D01*
X0350784Y0133431D01*
X0350354Y0133591D01*
X0349927Y0133762D01*
X0349506Y0133942D01*
X0349088Y0134133D01*
X0348676Y0134335D01*
X0348268Y0134546D01*
X0347866Y0134768D01*
X0347470Y0134999D01*
X0347079Y0135239D01*
X0346694Y0135490D01*
X0346316Y0135749D01*
X0345944Y0136018D01*
X0345579Y0136296D01*
X0345220Y0136583D01*
X0344869Y0136878D01*
X0344525Y0137182D01*
X0344189Y0137495D01*
X0343860Y0137815D01*
X0343540Y0138144D01*
X0343227Y0138480D01*
X0342923Y0138824D01*
X0342628Y0139175D01*
X0342341Y0139534D01*
X0342063Y0139899D01*
X0341794Y0140271D01*
X0341535Y0140649D01*
X0341284Y0141034D01*
X0341044Y0141425D01*
X0340813Y0141821D01*
X0340591Y0142223D01*
X0340380Y0142631D01*
X0340178Y0143043D01*
X0339987Y0143461D01*
X0339807Y0143882D01*
X0339636Y0144309D01*
X0339476Y0144739D01*
X0339327Y0145173D01*
X0339188Y0145610D01*
X0339060Y0146051D01*
X0338943Y0146495D01*
X0338837Y0146942D01*
X0338742Y0147391D01*
X0338658Y0147842D01*
X0338585Y0148295D01*
X0338524Y0148750D01*
X0338473Y0149206D01*
X0338434Y0149663D01*
X0338406Y0150121D01*
X0338389Y0150580D01*
X0338383Y0151039D01*
X0299714Y0107890D02*
X0299716Y0107969D01*
X0299722Y0108048D01*
X0299732Y0108127D01*
X0299746Y0108205D01*
X0299763Y0108282D01*
X0299785Y0108358D01*
X0299810Y0108433D01*
X0299840Y0108506D01*
X0299872Y0108578D01*
X0299909Y0108649D01*
X0299949Y0108717D01*
X0299992Y0108783D01*
X0300038Y0108847D01*
X0300088Y0108909D01*
X0300141Y0108968D01*
X0300196Y0109024D01*
X0300255Y0109078D01*
X0300316Y0109128D01*
X0300379Y0109176D01*
X0300445Y0109220D01*
X0300513Y0109261D01*
X0300583Y0109298D01*
X0300654Y0109332D01*
X0300728Y0109362D01*
X0300802Y0109388D01*
X0300878Y0109410D01*
X0300955Y0109429D01*
X0301033Y0109444D01*
X0301111Y0109455D01*
X0301190Y0109462D01*
X0301269Y0109465D01*
X0301348Y0109464D01*
X0301427Y0109459D01*
X0301506Y0109450D01*
X0301584Y0109437D01*
X0301661Y0109420D01*
X0301738Y0109400D01*
X0301813Y0109375D01*
X0301887Y0109347D01*
X0301960Y0109315D01*
X0302030Y0109280D01*
X0302099Y0109241D01*
X0302166Y0109198D01*
X0302231Y0109152D01*
X0302293Y0109104D01*
X0302353Y0109052D01*
X0302410Y0108997D01*
X0302464Y0108939D01*
X0302515Y0108879D01*
X0302563Y0108816D01*
X0302608Y0108751D01*
X0302650Y0108683D01*
X0302688Y0108614D01*
X0302722Y0108543D01*
X0302753Y0108470D01*
X0302781Y0108395D01*
X0302804Y0108320D01*
X0302824Y0108243D01*
X0302840Y0108166D01*
X0302852Y0108087D01*
X0302860Y0108009D01*
X0302864Y0107930D01*
X0302864Y0107850D01*
X0302860Y0107771D01*
X0302852Y0107693D01*
X0302840Y0107614D01*
X0302824Y0107537D01*
X0302804Y0107460D01*
X0302781Y0107385D01*
X0302753Y0107310D01*
X0302722Y0107237D01*
X0302688Y0107166D01*
X0302650Y0107097D01*
X0302608Y0107029D01*
X0302563Y0106964D01*
X0302515Y0106901D01*
X0302464Y0106841D01*
X0302410Y0106783D01*
X0302353Y0106728D01*
X0302293Y0106676D01*
X0302231Y0106628D01*
X0302166Y0106582D01*
X0302099Y0106539D01*
X0302030Y0106500D01*
X0301960Y0106465D01*
X0301887Y0106433D01*
X0301813Y0106405D01*
X0301738Y0106380D01*
X0301661Y0106360D01*
X0301584Y0106343D01*
X0301506Y0106330D01*
X0301427Y0106321D01*
X0301348Y0106316D01*
X0301269Y0106315D01*
X0301190Y0106318D01*
X0301111Y0106325D01*
X0301033Y0106336D01*
X0300955Y0106351D01*
X0300878Y0106370D01*
X0300802Y0106392D01*
X0300728Y0106418D01*
X0300654Y0106448D01*
X0300583Y0106482D01*
X0300513Y0106519D01*
X0300445Y0106560D01*
X0300379Y0106604D01*
X0300316Y0106652D01*
X0300255Y0106702D01*
X0300196Y0106756D01*
X0300141Y0106812D01*
X0300088Y0106871D01*
X0300038Y0106933D01*
X0299992Y0106997D01*
X0299949Y0107063D01*
X0299909Y0107131D01*
X0299872Y0107202D01*
X0299840Y0107274D01*
X0299810Y0107347D01*
X0299785Y0107422D01*
X0299763Y0107498D01*
X0299746Y0107575D01*
X0299732Y0107653D01*
X0299722Y0107732D01*
X0299716Y0107811D01*
X0299714Y0107890D01*
X0299714Y0083087D02*
X0299716Y0083166D01*
X0299722Y0083245D01*
X0299732Y0083324D01*
X0299746Y0083402D01*
X0299763Y0083479D01*
X0299785Y0083555D01*
X0299810Y0083630D01*
X0299840Y0083703D01*
X0299872Y0083775D01*
X0299909Y0083846D01*
X0299949Y0083914D01*
X0299992Y0083980D01*
X0300038Y0084044D01*
X0300088Y0084106D01*
X0300141Y0084165D01*
X0300196Y0084221D01*
X0300255Y0084275D01*
X0300316Y0084325D01*
X0300379Y0084373D01*
X0300445Y0084417D01*
X0300513Y0084458D01*
X0300583Y0084495D01*
X0300654Y0084529D01*
X0300728Y0084559D01*
X0300802Y0084585D01*
X0300878Y0084607D01*
X0300955Y0084626D01*
X0301033Y0084641D01*
X0301111Y0084652D01*
X0301190Y0084659D01*
X0301269Y0084662D01*
X0301348Y0084661D01*
X0301427Y0084656D01*
X0301506Y0084647D01*
X0301584Y0084634D01*
X0301661Y0084617D01*
X0301738Y0084597D01*
X0301813Y0084572D01*
X0301887Y0084544D01*
X0301960Y0084512D01*
X0302030Y0084477D01*
X0302099Y0084438D01*
X0302166Y0084395D01*
X0302231Y0084349D01*
X0302293Y0084301D01*
X0302353Y0084249D01*
X0302410Y0084194D01*
X0302464Y0084136D01*
X0302515Y0084076D01*
X0302563Y0084013D01*
X0302608Y0083948D01*
X0302650Y0083880D01*
X0302688Y0083811D01*
X0302722Y0083740D01*
X0302753Y0083667D01*
X0302781Y0083592D01*
X0302804Y0083517D01*
X0302824Y0083440D01*
X0302840Y0083363D01*
X0302852Y0083284D01*
X0302860Y0083206D01*
X0302864Y0083127D01*
X0302864Y0083047D01*
X0302860Y0082968D01*
X0302852Y0082890D01*
X0302840Y0082811D01*
X0302824Y0082734D01*
X0302804Y0082657D01*
X0302781Y0082582D01*
X0302753Y0082507D01*
X0302722Y0082434D01*
X0302688Y0082363D01*
X0302650Y0082294D01*
X0302608Y0082226D01*
X0302563Y0082161D01*
X0302515Y0082098D01*
X0302464Y0082038D01*
X0302410Y0081980D01*
X0302353Y0081925D01*
X0302293Y0081873D01*
X0302231Y0081825D01*
X0302166Y0081779D01*
X0302099Y0081736D01*
X0302030Y0081697D01*
X0301960Y0081662D01*
X0301887Y0081630D01*
X0301813Y0081602D01*
X0301738Y0081577D01*
X0301661Y0081557D01*
X0301584Y0081540D01*
X0301506Y0081527D01*
X0301427Y0081518D01*
X0301348Y0081513D01*
X0301269Y0081512D01*
X0301190Y0081515D01*
X0301111Y0081522D01*
X0301033Y0081533D01*
X0300955Y0081548D01*
X0300878Y0081567D01*
X0300802Y0081589D01*
X0300728Y0081615D01*
X0300654Y0081645D01*
X0300583Y0081679D01*
X0300513Y0081716D01*
X0300445Y0081757D01*
X0300379Y0081801D01*
X0300316Y0081849D01*
X0300255Y0081899D01*
X0300196Y0081953D01*
X0300141Y0082009D01*
X0300088Y0082068D01*
X0300038Y0082130D01*
X0299992Y0082194D01*
X0299949Y0082260D01*
X0299909Y0082328D01*
X0299872Y0082399D01*
X0299840Y0082471D01*
X0299810Y0082544D01*
X0299785Y0082619D01*
X0299763Y0082695D01*
X0299746Y0082772D01*
X0299732Y0082850D01*
X0299722Y0082929D01*
X0299716Y0083008D01*
X0299714Y0083087D01*
X0338848Y0057260D02*
X0338850Y0057394D01*
X0338856Y0057528D01*
X0338866Y0057662D01*
X0338880Y0057796D01*
X0338898Y0057929D01*
X0338919Y0058061D01*
X0338945Y0058193D01*
X0338975Y0058324D01*
X0339008Y0058454D01*
X0339045Y0058582D01*
X0339087Y0058710D01*
X0339131Y0058837D01*
X0339180Y0058962D01*
X0339232Y0059085D01*
X0339288Y0059207D01*
X0339348Y0059328D01*
X0339411Y0059446D01*
X0339477Y0059563D01*
X0339547Y0059677D01*
X0339620Y0059790D01*
X0339697Y0059900D01*
X0339777Y0060008D01*
X0339860Y0060113D01*
X0339946Y0060216D01*
X0340035Y0060316D01*
X0340127Y0060414D01*
X0340222Y0060509D01*
X0340320Y0060601D01*
X0340420Y0060690D01*
X0340523Y0060776D01*
X0340628Y0060859D01*
X0340736Y0060939D01*
X0340846Y0061016D01*
X0340959Y0061089D01*
X0341073Y0061159D01*
X0341190Y0061225D01*
X0341308Y0061288D01*
X0341429Y0061348D01*
X0341551Y0061404D01*
X0341674Y0061456D01*
X0341799Y0061505D01*
X0341926Y0061549D01*
X0342054Y0061591D01*
X0342182Y0061628D01*
X0342312Y0061661D01*
X0342443Y0061691D01*
X0342575Y0061717D01*
X0342707Y0061738D01*
X0342840Y0061756D01*
X0342974Y0061770D01*
X0343108Y0061780D01*
X0343242Y0061786D01*
X0343376Y0061788D01*
X0343510Y0061786D01*
X0343644Y0061780D01*
X0343778Y0061770D01*
X0343912Y0061756D01*
X0344045Y0061738D01*
X0344177Y0061717D01*
X0344309Y0061691D01*
X0344440Y0061661D01*
X0344570Y0061628D01*
X0344698Y0061591D01*
X0344826Y0061549D01*
X0344953Y0061505D01*
X0345078Y0061456D01*
X0345201Y0061404D01*
X0345323Y0061348D01*
X0345444Y0061288D01*
X0345562Y0061225D01*
X0345679Y0061159D01*
X0345793Y0061089D01*
X0345906Y0061016D01*
X0346016Y0060939D01*
X0346124Y0060859D01*
X0346229Y0060776D01*
X0346332Y0060690D01*
X0346432Y0060601D01*
X0346530Y0060509D01*
X0346625Y0060414D01*
X0346717Y0060316D01*
X0346806Y0060216D01*
X0346892Y0060113D01*
X0346975Y0060008D01*
X0347055Y0059900D01*
X0347132Y0059790D01*
X0347205Y0059677D01*
X0347275Y0059563D01*
X0347341Y0059446D01*
X0347404Y0059328D01*
X0347464Y0059207D01*
X0347520Y0059085D01*
X0347572Y0058962D01*
X0347621Y0058837D01*
X0347665Y0058710D01*
X0347707Y0058582D01*
X0347744Y0058454D01*
X0347777Y0058324D01*
X0347807Y0058193D01*
X0347833Y0058061D01*
X0347854Y0057929D01*
X0347872Y0057796D01*
X0347886Y0057662D01*
X0347896Y0057528D01*
X0347902Y0057394D01*
X0347904Y0057260D01*
X0347902Y0057126D01*
X0347896Y0056992D01*
X0347886Y0056858D01*
X0347872Y0056724D01*
X0347854Y0056591D01*
X0347833Y0056459D01*
X0347807Y0056327D01*
X0347777Y0056196D01*
X0347744Y0056066D01*
X0347707Y0055938D01*
X0347665Y0055810D01*
X0347621Y0055683D01*
X0347572Y0055558D01*
X0347520Y0055435D01*
X0347464Y0055313D01*
X0347404Y0055192D01*
X0347341Y0055074D01*
X0347275Y0054957D01*
X0347205Y0054843D01*
X0347132Y0054730D01*
X0347055Y0054620D01*
X0346975Y0054512D01*
X0346892Y0054407D01*
X0346806Y0054304D01*
X0346717Y0054204D01*
X0346625Y0054106D01*
X0346530Y0054011D01*
X0346432Y0053919D01*
X0346332Y0053830D01*
X0346229Y0053744D01*
X0346124Y0053661D01*
X0346016Y0053581D01*
X0345906Y0053504D01*
X0345793Y0053431D01*
X0345679Y0053361D01*
X0345562Y0053295D01*
X0345444Y0053232D01*
X0345323Y0053172D01*
X0345201Y0053116D01*
X0345078Y0053064D01*
X0344953Y0053015D01*
X0344826Y0052971D01*
X0344698Y0052929D01*
X0344570Y0052892D01*
X0344440Y0052859D01*
X0344309Y0052829D01*
X0344177Y0052803D01*
X0344045Y0052782D01*
X0343912Y0052764D01*
X0343778Y0052750D01*
X0343644Y0052740D01*
X0343510Y0052734D01*
X0343376Y0052732D01*
X0343242Y0052734D01*
X0343108Y0052740D01*
X0342974Y0052750D01*
X0342840Y0052764D01*
X0342707Y0052782D01*
X0342575Y0052803D01*
X0342443Y0052829D01*
X0342312Y0052859D01*
X0342182Y0052892D01*
X0342054Y0052929D01*
X0341926Y0052971D01*
X0341799Y0053015D01*
X0341674Y0053064D01*
X0341551Y0053116D01*
X0341429Y0053172D01*
X0341308Y0053232D01*
X0341190Y0053295D01*
X0341073Y0053361D01*
X0340959Y0053431D01*
X0340846Y0053504D01*
X0340736Y0053581D01*
X0340628Y0053661D01*
X0340523Y0053744D01*
X0340420Y0053830D01*
X0340320Y0053919D01*
X0340222Y0054011D01*
X0340127Y0054106D01*
X0340035Y0054204D01*
X0339946Y0054304D01*
X0339860Y0054407D01*
X0339777Y0054512D01*
X0339697Y0054620D01*
X0339620Y0054730D01*
X0339547Y0054843D01*
X0339477Y0054957D01*
X0339411Y0055074D01*
X0339348Y0055192D01*
X0339288Y0055313D01*
X0339232Y0055435D01*
X0339180Y0055558D01*
X0339131Y0055683D01*
X0339087Y0055810D01*
X0339045Y0055938D01*
X0339008Y0056066D01*
X0338975Y0056196D01*
X0338945Y0056327D01*
X0338919Y0056459D01*
X0338898Y0056591D01*
X0338880Y0056724D01*
X0338866Y0056858D01*
X0338856Y0056992D01*
X0338850Y0057126D01*
X0338848Y0057260D01*
X0336967Y0097498D02*
X0336973Y0097957D01*
X0336990Y0098416D01*
X0337018Y0098874D01*
X0337057Y0099331D01*
X0337108Y0099787D01*
X0337169Y0100242D01*
X0337242Y0100695D01*
X0337326Y0101146D01*
X0337421Y0101595D01*
X0337527Y0102042D01*
X0337644Y0102486D01*
X0337772Y0102927D01*
X0337911Y0103364D01*
X0338060Y0103798D01*
X0338220Y0104228D01*
X0338391Y0104655D01*
X0338571Y0105076D01*
X0338762Y0105494D01*
X0338964Y0105906D01*
X0339175Y0106314D01*
X0339397Y0106716D01*
X0339628Y0107112D01*
X0339868Y0107503D01*
X0340119Y0107888D01*
X0340378Y0108266D01*
X0340647Y0108638D01*
X0340925Y0109003D01*
X0341212Y0109362D01*
X0341507Y0109713D01*
X0341811Y0110057D01*
X0342124Y0110393D01*
X0342444Y0110722D01*
X0342773Y0111042D01*
X0343109Y0111355D01*
X0343453Y0111659D01*
X0343804Y0111954D01*
X0344163Y0112241D01*
X0344528Y0112519D01*
X0344900Y0112788D01*
X0345278Y0113047D01*
X0345663Y0113298D01*
X0346054Y0113538D01*
X0346450Y0113769D01*
X0346852Y0113991D01*
X0347260Y0114202D01*
X0347672Y0114404D01*
X0348090Y0114595D01*
X0348511Y0114775D01*
X0348938Y0114946D01*
X0349368Y0115106D01*
X0349802Y0115255D01*
X0350239Y0115394D01*
X0350680Y0115522D01*
X0351124Y0115639D01*
X0351571Y0115745D01*
X0352020Y0115840D01*
X0352471Y0115924D01*
X0352924Y0115997D01*
X0353379Y0116058D01*
X0353835Y0116109D01*
X0354292Y0116148D01*
X0354750Y0116176D01*
X0355209Y0116193D01*
X0355668Y0116199D01*
X0356127Y0116193D01*
X0356586Y0116176D01*
X0357044Y0116148D01*
X0357501Y0116109D01*
X0357957Y0116058D01*
X0358412Y0115997D01*
X0358865Y0115924D01*
X0359316Y0115840D01*
X0359765Y0115745D01*
X0360212Y0115639D01*
X0360656Y0115522D01*
X0361097Y0115394D01*
X0361534Y0115255D01*
X0361968Y0115106D01*
X0362398Y0114946D01*
X0362825Y0114775D01*
X0363246Y0114595D01*
X0363664Y0114404D01*
X0364076Y0114202D01*
X0364484Y0113991D01*
X0364886Y0113769D01*
X0365282Y0113538D01*
X0365673Y0113298D01*
X0366058Y0113047D01*
X0366436Y0112788D01*
X0366808Y0112519D01*
X0367173Y0112241D01*
X0367532Y0111954D01*
X0367883Y0111659D01*
X0368227Y0111355D01*
X0368563Y0111042D01*
X0368892Y0110722D01*
X0369212Y0110393D01*
X0369525Y0110057D01*
X0369829Y0109713D01*
X0370124Y0109362D01*
X0370411Y0109003D01*
X0370689Y0108638D01*
X0370958Y0108266D01*
X0371217Y0107888D01*
X0371468Y0107503D01*
X0371708Y0107112D01*
X0371939Y0106716D01*
X0372161Y0106314D01*
X0372372Y0105906D01*
X0372574Y0105494D01*
X0372765Y0105076D01*
X0372945Y0104655D01*
X0373116Y0104228D01*
X0373276Y0103798D01*
X0373425Y0103364D01*
X0373564Y0102927D01*
X0373692Y0102486D01*
X0373809Y0102042D01*
X0373915Y0101595D01*
X0374010Y0101146D01*
X0374094Y0100695D01*
X0374167Y0100242D01*
X0374228Y0099787D01*
X0374279Y0099331D01*
X0374318Y0098874D01*
X0374346Y0098416D01*
X0374363Y0097957D01*
X0374369Y0097498D01*
X0374363Y0097039D01*
X0374346Y0096580D01*
X0374318Y0096122D01*
X0374279Y0095665D01*
X0374228Y0095209D01*
X0374167Y0094754D01*
X0374094Y0094301D01*
X0374010Y0093850D01*
X0373915Y0093401D01*
X0373809Y0092954D01*
X0373692Y0092510D01*
X0373564Y0092069D01*
X0373425Y0091632D01*
X0373276Y0091198D01*
X0373116Y0090768D01*
X0372945Y0090341D01*
X0372765Y0089920D01*
X0372574Y0089502D01*
X0372372Y0089090D01*
X0372161Y0088682D01*
X0371939Y0088280D01*
X0371708Y0087884D01*
X0371468Y0087493D01*
X0371217Y0087108D01*
X0370958Y0086730D01*
X0370689Y0086358D01*
X0370411Y0085993D01*
X0370124Y0085634D01*
X0369829Y0085283D01*
X0369525Y0084939D01*
X0369212Y0084603D01*
X0368892Y0084274D01*
X0368563Y0083954D01*
X0368227Y0083641D01*
X0367883Y0083337D01*
X0367532Y0083042D01*
X0367173Y0082755D01*
X0366808Y0082477D01*
X0366436Y0082208D01*
X0366058Y0081949D01*
X0365673Y0081698D01*
X0365282Y0081458D01*
X0364886Y0081227D01*
X0364484Y0081005D01*
X0364076Y0080794D01*
X0363664Y0080592D01*
X0363246Y0080401D01*
X0362825Y0080221D01*
X0362398Y0080050D01*
X0361968Y0079890D01*
X0361534Y0079741D01*
X0361097Y0079602D01*
X0360656Y0079474D01*
X0360212Y0079357D01*
X0359765Y0079251D01*
X0359316Y0079156D01*
X0358865Y0079072D01*
X0358412Y0078999D01*
X0357957Y0078938D01*
X0357501Y0078887D01*
X0357044Y0078848D01*
X0356586Y0078820D01*
X0356127Y0078803D01*
X0355668Y0078797D01*
X0355209Y0078803D01*
X0354750Y0078820D01*
X0354292Y0078848D01*
X0353835Y0078887D01*
X0353379Y0078938D01*
X0352924Y0078999D01*
X0352471Y0079072D01*
X0352020Y0079156D01*
X0351571Y0079251D01*
X0351124Y0079357D01*
X0350680Y0079474D01*
X0350239Y0079602D01*
X0349802Y0079741D01*
X0349368Y0079890D01*
X0348938Y0080050D01*
X0348511Y0080221D01*
X0348090Y0080401D01*
X0347672Y0080592D01*
X0347260Y0080794D01*
X0346852Y0081005D01*
X0346450Y0081227D01*
X0346054Y0081458D01*
X0345663Y0081698D01*
X0345278Y0081949D01*
X0344900Y0082208D01*
X0344528Y0082477D01*
X0344163Y0082755D01*
X0343804Y0083042D01*
X0343453Y0083337D01*
X0343109Y0083641D01*
X0342773Y0083954D01*
X0342444Y0084274D01*
X0342124Y0084603D01*
X0341811Y0084939D01*
X0341507Y0085283D01*
X0341212Y0085634D01*
X0340925Y0085993D01*
X0340647Y0086358D01*
X0340378Y0086730D01*
X0340119Y0087108D01*
X0339868Y0087493D01*
X0339628Y0087884D01*
X0339397Y0088280D01*
X0339175Y0088682D01*
X0338964Y0089090D01*
X0338762Y0089502D01*
X0338571Y0089920D01*
X0338391Y0090341D01*
X0338220Y0090768D01*
X0338060Y0091198D01*
X0337911Y0091632D01*
X0337772Y0092069D01*
X0337644Y0092510D01*
X0337527Y0092954D01*
X0337421Y0093401D01*
X0337326Y0093850D01*
X0337242Y0094301D01*
X0337169Y0094754D01*
X0337108Y0095209D01*
X0337057Y0095665D01*
X0337018Y0096122D01*
X0336990Y0096580D01*
X0336973Y0097039D01*
X0336967Y0097498D01*
X0289006Y0028402D02*
X0289008Y0028595D01*
X0289015Y0028788D01*
X0289027Y0028981D01*
X0289044Y0029174D01*
X0289065Y0029366D01*
X0289091Y0029557D01*
X0289122Y0029748D01*
X0289157Y0029938D01*
X0289197Y0030127D01*
X0289242Y0030315D01*
X0289291Y0030502D01*
X0289345Y0030688D01*
X0289403Y0030872D01*
X0289466Y0031055D01*
X0289534Y0031236D01*
X0289605Y0031415D01*
X0289682Y0031593D01*
X0289762Y0031769D01*
X0289847Y0031942D01*
X0289936Y0032114D01*
X0290029Y0032283D01*
X0290126Y0032450D01*
X0290228Y0032615D01*
X0290333Y0032777D01*
X0290442Y0032936D01*
X0290556Y0033093D01*
X0290673Y0033246D01*
X0290793Y0033397D01*
X0290918Y0033545D01*
X0291046Y0033690D01*
X0291177Y0033831D01*
X0291312Y0033970D01*
X0291451Y0034105D01*
X0291592Y0034236D01*
X0291737Y0034364D01*
X0291885Y0034489D01*
X0292036Y0034609D01*
X0292189Y0034726D01*
X0292346Y0034840D01*
X0292505Y0034949D01*
X0292667Y0035054D01*
X0292832Y0035156D01*
X0292999Y0035253D01*
X0293168Y0035346D01*
X0293340Y0035435D01*
X0293513Y0035520D01*
X0293689Y0035600D01*
X0293867Y0035677D01*
X0294046Y0035748D01*
X0294227Y0035816D01*
X0294410Y0035879D01*
X0294594Y0035937D01*
X0294780Y0035991D01*
X0294967Y0036040D01*
X0295155Y0036085D01*
X0295344Y0036125D01*
X0295534Y0036160D01*
X0295725Y0036191D01*
X0295916Y0036217D01*
X0296108Y0036238D01*
X0296301Y0036255D01*
X0296494Y0036267D01*
X0296687Y0036274D01*
X0296880Y0036276D01*
X0297073Y0036274D01*
X0297266Y0036267D01*
X0297459Y0036255D01*
X0297652Y0036238D01*
X0297844Y0036217D01*
X0298035Y0036191D01*
X0298226Y0036160D01*
X0298416Y0036125D01*
X0298605Y0036085D01*
X0298793Y0036040D01*
X0298980Y0035991D01*
X0299166Y0035937D01*
X0299350Y0035879D01*
X0299533Y0035816D01*
X0299714Y0035748D01*
X0299893Y0035677D01*
X0300071Y0035600D01*
X0300247Y0035520D01*
X0300420Y0035435D01*
X0300592Y0035346D01*
X0300761Y0035253D01*
X0300928Y0035156D01*
X0301093Y0035054D01*
X0301255Y0034949D01*
X0301414Y0034840D01*
X0301571Y0034726D01*
X0301724Y0034609D01*
X0301875Y0034489D01*
X0302023Y0034364D01*
X0302168Y0034236D01*
X0302309Y0034105D01*
X0302448Y0033970D01*
X0302583Y0033831D01*
X0302714Y0033690D01*
X0302842Y0033545D01*
X0302967Y0033397D01*
X0303087Y0033246D01*
X0303204Y0033093D01*
X0303318Y0032936D01*
X0303427Y0032777D01*
X0303532Y0032615D01*
X0303634Y0032450D01*
X0303731Y0032283D01*
X0303824Y0032114D01*
X0303913Y0031942D01*
X0303998Y0031769D01*
X0304078Y0031593D01*
X0304155Y0031415D01*
X0304226Y0031236D01*
X0304294Y0031055D01*
X0304357Y0030872D01*
X0304415Y0030688D01*
X0304469Y0030502D01*
X0304518Y0030315D01*
X0304563Y0030127D01*
X0304603Y0029938D01*
X0304638Y0029748D01*
X0304669Y0029557D01*
X0304695Y0029366D01*
X0304716Y0029174D01*
X0304733Y0028981D01*
X0304745Y0028788D01*
X0304752Y0028595D01*
X0304754Y0028402D01*
X0304752Y0028209D01*
X0304745Y0028016D01*
X0304733Y0027823D01*
X0304716Y0027630D01*
X0304695Y0027438D01*
X0304669Y0027247D01*
X0304638Y0027056D01*
X0304603Y0026866D01*
X0304563Y0026677D01*
X0304518Y0026489D01*
X0304469Y0026302D01*
X0304415Y0026116D01*
X0304357Y0025932D01*
X0304294Y0025749D01*
X0304226Y0025568D01*
X0304155Y0025389D01*
X0304078Y0025211D01*
X0303998Y0025035D01*
X0303913Y0024862D01*
X0303824Y0024690D01*
X0303731Y0024521D01*
X0303634Y0024354D01*
X0303532Y0024189D01*
X0303427Y0024027D01*
X0303318Y0023868D01*
X0303204Y0023711D01*
X0303087Y0023558D01*
X0302967Y0023407D01*
X0302842Y0023259D01*
X0302714Y0023114D01*
X0302583Y0022973D01*
X0302448Y0022834D01*
X0302309Y0022699D01*
X0302168Y0022568D01*
X0302023Y0022440D01*
X0301875Y0022315D01*
X0301724Y0022195D01*
X0301571Y0022078D01*
X0301414Y0021964D01*
X0301255Y0021855D01*
X0301093Y0021750D01*
X0300928Y0021648D01*
X0300761Y0021551D01*
X0300592Y0021458D01*
X0300420Y0021369D01*
X0300247Y0021284D01*
X0300071Y0021204D01*
X0299893Y0021127D01*
X0299714Y0021056D01*
X0299533Y0020988D01*
X0299350Y0020925D01*
X0299166Y0020867D01*
X0298980Y0020813D01*
X0298793Y0020764D01*
X0298605Y0020719D01*
X0298416Y0020679D01*
X0298226Y0020644D01*
X0298035Y0020613D01*
X0297844Y0020587D01*
X0297652Y0020566D01*
X0297459Y0020549D01*
X0297266Y0020537D01*
X0297073Y0020530D01*
X0296880Y0020528D01*
X0296687Y0020530D01*
X0296494Y0020537D01*
X0296301Y0020549D01*
X0296108Y0020566D01*
X0295916Y0020587D01*
X0295725Y0020613D01*
X0295534Y0020644D01*
X0295344Y0020679D01*
X0295155Y0020719D01*
X0294967Y0020764D01*
X0294780Y0020813D01*
X0294594Y0020867D01*
X0294410Y0020925D01*
X0294227Y0020988D01*
X0294046Y0021056D01*
X0293867Y0021127D01*
X0293689Y0021204D01*
X0293513Y0021284D01*
X0293340Y0021369D01*
X0293168Y0021458D01*
X0292999Y0021551D01*
X0292832Y0021648D01*
X0292667Y0021750D01*
X0292505Y0021855D01*
X0292346Y0021964D01*
X0292189Y0022078D01*
X0292036Y0022195D01*
X0291885Y0022315D01*
X0291737Y0022440D01*
X0291592Y0022568D01*
X0291451Y0022699D01*
X0291312Y0022834D01*
X0291177Y0022973D01*
X0291046Y0023114D01*
X0290918Y0023259D01*
X0290793Y0023407D01*
X0290673Y0023558D01*
X0290556Y0023711D01*
X0290442Y0023868D01*
X0290333Y0024027D01*
X0290228Y0024189D01*
X0290126Y0024354D01*
X0290029Y0024521D01*
X0289936Y0024690D01*
X0289847Y0024862D01*
X0289762Y0025035D01*
X0289682Y0025211D01*
X0289605Y0025389D01*
X0289534Y0025568D01*
X0289466Y0025749D01*
X0289403Y0025932D01*
X0289345Y0026116D01*
X0289291Y0026302D01*
X0289242Y0026489D01*
X0289197Y0026677D01*
X0289157Y0026866D01*
X0289122Y0027056D01*
X0289091Y0027247D01*
X0289065Y0027438D01*
X0289044Y0027630D01*
X0289027Y0027823D01*
X0289015Y0028016D01*
X0289008Y0028209D01*
X0289006Y0028402D01*
X0320738Y0006748D02*
X0374163Y0006748D01*
X0338848Y0005528D02*
X0338850Y0005662D01*
X0338856Y0005796D01*
X0338866Y0005930D01*
X0338880Y0006064D01*
X0338898Y0006197D01*
X0338919Y0006329D01*
X0338945Y0006461D01*
X0338975Y0006592D01*
X0339008Y0006722D01*
X0339045Y0006850D01*
X0339087Y0006978D01*
X0339131Y0007105D01*
X0339180Y0007230D01*
X0339232Y0007353D01*
X0339288Y0007475D01*
X0339348Y0007596D01*
X0339411Y0007714D01*
X0339477Y0007831D01*
X0339547Y0007945D01*
X0339620Y0008058D01*
X0339697Y0008168D01*
X0339777Y0008276D01*
X0339860Y0008381D01*
X0339946Y0008484D01*
X0340035Y0008584D01*
X0340127Y0008682D01*
X0340222Y0008777D01*
X0340320Y0008869D01*
X0340420Y0008958D01*
X0340523Y0009044D01*
X0340628Y0009127D01*
X0340736Y0009207D01*
X0340846Y0009284D01*
X0340959Y0009357D01*
X0341073Y0009427D01*
X0341190Y0009493D01*
X0341308Y0009556D01*
X0341429Y0009616D01*
X0341551Y0009672D01*
X0341674Y0009724D01*
X0341799Y0009773D01*
X0341926Y0009817D01*
X0342054Y0009859D01*
X0342182Y0009896D01*
X0342312Y0009929D01*
X0342443Y0009959D01*
X0342575Y0009985D01*
X0342707Y0010006D01*
X0342840Y0010024D01*
X0342974Y0010038D01*
X0343108Y0010048D01*
X0343242Y0010054D01*
X0343376Y0010056D01*
X0343510Y0010054D01*
X0343644Y0010048D01*
X0343778Y0010038D01*
X0343912Y0010024D01*
X0344045Y0010006D01*
X0344177Y0009985D01*
X0344309Y0009959D01*
X0344440Y0009929D01*
X0344570Y0009896D01*
X0344698Y0009859D01*
X0344826Y0009817D01*
X0344953Y0009773D01*
X0345078Y0009724D01*
X0345201Y0009672D01*
X0345323Y0009616D01*
X0345444Y0009556D01*
X0345562Y0009493D01*
X0345679Y0009427D01*
X0345793Y0009357D01*
X0345906Y0009284D01*
X0346016Y0009207D01*
X0346124Y0009127D01*
X0346229Y0009044D01*
X0346332Y0008958D01*
X0346432Y0008869D01*
X0346530Y0008777D01*
X0346625Y0008682D01*
X0346717Y0008584D01*
X0346806Y0008484D01*
X0346892Y0008381D01*
X0346975Y0008276D01*
X0347055Y0008168D01*
X0347132Y0008058D01*
X0347205Y0007945D01*
X0347275Y0007831D01*
X0347341Y0007714D01*
X0347404Y0007596D01*
X0347464Y0007475D01*
X0347520Y0007353D01*
X0347572Y0007230D01*
X0347621Y0007105D01*
X0347665Y0006978D01*
X0347707Y0006850D01*
X0347744Y0006722D01*
X0347777Y0006592D01*
X0347807Y0006461D01*
X0347833Y0006329D01*
X0347854Y0006197D01*
X0347872Y0006064D01*
X0347886Y0005930D01*
X0347896Y0005796D01*
X0347902Y0005662D01*
X0347904Y0005528D01*
X0347902Y0005394D01*
X0347896Y0005260D01*
X0347886Y0005126D01*
X0347872Y0004992D01*
X0347854Y0004859D01*
X0347833Y0004727D01*
X0347807Y0004595D01*
X0347777Y0004464D01*
X0347744Y0004334D01*
X0347707Y0004206D01*
X0347665Y0004078D01*
X0347621Y0003951D01*
X0347572Y0003826D01*
X0347520Y0003703D01*
X0347464Y0003581D01*
X0347404Y0003460D01*
X0347341Y0003342D01*
X0347275Y0003225D01*
X0347205Y0003111D01*
X0347132Y0002998D01*
X0347055Y0002888D01*
X0346975Y0002780D01*
X0346892Y0002675D01*
X0346806Y0002572D01*
X0346717Y0002472D01*
X0346625Y0002374D01*
X0346530Y0002279D01*
X0346432Y0002187D01*
X0346332Y0002098D01*
X0346229Y0002012D01*
X0346124Y0001929D01*
X0346016Y0001849D01*
X0345906Y0001772D01*
X0345793Y0001699D01*
X0345679Y0001629D01*
X0345562Y0001563D01*
X0345444Y0001500D01*
X0345323Y0001440D01*
X0345201Y0001384D01*
X0345078Y0001332D01*
X0344953Y0001283D01*
X0344826Y0001239D01*
X0344698Y0001197D01*
X0344570Y0001160D01*
X0344440Y0001127D01*
X0344309Y0001097D01*
X0344177Y0001071D01*
X0344045Y0001050D01*
X0343912Y0001032D01*
X0343778Y0001018D01*
X0343644Y0001008D01*
X0343510Y0001002D01*
X0343376Y0001000D01*
X0343242Y0001002D01*
X0343108Y0001008D01*
X0342974Y0001018D01*
X0342840Y0001032D01*
X0342707Y0001050D01*
X0342575Y0001071D01*
X0342443Y0001097D01*
X0342312Y0001127D01*
X0342182Y0001160D01*
X0342054Y0001197D01*
X0341926Y0001239D01*
X0341799Y0001283D01*
X0341674Y0001332D01*
X0341551Y0001384D01*
X0341429Y0001440D01*
X0341308Y0001500D01*
X0341190Y0001563D01*
X0341073Y0001629D01*
X0340959Y0001699D01*
X0340846Y0001772D01*
X0340736Y0001849D01*
X0340628Y0001929D01*
X0340523Y0002012D01*
X0340420Y0002098D01*
X0340320Y0002187D01*
X0340222Y0002279D01*
X0340127Y0002374D01*
X0340035Y0002472D01*
X0339946Y0002572D01*
X0339860Y0002675D01*
X0339777Y0002780D01*
X0339697Y0002888D01*
X0339620Y0002998D01*
X0339547Y0003111D01*
X0339477Y0003225D01*
X0339411Y0003342D01*
X0339348Y0003460D01*
X0339288Y0003581D01*
X0339232Y0003703D01*
X0339180Y0003826D01*
X0339131Y0003951D01*
X0339087Y0004078D01*
X0339045Y0004206D01*
X0339008Y0004334D01*
X0338975Y0004464D01*
X0338945Y0004595D01*
X0338919Y0004727D01*
X0338898Y0004859D01*
X0338880Y0004992D01*
X0338866Y0005126D01*
X0338856Y0005260D01*
X0338850Y0005394D01*
X0338848Y0005528D01*
X0223613Y0064425D02*
X0223615Y0064540D01*
X0223621Y0064656D01*
X0223631Y0064771D01*
X0223645Y0064886D01*
X0223663Y0065000D01*
X0223685Y0065113D01*
X0223710Y0065226D01*
X0223740Y0065337D01*
X0223773Y0065448D01*
X0223810Y0065557D01*
X0223851Y0065665D01*
X0223896Y0065772D01*
X0223944Y0065877D01*
X0223996Y0065980D01*
X0224052Y0066081D01*
X0224111Y0066181D01*
X0224173Y0066278D01*
X0224239Y0066373D01*
X0224307Y0066466D01*
X0224379Y0066556D01*
X0224454Y0066644D01*
X0224533Y0066729D01*
X0224614Y0066811D01*
X0224697Y0066891D01*
X0224784Y0066967D01*
X0224873Y0067041D01*
X0224964Y0067111D01*
X0225058Y0067179D01*
X0225154Y0067243D01*
X0225253Y0067303D01*
X0225353Y0067360D01*
X0225455Y0067414D01*
X0225559Y0067464D01*
X0225665Y0067511D01*
X0225772Y0067554D01*
X0225881Y0067593D01*
X0225991Y0067628D01*
X0226102Y0067659D01*
X0226214Y0067687D01*
X0226327Y0067711D01*
X0226441Y0067731D01*
X0226556Y0067747D01*
X0226671Y0067759D01*
X0226786Y0067767D01*
X0226901Y0067771D01*
X0227017Y0067771D01*
X0227132Y0067767D01*
X0227247Y0067759D01*
X0227362Y0067747D01*
X0227477Y0067731D01*
X0227591Y0067711D01*
X0227704Y0067687D01*
X0227816Y0067659D01*
X0227927Y0067628D01*
X0228037Y0067593D01*
X0228146Y0067554D01*
X0228253Y0067511D01*
X0228359Y0067464D01*
X0228463Y0067414D01*
X0228565Y0067360D01*
X0228665Y0067303D01*
X0228764Y0067243D01*
X0228860Y0067179D01*
X0228954Y0067111D01*
X0229045Y0067041D01*
X0229134Y0066967D01*
X0229221Y0066891D01*
X0229304Y0066811D01*
X0229385Y0066729D01*
X0229464Y0066644D01*
X0229539Y0066556D01*
X0229611Y0066466D01*
X0229679Y0066373D01*
X0229745Y0066278D01*
X0229807Y0066181D01*
X0229866Y0066081D01*
X0229922Y0065980D01*
X0229974Y0065877D01*
X0230022Y0065772D01*
X0230067Y0065665D01*
X0230108Y0065557D01*
X0230145Y0065448D01*
X0230178Y0065337D01*
X0230208Y0065226D01*
X0230233Y0065113D01*
X0230255Y0065000D01*
X0230273Y0064886D01*
X0230287Y0064771D01*
X0230297Y0064656D01*
X0230303Y0064540D01*
X0230305Y0064425D01*
X0230303Y0064310D01*
X0230297Y0064194D01*
X0230287Y0064079D01*
X0230273Y0063964D01*
X0230255Y0063850D01*
X0230233Y0063737D01*
X0230208Y0063624D01*
X0230178Y0063513D01*
X0230145Y0063402D01*
X0230108Y0063293D01*
X0230067Y0063185D01*
X0230022Y0063078D01*
X0229974Y0062973D01*
X0229922Y0062870D01*
X0229866Y0062769D01*
X0229807Y0062669D01*
X0229745Y0062572D01*
X0229679Y0062477D01*
X0229611Y0062384D01*
X0229539Y0062294D01*
X0229464Y0062206D01*
X0229385Y0062121D01*
X0229304Y0062039D01*
X0229221Y0061959D01*
X0229134Y0061883D01*
X0229045Y0061809D01*
X0228954Y0061739D01*
X0228860Y0061671D01*
X0228764Y0061607D01*
X0228665Y0061547D01*
X0228565Y0061490D01*
X0228463Y0061436D01*
X0228359Y0061386D01*
X0228253Y0061339D01*
X0228146Y0061296D01*
X0228037Y0061257D01*
X0227927Y0061222D01*
X0227816Y0061191D01*
X0227704Y0061163D01*
X0227591Y0061139D01*
X0227477Y0061119D01*
X0227362Y0061103D01*
X0227247Y0061091D01*
X0227132Y0061083D01*
X0227017Y0061079D01*
X0226901Y0061079D01*
X0226786Y0061083D01*
X0226671Y0061091D01*
X0226556Y0061103D01*
X0226441Y0061119D01*
X0226327Y0061139D01*
X0226214Y0061163D01*
X0226102Y0061191D01*
X0225991Y0061222D01*
X0225881Y0061257D01*
X0225772Y0061296D01*
X0225665Y0061339D01*
X0225559Y0061386D01*
X0225455Y0061436D01*
X0225353Y0061490D01*
X0225253Y0061547D01*
X0225154Y0061607D01*
X0225058Y0061671D01*
X0224964Y0061739D01*
X0224873Y0061809D01*
X0224784Y0061883D01*
X0224697Y0061959D01*
X0224614Y0062039D01*
X0224533Y0062121D01*
X0224454Y0062206D01*
X0224379Y0062294D01*
X0224307Y0062384D01*
X0224239Y0062477D01*
X0224173Y0062572D01*
X0224111Y0062669D01*
X0224052Y0062769D01*
X0223996Y0062870D01*
X0223944Y0062973D01*
X0223896Y0063078D01*
X0223851Y0063185D01*
X0223810Y0063293D01*
X0223773Y0063402D01*
X0223740Y0063513D01*
X0223710Y0063624D01*
X0223685Y0063737D01*
X0223663Y0063850D01*
X0223645Y0063964D01*
X0223631Y0064079D01*
X0223621Y0064194D01*
X0223615Y0064310D01*
X0223613Y0064425D01*
X0245856Y0375252D02*
X0245858Y0375440D01*
X0245865Y0375629D01*
X0245877Y0375817D01*
X0245893Y0376004D01*
X0245914Y0376192D01*
X0245939Y0376378D01*
X0245969Y0376564D01*
X0246004Y0376750D01*
X0246043Y0376934D01*
X0246086Y0377117D01*
X0246134Y0377300D01*
X0246187Y0377481D01*
X0246243Y0377660D01*
X0246305Y0377838D01*
X0246370Y0378015D01*
X0246440Y0378190D01*
X0246515Y0378363D01*
X0246593Y0378534D01*
X0246676Y0378704D01*
X0246762Y0378871D01*
X0246853Y0379036D01*
X0246948Y0379199D01*
X0247047Y0379359D01*
X0247150Y0379517D01*
X0247256Y0379672D01*
X0247367Y0379825D01*
X0247481Y0379975D01*
X0247599Y0380122D01*
X0247720Y0380266D01*
X0247845Y0380408D01*
X0247973Y0380546D01*
X0248105Y0380680D01*
X0248239Y0380812D01*
X0248377Y0380940D01*
X0248519Y0381065D01*
X0248663Y0381186D01*
X0248810Y0381304D01*
X0248960Y0381418D01*
X0249113Y0381529D01*
X0249268Y0381635D01*
X0249426Y0381738D01*
X0249586Y0381837D01*
X0249749Y0381932D01*
X0249914Y0382023D01*
X0250081Y0382109D01*
X0250251Y0382192D01*
X0250422Y0382270D01*
X0250595Y0382345D01*
X0250770Y0382415D01*
X0250947Y0382480D01*
X0251125Y0382542D01*
X0251304Y0382598D01*
X0251485Y0382651D01*
X0251668Y0382699D01*
X0251851Y0382742D01*
X0252035Y0382781D01*
X0252221Y0382816D01*
X0252407Y0382846D01*
X0252593Y0382871D01*
X0252781Y0382892D01*
X0252968Y0382908D01*
X0253156Y0382920D01*
X0253345Y0382927D01*
X0253533Y0382929D01*
X0253721Y0382927D01*
X0253910Y0382920D01*
X0254098Y0382908D01*
X0254285Y0382892D01*
X0254473Y0382871D01*
X0254659Y0382846D01*
X0254845Y0382816D01*
X0255031Y0382781D01*
X0255215Y0382742D01*
X0255398Y0382699D01*
X0255581Y0382651D01*
X0255762Y0382598D01*
X0255941Y0382542D01*
X0256119Y0382480D01*
X0256296Y0382415D01*
X0256471Y0382345D01*
X0256644Y0382270D01*
X0256815Y0382192D01*
X0256985Y0382109D01*
X0257152Y0382023D01*
X0257317Y0381932D01*
X0257480Y0381837D01*
X0257640Y0381738D01*
X0257798Y0381635D01*
X0257953Y0381529D01*
X0258106Y0381418D01*
X0258256Y0381304D01*
X0258403Y0381186D01*
X0258547Y0381065D01*
X0258689Y0380940D01*
X0258827Y0380812D01*
X0258961Y0380680D01*
X0259093Y0380546D01*
X0259221Y0380408D01*
X0259346Y0380266D01*
X0259467Y0380122D01*
X0259585Y0379975D01*
X0259699Y0379825D01*
X0259810Y0379672D01*
X0259916Y0379517D01*
X0260019Y0379359D01*
X0260118Y0379199D01*
X0260213Y0379036D01*
X0260304Y0378871D01*
X0260390Y0378704D01*
X0260473Y0378534D01*
X0260551Y0378363D01*
X0260626Y0378190D01*
X0260696Y0378015D01*
X0260761Y0377838D01*
X0260823Y0377660D01*
X0260879Y0377481D01*
X0260932Y0377300D01*
X0260980Y0377117D01*
X0261023Y0376934D01*
X0261062Y0376750D01*
X0261097Y0376564D01*
X0261127Y0376378D01*
X0261152Y0376192D01*
X0261173Y0376004D01*
X0261189Y0375817D01*
X0261201Y0375629D01*
X0261208Y0375440D01*
X0261210Y0375252D01*
X0261208Y0375064D01*
X0261201Y0374875D01*
X0261189Y0374687D01*
X0261173Y0374500D01*
X0261152Y0374312D01*
X0261127Y0374126D01*
X0261097Y0373940D01*
X0261062Y0373754D01*
X0261023Y0373570D01*
X0260980Y0373387D01*
X0260932Y0373204D01*
X0260879Y0373023D01*
X0260823Y0372844D01*
X0260761Y0372666D01*
X0260696Y0372489D01*
X0260626Y0372314D01*
X0260551Y0372141D01*
X0260473Y0371970D01*
X0260390Y0371800D01*
X0260304Y0371633D01*
X0260213Y0371468D01*
X0260118Y0371305D01*
X0260019Y0371145D01*
X0259916Y0370987D01*
X0259810Y0370832D01*
X0259699Y0370679D01*
X0259585Y0370529D01*
X0259467Y0370382D01*
X0259346Y0370238D01*
X0259221Y0370096D01*
X0259093Y0369958D01*
X0258961Y0369824D01*
X0258827Y0369692D01*
X0258689Y0369564D01*
X0258547Y0369439D01*
X0258403Y0369318D01*
X0258256Y0369200D01*
X0258106Y0369086D01*
X0257953Y0368975D01*
X0257798Y0368869D01*
X0257640Y0368766D01*
X0257480Y0368667D01*
X0257317Y0368572D01*
X0257152Y0368481D01*
X0256985Y0368395D01*
X0256815Y0368312D01*
X0256644Y0368234D01*
X0256471Y0368159D01*
X0256296Y0368089D01*
X0256119Y0368024D01*
X0255941Y0367962D01*
X0255762Y0367906D01*
X0255581Y0367853D01*
X0255398Y0367805D01*
X0255215Y0367762D01*
X0255031Y0367723D01*
X0254845Y0367688D01*
X0254659Y0367658D01*
X0254473Y0367633D01*
X0254285Y0367612D01*
X0254098Y0367596D01*
X0253910Y0367584D01*
X0253721Y0367577D01*
X0253533Y0367575D01*
X0253345Y0367577D01*
X0253156Y0367584D01*
X0252968Y0367596D01*
X0252781Y0367612D01*
X0252593Y0367633D01*
X0252407Y0367658D01*
X0252221Y0367688D01*
X0252035Y0367723D01*
X0251851Y0367762D01*
X0251668Y0367805D01*
X0251485Y0367853D01*
X0251304Y0367906D01*
X0251125Y0367962D01*
X0250947Y0368024D01*
X0250770Y0368089D01*
X0250595Y0368159D01*
X0250422Y0368234D01*
X0250251Y0368312D01*
X0250081Y0368395D01*
X0249914Y0368481D01*
X0249749Y0368572D01*
X0249586Y0368667D01*
X0249426Y0368766D01*
X0249268Y0368869D01*
X0249113Y0368975D01*
X0248960Y0369086D01*
X0248810Y0369200D01*
X0248663Y0369318D01*
X0248519Y0369439D01*
X0248377Y0369564D01*
X0248239Y0369692D01*
X0248105Y0369824D01*
X0247973Y0369958D01*
X0247845Y0370096D01*
X0247720Y0370238D01*
X0247599Y0370382D01*
X0247481Y0370529D01*
X0247367Y0370679D01*
X0247256Y0370832D01*
X0247150Y0370987D01*
X0247047Y0371145D01*
X0246948Y0371305D01*
X0246853Y0371468D01*
X0246762Y0371633D01*
X0246676Y0371800D01*
X0246593Y0371970D01*
X0246515Y0372141D01*
X0246440Y0372314D01*
X0246370Y0372489D01*
X0246305Y0372666D01*
X0246243Y0372844D01*
X0246187Y0373023D01*
X0246134Y0373204D01*
X0246086Y0373387D01*
X0246043Y0373570D01*
X0246004Y0373754D01*
X0245969Y0373940D01*
X0245939Y0374126D01*
X0245914Y0374312D01*
X0245893Y0374500D01*
X0245877Y0374687D01*
X0245865Y0374875D01*
X0245858Y0375064D01*
X0245856Y0375252D01*
D11*
X0161014Y0284701D03*
X0290896Y0262732D03*
X0296880Y0028402D03*
X0031093Y0262457D03*
X0026171Y0028402D03*
D12*
X0094281Y0064425D03*
X0051526Y0113126D03*
X0023967Y0113126D03*
X0226959Y0064425D03*
D13*
X0208770Y0224268D03*
X0260069Y0242772D03*
D14*
X0357084Y0151039D03*
X0355668Y0097498D03*
D15*
X0354754Y0223559D03*
X0356782Y0277657D03*
D16*
X0383415Y0353283D03*
X0253533Y0375252D03*
D17*
X0301289Y0314819D03*
X0352589Y0333323D03*
D18*
X0190502Y0330331D03*
X0129478Y0392614D03*
D19*
X0049754Y0360016D03*
X0049754Y0350016D03*
X0039754Y0350016D03*
X0039754Y0360016D03*
X0039754Y0340016D03*
X0039754Y0330016D03*
X0049754Y0330016D03*
X0049754Y0340016D03*
X0049754Y0320016D03*
X0049754Y0310016D03*
X0039754Y0320016D03*
X0075030Y0237693D03*
X0225030Y0237693D03*
D20*
X0261959Y0227220D03*
X0271211Y0222496D03*
X0261762Y0216394D03*
X0271998Y0210488D03*
X0262156Y0203598D03*
X0262156Y0192969D03*
X0272195Y0196709D03*
X0279715Y0278520D03*
X0297431Y0278520D03*
X0086565Y0162260D03*
X0042313Y0278559D03*
X0024596Y0278559D03*
D21*
X0132628Y0145331D03*
X0140502Y0145134D03*
D22*
X0145226Y0155361D02*
X0145226Y0158923D01*
X0125541Y0158923D02*
X0125541Y0155361D01*
D23*
X0075030Y0219701D03*
X0085069Y0227850D03*
X0084990Y0237693D03*
X0085030Y0247732D03*
X0074990Y0247693D03*
X0095069Y0247732D03*
X0105069Y0247732D03*
X0105069Y0237772D03*
X0095030Y0237772D03*
X0114990Y0237732D03*
X0125030Y0237732D03*
X0134951Y0237693D03*
X0144990Y0237693D03*
X0144990Y0247732D03*
X0135030Y0247732D03*
X0125030Y0247732D03*
X0115030Y0247732D03*
X0154990Y0247693D03*
X0164990Y0247654D03*
X0174951Y0247693D03*
X0184990Y0247654D03*
X0184990Y0237654D03*
X0174990Y0237654D03*
X0164990Y0237654D03*
X0155030Y0237654D03*
X0195069Y0237693D03*
X0205069Y0237693D03*
X0214990Y0237693D03*
X0215069Y0247693D03*
X0205069Y0247693D03*
X0195030Y0247654D03*
X0224990Y0247693D03*
X0234990Y0247693D03*
X0234951Y0237732D03*
X0245030Y0237654D03*
X0254990Y0237614D03*
X0254951Y0247654D03*
X0245108Y0247693D03*
X0265069Y0247654D03*
X0265069Y0237654D03*
D24*
X0085069Y0219622D03*
X0075030Y0227732D03*
D25*
X0026919Y0246354D03*
X0017667Y0246354D03*
X0017667Y0196354D03*
X0026919Y0196354D03*
D26*
X0034596Y0205213D03*
X0034793Y0237496D03*
D27*
X0033219Y0221354D03*
D28*
X0033219Y0205213D03*
X0033219Y0237496D03*
D29*
X0019636Y0127693D03*
X0027274Y0098559D03*
D30*
X0056368Y0127732D03*
X0071722Y0110173D03*
D31*
X0049006Y0286433D03*
X0017904Y0286433D03*
X0273022Y0286394D03*
X0304124Y0286394D03*
D32*
X0024045Y0052299D03*
X0019124Y0052299D03*
D33*
X0018179Y0069819D02*
X0024085Y0069819D01*
X0024085Y0082969D02*
X0018179Y0082969D01*
X0019085Y0152220D02*
X0024990Y0152220D01*
X0024990Y0165370D02*
X0019085Y0165370D01*
D34*
X0083297Y0110961D03*
X0089990Y0110961D03*
X0032195Y0079228D03*
X0032195Y0072535D03*
X0259833Y0282024D03*
X0259833Y0288717D03*
D35*
X0254990Y0260724D03*
X0247510Y0260724D03*
X0090896Y0129976D03*
X0083415Y0129976D03*
X0083337Y0121315D03*
X0090817Y0121315D03*
D36*
X0075266Y0125567D03*
X0071919Y0125567D03*
X0071919Y0129701D03*
X0075266Y0129701D03*
X0073652Y0119543D03*
X0070305Y0119543D03*
X0047431Y0131197D03*
X0044085Y0131197D03*
X0027667Y0342063D03*
X0024321Y0342063D03*
X0303967Y0253559D03*
X0307313Y0253559D03*
X0307667Y0248756D03*
X0304321Y0248756D03*
X0304242Y0227850D03*
X0307589Y0227850D03*
D37*
X0230659Y0271433D03*
X0230659Y0278126D03*
G36*
X0092666Y0273286D02*
X0095727Y0276347D01*
X0098510Y0273564D01*
X0095449Y0270503D01*
X0092666Y0273286D01*
G37*
G36*
X0087933Y0268553D02*
X0090994Y0271614D01*
X0093777Y0268831D01*
X0090716Y0265770D01*
X0087933Y0268553D01*
G37*
D38*
X0045344Y0268638D03*
X0045344Y0265291D03*
X0062628Y0342417D03*
X0062628Y0345764D03*
X0139518Y0267220D03*
X0139518Y0263874D03*
X0145778Y0264583D03*
X0145778Y0267929D03*
X0272785Y0264307D03*
X0272785Y0260961D03*
X0205502Y0034780D03*
X0205502Y0031433D03*
X0113848Y0030488D03*
X0113848Y0027142D03*
D39*
X0151841Y0263913D03*
X0151841Y0267850D03*
X0156959Y0265882D03*
D40*
X0239675Y0282260D03*
X0239675Y0289740D03*
X0266250Y0269071D03*
X0266250Y0261591D03*
D41*
X0200384Y0301669D03*
X0127707Y0291039D03*
X0079163Y0381630D03*
X0032274Y0381551D03*
X0365778Y0031394D03*
D42*
X0091211Y0390449D03*
X0066801Y0390449D03*
D43*
X0062864Y0399701D03*
X0095148Y0399701D03*
D44*
X0084124Y0389169D03*
X0081565Y0389169D03*
X0079006Y0389169D03*
X0076447Y0389169D03*
X0073888Y0389169D03*
D45*
X0328730Y0045173D03*
X0328730Y0035331D03*
X0328730Y0027457D03*
X0328730Y0017614D03*
D46*
X0343376Y0005528D03*
X0343376Y0057260D03*
D47*
X0210856Y0339031D03*
X0210856Y0363441D03*
D48*
X0220108Y0367378D03*
X0220108Y0335094D03*
D49*
X0209577Y0346118D03*
X0209577Y0348677D03*
X0209577Y0351236D03*
X0209577Y0353795D03*
X0209577Y0356354D03*
D50*
X0211014Y0390411D02*
X0211014Y0395211D01*
X0201014Y0395211D02*
X0201014Y0390411D01*
X0191014Y0390411D02*
X0191014Y0395211D01*
X0181014Y0395211D02*
X0181014Y0390411D01*
X0171014Y0390411D02*
X0171014Y0395211D01*
D51*
X0047785Y0057969D03*
X0047785Y0050488D03*
X0056447Y0054228D03*
D52*
X0248337Y0281453D03*
X0250305Y0281453D03*
X0252274Y0281453D03*
X0252274Y0286768D03*
X0250305Y0286768D03*
X0248337Y0286768D03*
D53*
X0253258Y0271591D03*
X0239478Y0271591D03*
D54*
X0033258Y0346079D03*
X0029321Y0346079D03*
X0031289Y0351197D03*
D55*
X0039754Y0310016D03*
D56*
X0025541Y0184150D03*
X0021801Y0184150D03*
X0018061Y0184150D03*
X0018061Y0173913D03*
X0021801Y0173913D03*
X0025541Y0173913D03*
D57*
X0122904Y0284543D03*
X0132904Y0284543D03*
X0084360Y0375134D03*
X0074360Y0375134D03*
X0037470Y0375055D03*
X0027470Y0375055D03*
D58*
X0185344Y0284228D03*
X0195344Y0284228D03*
X0205344Y0284228D03*
X0215344Y0284228D03*
X0348337Y0046433D03*
X0348337Y0036433D03*
X0348337Y0026433D03*
X0348337Y0016433D03*
D59*
X0219754Y0100252D03*
X0217431Y0127339D03*
X0198967Y0129465D03*
D60*
X0301289Y0107890D03*
X0301289Y0083087D03*
D61*
X0286526Y0091551D03*
X0286526Y0099425D03*
X0286526Y0107299D03*
M02*
